SplineFontDB: 3.0
FontName: Experiment-Sinhala-Bold
FullName: Experiment-Sinhala
FamilyName: Experiment-Sinhala
Weight: Bold
Copyright: Copyright (c) 2015, Pathum Egodawatta
UComments: "2015-9-29: Created with FontForge (http://fontforge.org)"
Version: 0.001
ItalicAngle: 0
UnderlinePosition: -99
UnderlineWidth: 49
Ascent: 750
Descent: 250
InvalidEm: 0
LayerCount: 3
Layer: 0 0 "Back" 1
Layer: 1 0 "Fore" 0
Layer: 2 0 "stencil" 1
PreferredKerning: 4
XUID: [1021 779 -1439063335 14876943]
FSType: 0
OS2Version: 0
OS2_WeightWidthSlopeOnly: 0
OS2_UseTypoMetrics: 1
CreationTime: 1443542790
ModificationTime: 1462550483
PfmFamily: 17
TTFWeight: 400
TTFWidth: 5
LineGap: 122
VLineGap: 0
OS2TypoAscent: 879
OS2TypoAOffset: 0
OS2TypoDescent: -250
OS2TypoDOffset: 0
OS2TypoLinegap: 122
OS2WinAscent: 879
OS2WinAOffset: 0
OS2WinDescent: 49
OS2WinDOffset: 0
HheadAscent: 779
HheadAOffset: 0
HheadDescent: -27
HheadDOffset: 0
OS2Vendor: 'PfEd'
Lookup: 4 0 0 "'abvs' Above Base Substitutions in Sinhala lookup 0" { "'abvs' Above Base Substitutions in Sinhala lookup 0-1"  "'abvs' Above Base Substitutions in Sinhala lookup 0-2"  } ['abvs' ('DFLT' <'dflt' > 'sinh' <'dflt' > ) ]
Lookup: 4 0 0 "si_akhands" { "si_akhands subtable"  } ['akhn' ('sinh' <'dflt' > ) ]
Lookup: 4 0 0 "si_reph" { "si_reph subtable"  } ['rphf' ('sinh' <'dflt' > ) ]
Lookup: 4 0 0 "si_halant_1" { "si_halant_1 subtable"  } ['abvs' ('sinh' <'dflt' > ) ]
Lookup: 4 0 0 "si_halant_2" { "si_halant_2 subtable"  } ['abvs' ('sinh' <'dflt' > ) ]
Lookup: 4 0 0 "si_halant_3" { "si_halant_3 subtable"  } ['abvs' ('sinh' <'dflt' > ) ]
Lookup: 4 0 0 "si_abvs_1" { "si_abvs_1 subtable"  } ['abvs' ('sinh' <'dflt' > ) ]
Lookup: 4 0 0 "si_abvs_2" { "si_abvs_2 subtable"  } ['abvs' ('sinh' <'dflt' > ) ]
Lookup: 4 0 0 "si_abvs_3" { "si_abvs_3 subtable"  } ['abvs' ('sinh' <'dflt' > ) ]
Lookup: 4 0 0 "si_abvs_4" { "si_abvs_4 subtable"  } ['abvs' ('sinh' <'dflt' > ) ]
Lookup: 4 0 0 "si_abvs_5" { "si_abvs_5 subtable"  } ['abvs' ('sinh' <'dflt' > ) ]

StartChar: si_Tta
Encoding: 34 3495 0
GlifName: si_T_ta
Width: 791
VWidth: -14
Flags: HMW
LayerCount: 3
Back
SplineSet
45.3779296875 189.700195312 m 0
 45.3779296875 339.439453125 165.736328125 417.134765625 280.758789062 417.134765625 c 0
 337.99609375 417.134765625 374.442382812 398 374.442382812 398 c 1
 376.801757812 381.622070312 365.038085938 359.219726562 360.442382812 353 c 1
 337.745117188 363.475585938 308.950195312 369.37890625 280.046875 369.37890625 c 0
 195.95703125 369.37890625 116.431640625 310.5 116.431640625 214.116210938 c 4
 116.431640625 111.692382812 214.831054688 42.994140625 378.809570312 42.994140625 c 0
 587.463867188 42.994140625 664.987304688 184.725585938 670.928710938 342.05859375 c 0
 678.041015625 527.848632812 579.948242188 676.029296875 354.067382812 676.029296875 c 0
 221.086914062 676.029296875 143.41015625 604 140.442382812 604 c 1
 128.0703125 612.104492188 116.297851562 638.651367188 125.442382812 669 c 1
 176.00390625 706.421875 265.581054688 734.004882812 358.483398438 734.004882812 c 0
 585.213867188 734.004882812 742.506835938 574.91796875 736.581054688 335 c 0
 730.743164062 98.6240234375 600.635742188 -59.021484375 371.291992188 -59.021484375 c 0
 158.866210938 -59.021484375 45.3779296875 43.3056640625 45.3779296875 189.700195312 c 0
EndSplineSet
Fore
SplineSet
33.3779296875 191.700195312 m 0
 33.3779296875 356.821289062 164.798828125 437.134765625 280.758789062 437.134765625 c 0
 344.10546875 437.134765625 384.442382812 418 384.442382812 418 c 1
 387.307617188 397.086914062 373.022460938 342.942382812 367.442382812 335 c 1
 341.921875 345.475585938 309.544921875 351.37890625 277.046875 351.37890625 c 0
 209.37890625 351.37890625 153.431640625 313.267578125 153.431640625 238.116210938 c 0
 153.431640625 151.254882812 248.809570312 92.33203125 373.809570312 92.994140625 c 0
 556.93359375 93.994140625 628.616210938 215.669921875 630.928710938 352.05859375 c 0
 634.340820312 506.139648438 557.939453125 622.919921875 347.067382812 625.029296875 c 4
 247.119140625 625.934570312 162.896484375 572 160.442382812 572 c 5
 136.698242188 593.091796875 128.153320312 640.028320312 130.442382812 677 c 5
 177.75 713.846679688 261.561523438 741.004882812 348.483398438 741.004882812 c 4
 577.208007812 741.004882812 752.8203125 579.126953125 746.581054688 335 c 0
 740.743164062 98.6240234375 610.635742188 -59.021484375 381.291992188 -59.021484375 c 0
 171.27734375 -59.021484375 33.3779296875 44.12890625 33.3779296875 191.700195312 c 0
EndSplineSet
EndChar

StartChar: si_Pa
Encoding: 46 3508 1
GlifName: si_P_a
Width: 788
VWidth: -24
Flags: HMW
LayerCount: 3
Back
SplineSet
207.01953125 569 m 0
 280.920898438 569 351.127929688 527.0234375 351.127929688 442.978515625 c 0
 351.127929688 409.3046875 345.36328125 379.30078125 337.01953125 345 c 1
 322.7265625 347.275390625 308.912109375 348.356445312 295.654296875 348.356445312 c 0
 193.576171875 348.356445312 117.010742188 284.40234375 117.010742188 207.518554688 c 0
 117.010742188 123.084960938 199.097655916 37.9911454971 393.01953125 37 c 0
 588.673828125 36 675.0390625 127.10546875 675.0390625 218.502929688 c 0
 675.0390625 311.252929688 587.720703125 349.006835938 504.326171875 349.006835938 c 0
 488.408203125 349.006835938 472.451171875 347.630859375 457.01953125 345 c 1
 477.01953125 385 l 1
 498.573242188 389.59765625 519.640625 391.83984375 539.876953125 391.83984375 c 0
 653.622070312 391.83984375 741.114257812 321.03125 741.114257812 199.946289062 c 0
 741.114257812 30.0625 570.21484375 -59 388.01953125 -59 c 0
 195.291015625 -59 45 31.798828125 45 177.118164062 c 0
 45 334.90234375 188.390625 397.203125 295.756835938 397.203125 c 0
 304.442382812 397.203125 312.895507812 396.796875 321.01953125 396 c 1
 297.01953125 357 l 1
 303.069335938 374.28515625 313.879882812 392.565429688 313.879882812 415.716796875 c 0
 313.879882812 472.971679688 264.365234375 505.75 209.526367188 505.75 c 0
 198.72265625 505.75 187.484375 504.529296875 176.01953125 502 c 1
 209.01953125 523 l 1
 154.01953125 421 l 1
 114.057617188 422.94921875 87.966796875 446.76171875 87.966796875 480.361328125 c 0
 87.966796875 532.604492188 146.654296875 569 207.01953125 569 c 0
502.01953125 363 m 1
 457.01953125 345 l 1
 449.01953125 370 441.53119217 396.002839085 442.01953125 438 c 0
 443.01953125 524 518.01953125 569 585.01953125 568 c 0
 664.010733433 566.821026833 720.01953125 521.658914729 720.01953125 446 c 0
 720.01953125 352.779661017 623.01953125 321 623.01953125 321 c 1
 607.01953125 338 l 1
 641.141601562 359.174804688 656.020507812 396.187457174 656.020507812 429.270507812 c 0
 656.020507812 475.12109375 621.904296875 506 563.01953125 506 c 0
 514.320736069 506 477.01953125 473.573333333 477.01953125 430 c 0
 477.01953125 378 502.01953125 363 502.01953125 363 c 1
EndSplineSet
Fore
SplineSet
194 578 m 0
 293.34636167 578 377.169921875 521.546234393 377.169921875 422.569335938 c 0
 377.169921875 375.085605781 368.341677764 348.824148709 360 327 c 1
 305 364 l 1
 306 375.333007812 309.666992188 385 309.666992188 393.888671875 c 0
 309.666992188 444.201741522 260.422577182 478.65625 204.43359375 478.65625 c 1
 150 389 l 1
 97.7777777774 393.052631579 56 416.017543859 56 466 c 0
 56 547.565217392 135.488 578 194 578 c 0
359.01953125 325 m 1
 335.814741461 335.870169816 315.963244934 338.356445312 295.654296875 338.356445312 c 0
 218.767001397 338.356445312 149.010742188 284.846580947 149.010742188 220.518554688 c 0
 149.010742188 153.415484215 221.580596198 85.7752507323 393.01953125 85 c 0
 567.860982716 84.2093630117 645.0390625 156.240716438 645.0390625 228.502929688 c 0
 645.0390625 299.931728813 573.06596693 329.882396647 504.326171875 329.006835938 c 0
 485.044918465 328.761244459 465.713217208 327.630859375 447.01953125 325 c 1
 467.01953125 385 l 1
 492.002226434 389.59765625 516.421223453 391.83984375 539.876953125 391.83984375 c 0
 664.926646009 391.83984375 761.114257812 324.721243333 761.114257812 209.946289062 c 0
 761.114257812 26.9413396485 580.534755026 -69 388.01953125 -69 c 0
 185.17755862 -69 27 25.644310682 27 177.118164062 c 0
 27 334.90234375 180.683589658 397.203125 295.756835938 397.203125 c 0
 304.442382812 397.203125 312.895507812 396.796875 321.01953125 396 c 1
 359.01953125 325 l 1
506.01953125 343 m 1
 447.01953125 325 l 1
 439.01953125 351.075268817 431.538789158 378.195842329 432.01953125 422 c 0
 433.15939139 525.861538462 518.646328751 580.082330956 595.01953125 579 c 0
 685.713133756 577.714725974 750.01953125 528.480620155 750.01953125 446 c 0
 750.01953125 352.779661017 653.01953125 321 653.01953125 321 c 1
 597.01953125 338 l 5
 624.178052526 356.854799552 636.020507812 389.812182338 636.020507812 419.270507812 c 4
 636.020507812 460.34060222 609.241039391 488 563.01953125 488 c 0
 518.850856551 488 485.01953125 452.393846154 485.01953125 412 c 0
 485.01953125 358.447761194 506.01953125 343 506.01953125 343 c 1
EndSplineSet
EndChar

StartChar: si_Va
Encoding: 55 3520 2
GlifName: si_V_a
Width: 789
VWidth: -14
Flags: HMW
LayerCount: 3
Back
SplineSet
-558 757 m 1048
223 503 m 0,28,29
 301.04296875 503 394.139273993 460.937250805 394.139273993 351.559540423 c 0,0,0
 394.139273993 317.850536642 386 285 386 285 c 1,0,1
 367.860351562 287.326171875 349.873046875 288.46484375 332.33203125 288.46484375 c 0,0,0
 221.124023438 288.46484375 127.881835938 251.706054688 127.881835938 172.880859375 c 0,0,0
 127.881835938 96.2333984375 219.751953125 43.986328125 370.3828125 43.986328125 c 0,0,0
 563.553710938 43.986328125 675 171.591796875 675 340 c 0,6,7
 675 548.514174916 573.752929688 679.040039062 354.396484375 679.040039062 c 0,0,0
 231.80078125 679.040039062 148.973632812 615 147 615 c 5,10,-1
 136.178710938 622.749023438 124.267578125 650.360351562 128 679 c 5,11,12
 169.635742188 707.311523438 239.389648438 737.006835938 361.276367188 737.006835938 c 0,0,0
 563.3046875 737.006835938 734 589.39144879 734 334 c 0,15,16
 734 105.610719929 600.713867188 -59.4921875 368.008789062 -59.4921875 c 0,0,0
 186.713867188 -59.4921875 50.947265625 22.1328125 50.947265625 149.548828125 c 0,0,0
 50.947265625 296.309570312 212.70940418 332.828491377 327.507290856 332.828491377 c 0,0,0
 336.709666527 332.828491377 345.578125 332.541992188 354 332 c 1,21,22
 354 402 304 438 222 438 c 1,23,-1
 176 357 l 1,24,25
 141.240234375 350.856445312 108.468061652 374.881163208 107.776367188 413.692382812 c 0,0,0
 106.776367188 469.802734375 164.069335938 503 223 503 c 0,28,29
EndSplineSet
Fore
SplineSet
233 533 m 4
 320.163085938 533 414.139648438 485.382237772 414.139648438 361.559570312 c 0
 414.139648438 316.202227472 399 272 399 272 c 1
 373.086405132 274.326171875 347.39044261 275.46484375 322.33203125 275.46484375 c 0
 238.864805928 275.46484375 168.881835938 248.564881299 168.881835938 190.880859375 c 0
 168.881835938 133.262279851 249.395366729 92.3658382813 381.3828125 93.986328125 c 0
 544.281020449 95.986328125 625.086057301 210.074472569 628 350 c 0
 631.640625 524.8203125 541.8828125 640.040039062 355.396484375 640.040039062 c 0
 236.34765625 640.040039062 154.916535427 578 153 578 c 1
 138.761461761 590.592163087 123.088918586 635.460571289 128 682 c 1
 168.171189598 708.751884387 250.822150793 745.006835938 364.276367188 745.006835938 c 0
 586.603304888 745.006835938 756 589.4609375 756 344 c 0
 756 115.030273438 618.343725103 -60.4921875 378.008789062 -60.4921875 c 0
 185.849718558 -60.4921875 41.947265625 21.52328611 41.947265625 149.548828125 c 0
 41.947265625 305.117500039 206.633789062 343.828125 383.506835938 333.828125 c 0
 392.694335938 333.30859375 351.578125 333.541992188 360 333 c 1
 360 405.736328125 311.515625 438 232 438 c 5
 186 357 l 5
 141.049804688 349.772460938 98.556640625 378.033203125 97.7763671875 423.692382812 c 4
 96.6025390625 492.368164062 163.840820312 533 233 533 c 4
EndSplineSet
EndChar

StartChar: si_Ra
Encoding: 53 3515 4
GlifName: si_R_a
Width: 729
VWidth: -5
Flags: HMW
LayerCount: 3
Back
SplineSet
675.066618805 251.899164463 m 0
 675.066618805 84.9059161516 551.97675665 -52 356 -52 c 0
 159.88004048 -52 54.6107250228 84.2574075305 54.6107250228 235.980431581 c 0
 54.6107250228 516.426255002 404.42940796 601.884508681 504 736 c 1
 544 834 l 5
 545.121167552 834.03429062 546.224106084 834.05123063 547.309000652 834.05123063 c 0
 587.59480091 834.05123063 603 810.692858249 603 785 c 0
 603 707.080078125 536.435546875 660.377929688 428 594 c 0
 300 516 125 415 125 245 c 0
 125 133.073973286 231.297716313 53.6681819591 366.324043717 53.6681819591 c 0
 532.528814129 53.6681819591 600.15472283 157.20300922 600.15472283 260.633713181 c 0
 600.15472283 392.842255763 511.772068188 484 377 484 c 0
 208.249023438 484 137 339 137 339 c 1
 165 428 l 1
 163.905622903 431.283131291 265.472067896 532.005728598 397.88989189 532.005728598 c 0
 545.667763935 532.005728598 675.066618805 426.866792457 675.066618805 251.899164463 c 0
EndSplineSet
Fore
SplineSet
705.06640625 241.899414062 m 0
 705.06640625 74.9060285956 574.26100466 -62 366 -62 c 0
 163.372842786 -62 54.6107250228 78.988888999 54.6107250228 235.980431581 c 0
 54.6107250228 502.034951964 404.42940796 609.202303828 504 746 c 1
 544 834 l 1
 545.121167552 834.03429062 546.224106084 834.05123063 547.309000652 834.05123063 c 0
 616.530033339 834.05123063 643 805.930822296 643 775 c 0
 643 693.000501063 536.740874083 627.724492942 428 574 c 0
 322.138144092 521.69791416 174 415.00286533 174 264 c 0
 174 158.508671094 263.119186289 83.66796875 376.32421875 83.66796875 c 0
 513.161595055 83.66796875 570.154296875 172.195394206 570.154296875 260.633789062 c 0
 570.154296875 375.085550323 493.65361028 454 377 454 c 0
 243.405476888 454 187 338 187 338 c 1
 195 418 l 1
 193.943216991 421.220001757 292.020647155 520.005859375 419.889648438 520.005859375 c 4
 571.932768707 520.005859375 705.06640625 415.617674527 705.06640625 241.899414062 c 0
EndSplineSet
EndChar

StartChar: si_Ca
Encoding: 27 3488 5
GlifName: si_C_a
Width: 831
VWidth: -14
Flags: HMW
LayerCount: 3
Back
SplineSet
22 333 m 1
 448 333 l 1
 443 283 l 1
 126 283 l 1
 26 273 l 1
 20.7978515625 284.331054688 11.576171875 308.646484375 22 333 c 1
EndSplineSet
Refer: 2 3520 N 1 0 0 1 57 0 2
Fore
SplineSet
12 344 m 1
 448 344 l 1
 454 271 l 1
 116 271 l 1
 16 250 l 5
 10.7978515625 261.331054688 1.576171875 319.646484375 12 344 c 1
EndSplineSet
Refer: 2 3520 N 1 0 0 1 57 0 2
EndChar

StartChar: si_Sa
Encoding: 58 3523 6
GlifName: si_S_a
Width: 930
VWidth: -24
Flags: HMWO
AnchorPoint: "si_MaU" 559.342 101.822 basechar 0
AnchorPoint: "si_MaI" 179.342 475.542 basechar 0
AnchorPoint: "si_hal" 441.342 452.542 basechar 0
LayerCount: 3
Back
SplineSet
56 379 m 1
 435 379 l 1
 437 337 l 1
 141 337 l 1
 56 322 l 1
 50.970703125 343.515625 50.3701171875 362.815429688 56 379 c 1
687.50390625 503.239257812 m 0
 643.010742188 503.239257812 589.521484375 469.518554688 589.521484375 399.736328125 c 0
 589.521484375 362.984375 606 353 606 353 c 1
 565 373 l 1
 598 384 l 1
 617.655273438 389.202148438 640.66796875 392.224609375 664.944335938 392.224609375 c 0
 763.548828125 392.224609375 883 342.348632812 883 186 c 0
 883 63.4365234375 804.774414062 -46 668.874023438 -46 c 0
 549.23828125 -46 499.905273438 22.66015625 485 126 c 1
 484.577148438 125.366210938 485.985351562 125.133789062 488.451171875 125.133789062 c 0
 495.186523438 125.133789062 509.813476562 126.866210938 516.548828125 126.866210938 c 0
 519.014648438 126.866210938 520.422851562 126.633789062 520 126 c 0
 502.051757812 24.6181640625 437.15625 -44 319.205078125 -44 c 0
 183.446289062 -44 118.965820312 52.9931640625 118.965820312 150.334960938 c 0
 118.965820312 273.780273438 211.487304688 347 247.930664062 347 c 2
 344 347 l 1
 246.3125 335.927734375 183.805664062 265.528320312 183.805664062 186.677734375 c 0
 183.805664062 113.049804688 244.936523438 53.853515625 335.05078125 53.853515625 c 0
 401.274414062 53.853515625 478.1328125 90.8466796875 483 211 c 1
 496 215.659179688 509 217.1015625 522 215 c 1
 524.95703125 102.041992188 589.49609375 53.98046875 672 53.98046875 c 0
 754.674804688 53.98046875 819.034179688 113.801757812 819.034179688 198.362304688 c 0
 819.034179688 284.981445312 749.791015625 348.385742188 655.627929688 348.385742188 c 0
 625.78515625 348.385742188 593.438476562 343.016601562 560 329 c 1
 554.674804688 352.608398438 549.959960938 376.579101562 549.959960938 402.084960938 c 0
 549.959960938 502.724609375 627.1953125 566.659179688 722.900390625 568.045898438 c 0
 791.896484375 569.045898438 859 531.451171875 859 453 c 0
 859 357 766 331 766 331 c 1
 750 331 l 1
 750 331 785 369.990234375 785 419 c 0
 785 458.370117188 752.005859375 503.239257812 687.50390625 503.239257812 c 0
298 568 m 0
 382.702148438 568 454.169921875 515.178710938 454.169921875 422.569335938 c 0
 454.169921875 380.053710938 445.341796875 356.540039062 437 337 c 1
 409 364 l 1
 410 375.333007812 413.666992188 385 413.666992188 393.888671875 c 0
 413.666992188 462.0078125 351.788085938 508.65625 281.43359375 508.65625 c 1
 227 419 l 1
 197 422 173 439 173 476 c 0
 173 543 245 568 298 568 c 0
EndSplineSet
Fore
SplineSet
36 372 m 1
 445 372 l 1
 457 317 l 1
 171 317 l 1
 36 272 l 1
 30.970703125 302.197265625 30.3701171875 349.28515625 36 372 c 1
677.50390625 473.239257812 m 0
 627.551757812 473.239257812 583.905273438 448.330078125 589.521484375 397.736328125 c 0
 595.521484375 343.684570312 566 349 566 349 c 1
 552 363 l 1
 568 366 l 1
 584.71875 371.202148438 617.296875 393.33203125 664.944335938 392.224609375 c 0
 758.048828125 390.061523438 893 342.348632812 893 186 c 0
 893 63.4365234375 811.158203125 -46 682.874023438 -46 c 0
 521.923828125 -46 492.688476562 64.6435546875 485 176 c 1
 484.577148438 175.366210938 485.985351562 175.133789062 488.451171875 175.133789062 c 0
 495.186523438 175.133789062 509.813476562 176.866210938 516.548828125 176.866210938 c 0
 519.014648438 176.866210938 520.119140625 176.752929688 520 176 c 0
 502.051757812 62.6904296875 457.15625 -44 319.205078125 -44 c 0
 176.666015625 -44 108.965820312 42.9931640625 108.965820312 140.334960938 c 0
 108.965820312 286.486328125 287.048828125 346.966796875 342.930664062 337 c 2
 369 327 l 1
 292.655273438 319.173828125 243.805664062 269.412109375 243.805664062 213.677734375 c 0
 243.805664062 163.885742188 276.029296875 123.853515625 342.05078125 123.853515625 c 0
 409.76953125 123.853515625 476.7578125 153.784179688 481 251 c 1
 500.333007812 255.659179688 506.666992188 257.1015625 526 255 c 1
 528.622070312 170.102539062 588.846679688 133.98046875 662 133.98046875 c 0
 719.372070312 133.98046875 760.662109375 168.92578125 764.034179688 218.362304688 c 0
 768.201171875 279.446289062 718.096679688 332.385742188 645.627929688 332.385742188 c 0
 611.727539062 332.385742188 584.984375 327.016601562 547 313 c 1
 541.674804688 344.361328125 536.959960938 368.203125 536.959960938 402.084960938 c 0
 536.959960938 508.7890625 614.639648438 576.740234375 710.900390625 578.045898438 c 0
 791.049804688 579.1328125 869 538.270507812 869 453 c 0
 869 357 766 331 766 331 c 1
 750 331 l 1
 750 331 775 356.698242188 775 389 c 0
 775 428.370117188 735.389648438 473.239257812 677.50390625 473.239257812 c 0
291 578 m 0
 390.346679688 578 474.169921875 521.545898438 474.169921875 422.569335938 c 0
 474.169921875 365.1484375 465.341796875 343.391601562 457 317 c 1
 412 364 l 1
 413 375.333007812 416.666992188 385 416.666992188 393.888671875 c 0
 416.666992188 453.202148438 357.422851562 478.65625 301.43359375 478.65625 c 1
 247 389 l 1
 194.77734375 393.052734375 153 416.017578125 153 466 c 0
 153 547.565429688 232.48828125 578 291 578 c 0
EndSplineSet
Layer: 2
SplineSet
510.817382812 48.9150390625 m 1
 538.389648438 -10.3505859375 587.282226562 -46 668.874023438 -46 c 0
 811.12109375 -46 893 43.4365234375 893 166 c 0
 893 322.348632812 748.0703125 342.224609375 644.944335938 342.224609375 c 4
 645.627929688 334.385742188 l 4
 728.265625 334.385742188 794.545898438 266.73046875 789.034179688 188.362304688 c 0
 784.734375 127.225585938 743.428710938 93.98046875 672 93.98046875 c 0
 616.59375 93.98046875 564.90234375 136.515625 537 172 c 1
 538.927734375 124.46484375 530.721679688 83.1181640625 510.817382812 48.9150390625 c 1
56 372 m 1
 385 372 l 1
 275.450195312 355.047851562 118.6953125 335.680664062 46 272 c 1
 40.970703125 298.421875 50.3701171875 352.125 56 372 c 1
516.548828125 146.866210938 m 0
 519.014648438 146.866210938 520.119140625 146.752929688 520 146 c 0
 502.051757812 32.6904296875 447.15625 -44 319.205078125 -44 c 0
 176.666015625 -44 108.965820312 52.9931640625 108.965820312 150.334960938 c 0
 108.965820312 328.413085938 313.1796875 350.25390625 414 337 c 1
 328.508789062 327.79296875 203.805664062 279.249023438 203.805664062 193.677734375 c 0
 203.805664062 132.798828125 246.852539062 93.853515625 335.05078125 93.853515625 c 0
 396.797851562 93.853515625 478.461914062 160.846679688 503 251 c 1
 551.640625 78.6533203125 480.639648438 146.866210938 516.548828125 146.866210938 c 0
687.50390625 473.239257812 m 0
 745.389648438 473.239257812 765 438.370117188 765 399 c 0
 765 366.698242188 740 341 740 341 c 1
 755.450195312 341 869 347.768554688 869 453 c 0
 869 538.270507812 795.487304688 579.1328125 719.900390625 578.045898438 c 0
 620.321289062 576.614257812 539.959960938 508.7890625 539.959960938 402.084960938 c 0
 539.959960938 371.693359375 544.674804688 353.130859375 550 315 c 1
 560.729492188 338.046875 553.174804688 473.239257812 687.50390625 473.239257812 c 0
298 578 m 0
 388.125976562 578 464.169921875 521.545898438 464.169921875 422.569335938 c 0
 464.169921875 370.1171875 455.341796875 341.107421875 447 317 c 1
 432 344 l 1
 433 355.333007812 436.666992188 365 436.666992188 373.888671875 c 0
 436.666992188 424.202148438 387.422851562 478.65625 301.43359375 478.65625 c 1
 247 389 l 1
 200.333007812 393.579101562 163 419.526367188 163 476 c 0
 163 550.282226562 240.759765625 578 298 578 c 0
EndSplineSet
EndChar

StartChar: si_Ka
Encoding: 21 3482 7
GlifName: si_K_a
Width: 1099
VWidth: -24
Flags: HMW
AnchorPoint: "si_hal" 890 494 basechar 0
LayerCount: 3
Back
SplineSet
847.751953125 11.94140625 m 0
 947.66796875 11.94140625 996.915039062 119.083007812 996.915039062 218.872070312 c 0
 996.915039062 394.147460938 852.669921875 469.244140625 685.630859375 469.244140625 c 0
 576.423828125 469.244140625 499.286132812 435.126953125 402 374 c 0
 384.384765625 362.932617188 396.258789062 366.689453125 382 355 c 0
 292.000976562 272.916992188 209.03125 205.615234375 116 69 c 1
 116 69 81.306640625 78.6123046875 87 97 c 1
 180.243164062 245.556640625 270.409179688 319.383789062 362 413 c 0
 368.771484375 419.255859375 378 420 385 425 c 0
 482.931640625 510.158203125 598.045898438 561.522460938 723.647460938 561.522460938 c 0
 914.84375 561.522460938 1068.29101562 430.892578125 1068.29101562 243.915039062 c 0
 1068.29101562 89.044921875 994.2421875 -36.9794921875 837 -39 c 0
 777.993164062 -39.7587890625 738 -15 738 -15 c 1
 736.233398438 1.33203125 753.057617188 30.666015625 767 41 c 1
 767 41 788.177734375 11.94140625 847.751953125 11.94140625 c 0
257.564453125 559.182617188 m 0
 333.166992188 559.182617188 381.336914062 505.442382812 381.336914062 449.491210938 c 0
 381.336914062 414.751953125 365.06640625 393.625 360 387 c 1
 325 377 l 1
 335.942382812 397.973632812 339.114257812 410.27734375 339.114257812 434.170898438 c 0
 339.114257812 476.407226562 304.12109375 501.565429688 258.819335938 501.565429688 c 0
 219.75390625 501.565429688 183.227539062 475.264648438 183.227539062 432.5625 c 1
 228 371 l 1
 214.529296875 347.90625 192.7265625 335.944335938 171.497070312 335.944335938 c 0
 124.647460938 335.944335938 104 368.904296875 104 415 c 0
 104 492.66015625 165.122070312 559.182617188 257.564453125 559.182617188 c 0
743 182 m 0
 743 47.2470703125 667.491210938 -36 570.61328125 -36 c 0
 481.076171875 -36 451.545898438 18.7080078125 433 59 c 1
 451 56 l 1
 433.737304688 14.81640625 389.954101562 -36 325 -36 c 0
 197.658203125 -36 206.21875 122.934570312 158.631835938 122.934570312 c 0
 154.454101562 122.934570312 149.645507812 121.387695312 144 118 c 1
 156 145 l 1
 164.268554688 149.134765625 173.1640625 152.0078125 180.706054688 152.0078125 c 0
 230.298828125 152.0078125 245.981445312 68 326 68 c 0
 375 68 424 102 425 197 c 1
 436.083984375 200.626953125 451.239257812 201.359375 460 198 c 1
 460.982421875 96.7763671875 518.9453125 65.978515625 575.896484375 65.978515625 c 0
 641.200195312 65.978515625 685 115.71875 685 194 c 0
 685 275.772460938 616.983398438 345.264648438 476.643554688 345.264648438 c 4
 417.265625 345.264648438 348.834960938 325.819335938 318 309 c 1
 344 350 l 1
 356.453125 353.83203125 432.1796875 391.012695312 508.823242188 391.012695312 c 0
 612.98828125 391.012695312 743 330.772460938 743 182 c 0
EndSplineSet
Fore
SplineSet
227.739257812 572.174804688 m 0
 330.472408926 572.174804688 382.513671875 512.534848714 382.513671875 447.08203125 c 0
 382.513671875 426.403275289 369.095537971 397.30913394 365 392 c 1
 311 362 l 1
 314.715093324 379.41282848 319.196590676 394.886610313 316.099609375 409.436523438 c 0
 308.612153694 444.613303364 287.200891069 477.184570312 256.499023438 477.184570312 c 0
 214.574223551 477.184570312 188.980532681 449.90292004 183 429 c 1
 223 364 l 1
 204.802306985 334.417167043 175.381334783 318.934570312 146.703125 318.934570312 c 0
 85.2266275465 318.934570312 50 358.421617281 50 414 c 0
 50 499.254754176 122.125263264 572.174804688 227.739257812 572.174804688 c 0
345 373 m 1025
809.751953125 37.94140625 m 0
 868.18529524 37.94140625 911.915039062 142.819335938 911.915039062 221.872070312 c 0
 911.915039062 389.059570312 779.216796875 453.349609375 665.630859375 457.244140625 c 4
 579.490954533 460.197627286 472.666743099 432.879656304 402 374 c 0
 384.345732645 366.687644334 392.601431056 369.495070702 372 355 c 0
 276.735749847 272.450364749 195.534179688 194.72265625 106 39 c 1
 106 39 57.3798828125 52.044921875 57 77 c 1
 153.633789062 253.763671875 271.274300516 321.498838525 352 443 c 0
 357.888247283 451.862467448 350.232421875 422.455078125 357 430 c 0
 444.283203125 527.310546875 575.350585938 579.522460938 674.647460938 579.522460938 c 4
 866.3984375 579.522460938 1029.29101562 476.8359375 1029.29101562 286.915039062 c 0
 1029.29101562 124.928710938 961.722420243 -37.0582966119 797 -39 c 0
 737.993164062 -39.6955566406 698 -17 698 -17 c 1
 696.172481143 7.20640345982 713.576845367 50.6835588728 728 66 c 1
 728 66 749.439990996 37.94140625 809.751953125 37.94140625 c 0
723 182 m 0
 723 47.2470703125 643.111013345 -36 540.61328125 -36 c 0
 451.076171875 -36 421.545898438 18.7080078125 403 59 c 1
 421 56 l 1
 403.737304688 14.81640625 359.954101562 -36 295 -36 c 0
 174.168789468 -36 180.498046875 102.934570312 138.631835938 102.934570312 c 0
 134.454101562 102.934570312 129.645507812 101.387695312 124 98 c 1
 166 155 l 1
 174.268554688 159.134765625 183.1640625 162.0078125 190.706054688 162.0078125 c 0
 223.232421875 162.0078125 243.518227562 108 296 108 c 0
 340.545454545 108 385.090909091 143.844961241 386 244 c 1
 397.519855764 245.739627941 424.406170016 249.685289742 440 248 c 1
 440.812887505 139.109158074 488.773250281 105.978515625 535.896484375 105.978515625 c 0
 577.258268028 105.978515625 605 144.177535299 605 194 c 0
 605 270.366540798 546.776702618 335.264648438 426.643554688 335.264648438 c 0
 363.522773309 335.264648438 290.77862395 305.095221222 258 279 c 1
 334 358 l 1
 343.43094807 361.83203125 400.779868802 399.012695312 458.823242188 399.012695312 c 0
 587.151772175 399.012695312 723 336.466754703 723 182 c 0
EndSplineSet
Layer: 2
SplineSet
898.915039062 238.872070312 m 1
 890.880816818 398.638521797 734.417290088 460.294714901 615.630859375 449.244140625 c 0
 373.992884767 428.447803616 210.653354289 247.603879095 96 29 c 5
 98.7810256275 42.1115766658 82.1168108914 52.684782692 88 65 c 4
 200.4275168 338.843100169 488.073121582 578.834048338 703.647460938 571.522460938 c 0
 925.815083124 565.594726562 1067.15934305 442.497107019 1058.29101562 243.915039062 c 0
 1052.69545176 62.9268400517 950.009927882 -52.2053792901 748 -35 c 1
 859.255832291 16.8948576081 900.445521181 120.153666526 898.915039062 238.872070312 c 1
242.564453125 578.182617188 m 0
 355.237304688 578.182617188 389.83203125 468.526367188 352 437 c 1
 337.452148438 464.119140625 315.305397235 497.96403713 251.819335938 500.565429688 c 0
 222.241085443 501.777422354 173.227539062 476.264648438 173.227539062 433.5625 c 1
 208 356 l 1
 189.760742188 332.90625 180.241210938 330.944335938 151.497070312 330.944335938 c 0
 95.2119140625 330.944335938 63 363.2421875 63 421 c 0
 63 509.432617188 140.256835938 578.182617188 242.564453125 578.182617188 c 0
773 212 m 0
 773 58.7027480811 684.35025312 -36 570.61328125 -36 c 0
 481.076171875 -36 451.545898438 18.7080078125 433 59 c 1
 451 56 l 1
 435.244140625 16.1591796875 395.283203125 -33 336 -33 c 0
 177.552734375 -33 262.009765625 102.934570312 188.631835938 142.934570312 c 0
 182.456557668 146.300856767 173.50390625 138.252929688 164 128 c 1
 209.311294367 173.373535156 257.284862777 118 346 118 c 0
 413.777157383 118 439.18955749 165.047933626 457 227 c 1
 472.115234375 164.244552778 512.376953125 115.978515625 565.896484375 115.978515625 c 0
 603.084855701 115.978515625 635 150.177734375 635 204 c 0
 635 279.652063854 573.805725304 335.264648438 456.643554688 335.264648438 c 0
 397.301757812 335.264648438 340.568359375 306.84375 314 300 c 1
 327.963867188 305.327148438 422.87890625 397.012695312 528.823242188 397.012695312 c 0
 637.436418633 397.012695312 773 350.113753298 773 212 c 0
EndSplineSet
EndChar

StartChar: si_Ta
Encoding: 40 3501 8
GlifName: si_T_a
Width: 1073
VWidth: -24
Flags: HMW
AnchorPoint: "si_hal" 803 516 basechar 0
LayerCount: 3
Back
SplineSet
211.738963395 558.17474967 m 4
 284.700138257 558.17474967 333.513355325 508.070220636 333.513355325 453.082209001 c 4
 333.513355325 428.649211764 317.797008089 394.273010578 313 388 c 5
 278 378 l 5
 289.000080717 399.08348804 293.099516984 418.477542788 293.099516984 435.436238788 c 4
 293.099516984 479.665506312 257.412768846 503.18416106 219.499329021 503.18416106 c 4
 174.15187671 503.18416106 144.217320145 475.142999345 140 425 c 5
 180 370 l 5
 166.572459681 346.981359453 144.863593061 334.934226259 123.702788897 334.934226259 c 4
 80.6625011172 334.934226259 56 367.775543355 56 414 c 4
 56 491.708854238 119.197708112 558.17474967 211.738963395 558.17474967 c 4
786.15625 6.958984375 m 4
 903.116210938 6.958984375 963.46484375 125.241210938 956.396484375 245.428710938 c 4
 946.92674122 406.448361333 812.990234375 479.298828125 644.684570312 479.298828125 c 4
 549.213867188 479.298828125 438.064437519 439.692544131 345 374 c 4
 328 362 339.259108476 366.689899742 325 355 c 4
 232.144284842 275.689899742 175.984375 205 80 73 c 5
 80 73 50.83203125 80.1142578125 51 102 c 5
 147.124023438 246 210.579053262 322.25581362 305 413 c 4
 311.771757017 419.255813626 321.394653095 419.491760642 328 425 c 4
 428.447726849 508.763976429 545.623046875 566.521484375 679.826171875 566.521484375 c 4
 890.361328125 566.521484375 1036.23242188 433.578125 1036.23242188 255.580078125 c 4
 1036.23242188 82.71875 938.557617188 -46 780 -46 c 4
 702.244140625 -46 681 -24 681 -24 c 5
 678.689453125 -8.111328125 689.52734375 18.0341796875 708 30 c 5
 708 30 738.59375 6.958984375 786.15625 6.958984375 c 4
439.533203125 391.038085938 m 4
 542.331054688 391.038085938 677 345.958984375 677 195 c 4
 677 89.8291015625 615.709960938 -41.0732421875 423 -40 c 4
 332.734375 -39.4970703125 236.83203125 11.5498046875 210 89.9970703125 c 4
 197.905273438 125.356445312 168.546875 127.073242188 151.66015625 127.073242188 c 4
 136.749023438 127.073242188 120.122070312 124.842773438 103 116 c 5
 105 147 l 5
 115.022460938 154.745117188 138.284179688 171.665039062 175.473632812 171.665039062 c 4
 251.345703125 171.665039062 267.748046875 53.951171875 422.198242188 53.951171875 c 4
 545.564453125 53.951171875 619.018554688 119.684570312 619.018554688 202.861328125 c 4
 619.018554688 318.690429688 494.867586792 349.000976562 433.783203125 349.000976562 c 4
 351.092129325 349.000976562 289.41015625 325.403320312 256 306 c 5
 286 341 l 5
 298.73046875 346.139648438 359.412109375 391.038085938 439.533203125 391.038085938 c 4
EndSplineSet
Fore
SplineSet
224.739257812 572.174804688 m 0
 307.286852234 572.174804688 362.513671875 512.534848714 362.513671875 447.08203125 c 0
 362.513671875 426.403275289 349.095537971 397.30913394 345 392 c 5
 291 362 l 5
 302.000148024 383.083592528 306.099609375 402.477743392 306.099609375 419.436523438 c 4
 306.099609375 470.194377692 270.41266827 497.184570312 232.499023438 497.184570312 c 0
 198.560005824 497.184570312 176.156333937 472.729814558 173 429 c 1
 213 364 l 1
 194.802306985 334.417167043 165.381334783 318.934570312 136.703125 318.934570312 c 0
 80.9481435482 318.934570312 49 355.929414988 49 408 c 0
 49 496.488698584 120.313678202 572.174804688 224.739257812 572.174804688 c 0
777.15625 14.958984375 m 0
 891.416093716 14.958984375 931.715556618 124.389976448 916.396484375 235.428710938 c 0
 898.205789468 367.282109758 791.392642949 449.298828125 644.684570312 449.298828125 c 0
 558.770986164 449.298828125 467.13028716 426.966649446 375 374 c 4
 351.40026699 360.432270821 362.256964939 368.822414803 339 349 c 4
 255.998360736 257.31527417 205.798278061 175.595744681 120 23 c 1
 120 23 60.6582704742 32.5674501616 61 62 c 1
 157.124023438 224.520900322 220.46754057 310.557461904 315 413 c 4
 321.771757017 419.255813626 331.667197045 419.180471214 338 425 c 4
 435.592688342 514.682793406 549.437519354 576.521484375 679.826171875 576.521484375 c 0
 896.268496031 576.521484375 1046.23242188 439.302613386 1046.23242188 255.580078125 c 0
 1046.23242188 82.71875 944.745655998 -46 780 -46 c 0
 702.244140625 -46 681 -24 681 -24 c 1
 679.459635417 -5.75745081019 686.684895833 24.2614655671 699 38 c 1
 699 38 729.59375 14.958984375 777.15625 14.958984375 c 0
459.533203125 381.038085938 m 0
 549.344247322 384.038085937 667 335.958984375 667 185 c 0
 667 84.3044589428 608.123899882 -40.8415659699 423 -40 c 0
 317.911164906 -39.6518213961 248.195955682 -3.62234497132 220 49.9970703125 c 0
 206.49334838 85.3564453115 189.20506047 87.0732421875 176.66015625 87.0732421875 c 0
 160.523286904 87.0732421875 141.616267041 82.8141994896 124 56 c 1
 115 107 l 1
 126.444618494 117.885236759 153.007106315 141.665039062 195.473632812 141.665039062 c 0
 259.049575659 141.665039062 275.824247786 106.951171875 432.198242188 106.951171875 c 0
 491.627482579 106.951171875 549.018554688 145.606468396 549.018554688 202.861328125 c 0
 549.018554688 301.67421099 466.99733263 319.000976562 413.783203125 319.000976562 c 4
 340.394296188 319.000976562 285.651628373 305.403320312 256 286 c 1
 315 353 l 5
 326.984218321 355.879924399 384.155541915 379.466815231 459.533203125 381.038085938 c 0
EndSplineSet
EndChar

StartChar: si_Na
Encoding: 44 3505 9
GlifName: si_N_a
Width: 1051
VWidth: -24
Flags: HMW
AnchorPoint: "si_hal" 782 502 basechar 0
LayerCount: 3
Back
SplineSet
256.046875 557.208007812 m 0
 328.749023438 557.208007812 377.932617188 504.991210938 377.932617188 447.366210938 c 0
 377.932617188 434.515625 375.395507812 421.525390625 370 409 c 0
 356.759765625 377.221679688 358.920898438 380.565429688 323 370 c 1
 334.041992188 391.165039062 337.08984375 410.625 337.08984375 427.631835938 c 0
 337.08984375 472.862304688 305.258789062 499.474609375 259.663085938 499.474609375 c 0
 221.247070312 499.474609375 180.227539062 472.674804688 180.227539062 430.5625 c 1
 225 369 l 1
 211.529296875 345.907226562 189.727539062 333.944335938 168.498046875 333.944335938 c 0
 121.647460938 333.944335938 101 366.903320312 101 413 c 0
 101 490.514648438 163.8984375 557.208007812 256.046875 557.208007812 c 0
751.59765625 -2.0673828125 m 4
 869.9375 -2.0673828125 931.004882812 117.193359375 931.004882812 227.26953125 c 0
 931.004882812 372.034179688 809.458984375 464.146484375 649.123046875 464.146484375 c 0
 549.690429688 464.146484375 471.706054688 440.256835938 362 329 c 1
 349 329 l 1
 287.0703125 233.625 221.188476562 122.756835938 143.70703125 122.756835938 c 0
 127.008789062 122.756835938 109.795898438 126.858398438 92 136 c 1
 92 192 l 1
 105.190429688 176.40625 118.774414062 169.645507812 134.333007812 169.645507812 c 0
 194.178710938 169.645507812 267.805664062 292.837890625 333 384 c 0
 341.571289062 394.346679688 343 383 355 391 c 1
 448.7890625 498.123046875 558.565429688 561 679 561 c 0
 852.860351562 561 1004.03515625 444.884765625 1004.03515625 246.28515625 c 0
 1004.03515625 90.357421875 915.12890625 -51 742 -51 c 0
 682.92578125 -51 635 -27.25 635 -25 c 1
 627.974609375 -12.6162109375 641 24 653 32 c 1
 665.5546875 22.6357421875 697.5 -2.0673828125 751.59765625 -2.0673828125 c 4
586 207 m 0
 586 269.006835938 530.9765625 323.471679688 431.235351562 323.471679688 c 0
 371.1875 323.471679688 320.662109375 302.854492188 282 278 c 1
 312 310 l 1
 325 314 377 363 459 363 c 0
 559 363 648 308.276367188 648 196 c 0
 648 91 576 -49 346 -49 c 0
 169.595703125 -49 48.0068359375 64.37109375 50 204 c 1
 64.9716796875 208.721679688 86.7958984375 205.384765625 95 203 c 1
 91.9794921875 75.28125 252.352539062 49.9091796875 356.77734375 49.9091796875 c 0
 465.829101562 49.9091796875 586 107.375 586 207 c 0
EndSplineSet
Fore
SplineSet
247.739257812 572.174804688 m 0
 343.834803368 572.174804688 392.513671875 512.534848714 392.513671875 447.08203125 c 0
 392.513671875 426.403275289 379.095537971 397.30913394 375 392 c 1
 311 352 l 1
 322.000148024 373.083592528 326.099609375 392.477743392 326.099609375 409.436523438 c 0
 326.099609375 453.665872309 297.200891069 477.184570312 266.499023438 477.184570312 c 0
 230.278353746 477.184570312 208.166843954 449.90292004 203 429 c 1
 243 364 l 1
 224.802306985 334.417167043 195.381334783 318.934570312 166.703125 318.934570312 c 0
 105.226627547 318.934570312 70 358.421617281 70 414 c 0
 70 499.254754176 142.125263264 572.174804688 247.739257812 572.174804688 c 0
761.59765625 37.9326171875 m 0
 856.95670931 37.9326171875 891.004882812 134.832319352 891.004882812 224.26953125 c 0
 891.004882812 356.811407778 785.267924204 434.446629427 646.123046875 441.146484375 c 0
 551.192415988 445.538078861 457.871675541 413.37908322 372 329 c 1
 369 319 l 1
 307.0703125 224.549879139 231.188476562 104.756835938 163.70703125 114.756835938 c 0
 143.994660088 117.6779902 123.237577066 118.858398438 102 128 c 1
 102 192 l 1
 115.190429688 176.40625 128.774414062 169.645507812 144.333007812 169.645507812 c 0
 201.166348267 169.645507812 262.944681358 299.433963644 333 384 c 0
 341.571289062 394.346679688 343 383 355 391 c 1
 424.7890625 505.336199657 558.565429688 574 679 574 c 0
 878.907263555 574 1034.03515625 453.088366355 1034.03515625 246.28515625 c 0
 1034.03515625 90.357421875 934.950167114 -51 742 -51 c 0
 682.92578125 -51 635 -27.25 635 -25 c 1
 624.071614583 -3.92583264803 644.333333333 58.3859649123 663 72 c 1
 675.5546875 62.6357421875 707.5 37.9326171875 761.59765625 37.9326171875 c 0
524 207 m 0
 524 254.632658672 491.019407293 296.471679688 431.235351562 296.471679688 c 0
 371.1875 296.471679688 320.662109375 265.426126318 282 228 c 1
 312 290 l 1
 325 295.509433962 377 363 459 363 c 0
 564.291005291 363 658 308.276367188 658 196 c 0
 658 91 583.61589404 -49 346 -49 c 0
 164.232058963 -49 38.9462329761 68.4040575593 41 213 c 5
 61.2949435764 217.721679688 90.8788845486 214.384765625 102 212 c 5
 99.1987229567 110.143553448 247.930110717 87.8364235878 344.77734375 89.9091796875 c 0
 448.963859644 92.0004821693 524 132.742491188 524 207 c 0
EndSplineSet
EndChar

StartChar: anusvara
Encoding: 1 3458 10
GlifName: anusvara
Width: 588
VWidth: 0
Flags: HMW
LayerCount: 3
Back
SplineSet
276.804849177 387.362834515 m 0
 197.40242493 387.362834515 120 322.895278909 120 225 c 0
 120 134.970185429 165.539771338 66.9944493907 284.31159427 66.9944493907 c 0
 374.433779927 66.9944493907 439.013528677 145.133316226 439.013528677 226.400414439 c 0
 439.013528677 321.068276513 375.647539695 387.362834515 276.804849177 387.362834515 c 0
55 194 m 0
 55 345 173 443 294 443 c 0
 445 443 523 335 523 214 c 0
 523 93 436 -25 285 -25 c 0
 134 -25 55 73 55 194 c 0
EndSplineSet
Fore
SplineSet
276.804849177 387.362834515 m 0
 197.40242493 387.362834515 120 322.895278909 120 225 c 0
 120 134.970185429 165.539771338 66.9944493907 284.31159427 66.9944493907 c 0
 374.433779927 66.9944493907 439.013528677 145.133316226 439.013528677 226.400414439 c 0
 439.013528677 321.068276513 375.647539695 387.362834515 276.804849177 387.362834515 c 0
55 194 m 0
 55 345 173 443 294 443 c 0
 445 443 523 335 523 214 c 0
 523 93 436 -25 285 -25 c 0
 134 -25 55 73 55 194 c 0
EndSplineSet
EndChar

StartChar: si_A
Encoding: 3 3461 12
GlifName: si_A_
Width: 758
VWidth: -17
Flags: HMW
AnchorPoint: "si_hal" 412 492 basechar 0
LayerCount: 3
Back
SplineSet
373.143554688 -79.5390625 m 0
 161.489257812 -79.5390625 49.982421875 30.4658203125 49.982421875 144.259765625 c 0
 49.982421875 311.889648438 197.977459536 383.0859375 339.553710938 383.0859375 c 0
 368.775390625 383.0859375 393.067382812 381.09765625 408.384765625 378.52734375 c 1
 409.427734375 461.930664062 350.018155033 507.77575901 286.444162578 507.77575901 c 0
 281.680304618 507.77575901 276.859372162 507.518334846 272 507 c 1
 216 418 l 1
 175.781142969 420.622968937 149.322218025 449.236920704 149.322218025 480.448973724 c 0
 149.322218025 484.93545977 149.86890681 489.475627242 151 494 c 0
 167 556 226 577 289 577 c 0
 371.74637516 577 448.785001471 513.447203543 448.785001471 407.533639407 c 0
 448.785001471 367.087458255 439 334 439 334 c 1
 422.345828067 336.879956237 404.9465491 338.380259887 387.368571723 338.380259887 c 0
 275.899784359 338.380259887 149.047851562 294.682617188 149.047851562 161.479492188 c 0
 149.047851562 52.5537109375 233.619140625 -20.185546875 409.118164062 -20.185546875 c 0
 548.9140625 -20.185546875 626.356445312 25.6611328125 680 74.599609375 c 1
 695.521484375 69.1767578125 716.018554688 42.4033203125 716 25 c 1
 654.640625 -22.203125 550.366210938 -79.5390625 373.143554688 -79.5390625 c 0
506 434.910299435 m 2
 506 483.814733106 507.881801594 535.181015404 565 568 c 1
 594 546.889648438 l 1
 593.51171875 491.823242188 726 455.326171875 726 386 c 0
 726 313.143554688 634 241.561523438 545 234 c 1
 545 278 l 1
 612 288 652 321.561523438 652 378 c 0
 652 446 580.6328125 427.856445312 558.6328125 497.856445312 c 9
 558.6328125 -378 l 1
 506 -378 l 1
 506 434.910299435 l 2
438.465820312 371.448242188 m 1
 439.303710938 371.296875 440.147460938 371.146484375 441 371 c 1
 441 371.776367188 440.05859375 371.853515625 438.465820312 371.448242188 c 1
EndSplineSet
Fore
SplineSet
373.143554688 -79.5390625 m 0
 161.489257812 -79.5390625 49.982421875 30.4658203125 49.982421875 144.259765625 c 0
 49.982421875 311.889648438 197.977459536 383.0859375 339.553710938 383.0859375 c 0
 368.775390625 383.0859375 393.067382812 381.09765625 408.384765625 378.52734375 c 1
 409.427734375 461.930664062 350.018155033 507.77575901 286.444162578 507.77575901 c 0
 281.680304618 507.77575901 276.859372162 507.518334846 272 507 c 1
 216 418 l 1
 175.781142969 420.622968937 149.322218025 449.236920704 149.322218025 480.448973724 c 0
 149.322218025 484.93545977 149.86890681 489.475627242 151 494 c 0
 167 556 226 577 289 577 c 0
 371.74637516 577 448.785001471 513.447203543 448.785001471 407.533639407 c 0
 448.785001471 367.087458255 439 334 439 334 c 1
 422.345828067 336.879956237 404.9465491 338.380259887 387.368571723 338.380259887 c 0
 275.899784359 338.380259887 149.047851562 294.682617188 149.047851562 161.479492188 c 0
 149.047851562 52.5537109375 233.619140625 -20.185546875 409.118164062 -20.185546875 c 0
 548.9140625 -20.185546875 626.356445312 25.6611328125 680 74.599609375 c 1
 695.521484375 69.1767578125 716.018554688 42.4033203125 716 25 c 1
 654.640625 -22.203125 550.366210938 -79.5390625 373.143554688 -79.5390625 c 0
506 434.910299435 m 2
 506 483.814733106 507.881801594 535.181015404 565 568 c 1
 594 546.889648438 l 1
 593.51171875 491.823242188 726 455.326171875 726 386 c 0
 726 313.143554688 634 241.561523438 545 234 c 1
 545 278 l 1
 612 288 652 321.561523438 652 378 c 0
 652 446 580.6328125 427.856445312 558.6328125 497.856445312 c 9
 558.6328125 -378 l 1
 506 -378 l 1
 506 434.910299435 l 2
438.465820312 371.448242188 m 1
 439.303710938 371.296875 440.147460938 371.146484375 441 371 c 1
 441 371.776367188 440.05859375 371.853515625 438.465820312 371.448242188 c 1
EndSplineSet
EndChar

StartChar: si_I
Encoding: 7 3465 16
GlifName: si_I_
Width: 857
VWidth: -14
Flags: HMW
LayerCount: 3
Back
SplineSet
372 -79 m 25
 420 -107 l 17
 507.953125 -97.1103515625 550.8515625 -145.977539062 552 -197 c 4
 553.572756699 -266.87399598 483.82421875 -300.0390625 400 -296.16796875 c 0
 296.26171875 -291.376953125 265 -245 265 -245 c 1
 244.741210938 -252.1953125 234.137695312 -271.7890625 235 -286 c 1
 235 -286 284.810546875 -348.875976562 412 -352.227539062 c 0
 561.825195312 -356.17578125 637.879882812 -280.344726562 637 -199 c 0
 635.77734375 -85.935546875 463 -68 463 -68 c 29
 372 -79 l 25
327 7.958984375 m 0
 488.19921875 7.263671875 560.587890625 104.525390625 563.787109375 185.13671875 c 0
 567.87890625 288.235351562 491.5859375 352.711914062 400.75390625 353.724609375 c 0
 319.87890625 354.625976562 268.684570312 312.276367188 269.181640625 244.071289062 c 0
 269.590820312 187.927734375 315.766601562 157.18359375 362.04296875 156.622070312 c 0
 417.87890625 155.944335938 460.663085938 187.661132812 463.295898438 244.763671875 c 0
 465.47265625 291.982421875 447.086914062 313.3359375 393.614257812 337.315429688 c 1
 391.9765625 325.795898438 l 1
 429.3671875 304.857421875 427.073242188 277.603515625 421.756835938 252.411132812 c 0
 416.126953125 225.734375 388.799804688 207.0703125 365.169921875 207.946289062 c 0
 343.48046875 208.75 322.166015625 222.791992188 322.3203125 255.8671875 c 0
 322.530273438 301.006835938 369.668945312 330.760742188 407.927734375 315.22265625 c 0
 475.159179688 287.91796875 519.431640625 263.30078125 512.993164062 186.864257812 c 0
 507.99609375 127.541992188 451.633789062 71.509765625 338 70.9814453125 c 0
 214.189453125 70.40625 113.99609375 139.9921875 113.99609375 259.010742188 c 0
 113.99609375 406.533203125 259.825195312 489.028320312 407.971679688 489.028320312 c 0
 587.291992188 489.028320312 709.483398438 372.490234375 711 222 c 0
 713.436523438 -23.587890625 506.467773438 -77.0703125 320 -65 c 1
 309.650390625 -88.2861328125 317.310546875 -103.297851562 330 -116 c 1
 591.01171875 -136.120117188 782 6.6904296875 782 237 c 0
 782 456.323242188 623.922851562 582.578125 427.182617188 582.578125 c 0
 233.877929688 582.578125 54.841796875 455.2265625 54.841796875 259.87890625 c 0
 54.841796875 75.3095703125 202.976404973 8.49394451057 327 7.958984375 c 0
EndSplineSet
Fore
SplineSet
372 -79 m 25
 420 -107 l 17
 507.953125 -97.1103515625 550.8515625 -145.977539062 552 -197 c 4
 553.572756699 -266.87399598 483.82421875 -300.0390625 400 -296.16796875 c 0
 296.26171875 -291.376953125 265 -245 265 -245 c 1
 244.741210938 -252.1953125 234.137695312 -271.7890625 235 -286 c 1
 235 -286 284.810546875 -348.875976562 412 -352.227539062 c 0
 561.825195312 -356.17578125 637.879882812 -280.344726562 637 -199 c 0
 635.77734375 -85.935546875 463 -68 463 -68 c 29
 372 -79 l 25
327 7.958984375 m 0
 488.19921875 7.263671875 560.587890625 104.525390625 563.787109375 185.13671875 c 0
 567.87890625 288.235351562 491.5859375 352.711914062 400.75390625 353.724609375 c 0
 319.87890625 354.625976562 268.684570312 312.276367188 269.181640625 244.071289062 c 0
 269.590820312 187.927734375 315.766601562 157.18359375 362.04296875 156.622070312 c 0
 417.87890625 155.944335938 460.663085938 187.661132812 463.295898438 244.763671875 c 0
 465.47265625 291.982421875 447.086914062 313.3359375 393.614257812 337.315429688 c 1
 391.9765625 325.795898438 l 1
 429.3671875 304.857421875 427.073242188 277.603515625 421.756835938 252.411132812 c 0
 416.126953125 225.734375 388.799804688 207.0703125 365.169921875 207.946289062 c 0
 343.48046875 208.75 322.166015625 222.791992188 322.3203125 255.8671875 c 0
 322.530273438 301.006835938 369.668945312 330.760742188 407.927734375 315.22265625 c 0
 475.159179688 287.91796875 519.431640625 263.30078125 512.993164062 186.864257812 c 0
 507.99609375 127.541992188 451.633789062 71.509765625 338 70.9814453125 c 0
 214.189453125 70.40625 113.99609375 139.9921875 113.99609375 259.010742188 c 0
 113.99609375 406.533203125 259.825195312 489.028320312 407.971679688 489.028320312 c 0
 587.291992188 489.028320312 709.483398438 372.490234375 711 222 c 0
 713.436523438 -23.587890625 506.467773438 -77.0703125 320 -65 c 1
 309.650390625 -88.2861328125 317.310546875 -103.297851562 330 -116 c 1
 591.01171875 -136.120117188 782 6.6904296875 782 237 c 0
 782 456.323242188 623.922851562 582.578125 427.182617188 582.578125 c 0
 233.877929688 582.578125 54.841796875 455.2265625 54.841796875 259.87890625 c 0
 54.841796875 75.3095703125 202.976404973 8.49394451057 327 7.958984375 c 0
EndSplineSet
EndChar

StartChar: si_Ii
Encoding: 8 3466 17
GlifName: si_I_i
Width: 729
VWidth: -5
Flags: HMW
LayerCount: 3
Back
SplineSet
567 611 m 4
 567 642 592 667 623 667 c 4
 654 667 679 642 679 611 c 4
 679 580 654 555 623 555 c 4
 592 555 567 580 567 611 c 4
225 701 m 4
 225 733 251 759 283 759 c 4
 315 759 341 733 341 701 c 4
 341 669 315 643 283 643 c 4
 251 643 225 669 225 701 c 4
EndSplineSet
Refer: 4 3515 N 1 0 0 1 0 0 2
Fore
SplineSet
567 611 m 4
 567 642 592 667 623 667 c 4
 654 667 679 642 679 611 c 4
 679 580 654 555 623 555 c 4
 592 555 567 580 567 611 c 4
225 701 m 4
 225 733 251 759 283 759 c 4
 315 759 341 733 341 701 c 4
 341 669 315 643 283 643 c 4
 251 643 225 669 225 701 c 4
EndSplineSet
Refer: 4 3515 N 1 0 0 1 0 0 2
EndChar

StartChar: si_U
Encoding: 9 3467 18
GlifName: si_U_
Width: 726
VWidth: -17
Flags: HMW
LayerCount: 3
Back
SplineSet
147.6796875 50.0458984375 m 0
 147.6796875 -115.368164062 258.983398438 -240.8203125 436.21875 -240.8203125 c 0
 562.009765625 -240.8203125 652.995117188 -187.651367188 701 -144 c 1
 718.437692349 -148.753305681 735.622435795 -173.683402672 735 -193 c 1
 706.22265625 -220.866210938 598.908203125 -296.444335938 437 -301.19140625 c 0
 143.122070312 -309.807617188 30.97265625 -133.884765625 30.97265625 15.0390625 c 0
 30.97265625 231.73046875 184.608398438 343.334960938 356 370.828125 c 0
 386.184570312 375.669921875 418.515625 377.599609375 450.393554688 377.599609375 c 0
 500.826171875 377.599609375 550.125976562 372.76953125 588 367 c 1
 588 372 572.833007812 348 572 353 c 1
 572.525390625 358.309570312 572.780273438 363.43359375 572.780273438 368.377929688 c 0
 572.780273438 458.353515625 488.390625 492.584960938 416.109375 492.584960938 c 0
 397.364257812 492.584960938 379.43359375 490.551757812 364 487 c 1
 308 408 l 1
 269.823242188 410.490234375 248.237304688 438.831054688 248.237304688 468.673828125 c 0
 248.237304688 474.7890625 249.143554688 480.967773438 251 487 c 0
 267 539 328 567 411 567 c 0
 501.286132812 567 591.034179688 508.793945312 605 425 c 0
 607.485351562 410.087890625 608.388671875 395.93359375 608.388671875 383.235351562 c 0
 608.388671875 349.46484375 602 326 602 326 c 1
 602 324 l 1
 568.096679688 327.201171875 537.833007812 328.799804688 509.639648438 328.799804688 c 0
 468.655273438 328.799804688 422.046875 325.421875 385 318.68359375 c 0
 224.732421875 289.53125 147.6796875 184.10546875 147.6796875 50.0458984375 c 0
EndSplineSet
Fore
SplineSet
147.6796875 50.0458984375 m 0
 147.6796875 -115.368164062 258.983398438 -240.8203125 436.21875 -240.8203125 c 0
 562.009765625 -240.8203125 652.995117188 -187.651367188 701 -144 c 1
 718.437692349 -148.753305681 735.622435795 -173.683402672 735 -193 c 1
 706.22265625 -220.866210938 598.908203125 -296.444335938 437 -301.19140625 c 0
 143.122070312 -309.807617188 30.97265625 -133.884765625 30.97265625 15.0390625 c 0
 30.97265625 231.73046875 184.608398438 343.334960938 356 370.828125 c 0
 386.184570312 375.669921875 418.515625 377.599609375 450.393554688 377.599609375 c 0
 500.826171875 377.599609375 550.125976562 372.76953125 588 367 c 1
 588 372 572.833007812 348 572 353 c 1
 572.525390625 358.309570312 572.780273438 363.43359375 572.780273438 368.377929688 c 0
 572.780273438 458.353515625 488.390625 492.584960938 416.109375 492.584960938 c 0
 397.364257812 492.584960938 379.43359375 490.551757812 364 487 c 1
 308 408 l 1
 269.823242188 410.490234375 248.237304688 438.831054688 248.237304688 468.673828125 c 0
 248.237304688 474.7890625 249.143554688 480.967773438 251 487 c 0
 267 539 328 567 411 567 c 0
 501.286132812 567 591.034179688 508.793945312 605 425 c 0
 607.485351562 410.087890625 608.388671875 395.93359375 608.388671875 383.235351562 c 0
 608.388671875 349.46484375 602 326 602 326 c 1
 602 324 l 1
 568.096679688 327.201171875 537.833007812 328.799804688 509.639648438 328.799804688 c 0
 468.655273438 328.799804688 422.046875 325.421875 385 318.68359375 c 0
 224.732421875 289.53125 147.6796875 184.10546875 147.6796875 50.0458984375 c 0
EndSplineSet
EndChar

StartChar: si_E
Encoding: 15 3473 22
GlifName: si_E_
Width: 862
VWidth: -14
Flags: HMW
LayerCount: 3
Back
SplineSet
22 374 m 1
 405 374 l 1
 407 331 l 1
 121 331 l 1
 26 316 l 1
 19 336.248046875 17 359.344726562 22 374 c 1
EndSplineSet
Refer: 48 3509 N 1 0 0 1 87 0 2
Fore
SplineSet
22 374 m 1
 405 374 l 1
 407 331 l 1
 121 331 l 1
 26 316 l 1
 19 336.248046875 17 359.344726562 22 374 c 1
EndSplineSet
Refer: 48 3509 N 1 0 0 1 87 0 2
EndChar

StartChar: si_Os
Encoding: 18 3476 25
GlifName: si_O_s
Width: 834
VWidth: -24
Flags: HMW
LayerCount: 3
Back
SplineSet
181.138671875 442.47265625 m 1
 201.517997064 442.050786569 216.237395429 421.568723369 217 373 c 0
 219.004298927 245.350305959 312.828125 205.986328125 397.486328125 205.986328125 c 0
 508.942382812 205.986328125 575.001953125 294.977763364 575.001953125 380.115234375 c 0
 575.001953125 456.70658352 522.804846502 524 427 524 c 0
 352.728519358 524 309.993164062 471.715820312 309.993164062 418.010742188 c 0
 309.993164062 357.248955748 356.929227248 331.997070312 399.306640625 331.997070312 c 0
 459.300421504 331.997070312 491.123046875 379.837890625 491.123046875 429.515625 c 0
 491.123046875 453.040280755 480.550383764 478.828923076 465 493.561523438 c 1
 439 494.561523438 l 1
 450.456054688 476.457229511 455.998046875 458.291413674 455.998046875 435.853515625 c 0
 455.998046875 408.53125 438.532817296 377.55859375 403.282226562 377.55859375 c 0
 369.217966138 377.55859375 356.991210938 403.942501537 356.991210938 422.051757812 c 0
 356.991210938 456.836135773 379.263077098 483.909599697 413.439453125 489.001953125 c 0
 489.015623489 500.262964823 538.531008925 446.978219221 537.05078125 378.48046875 c 0
 535.606496331 311.645974513 484.12109375 263.528320312 399.0703125 261.998046875 c 0
 338.705078125 260.94921875 256.407226562 275.493164062 254.819335938 404 c 0
 254.208984375 458.67578125 221 483 188.224609375 481.879882812 c 0
 77.7399392486 478.104007814 25.939453125 357.974609375 25.939453125 241.661132812 c 0
 25.939453125 140.786132812 52.0546875 -40 234 -40 c 0
 343.450195312 -40 389.682617188 31.8828125 406 111 c 0
 371 111 l 1
 376 21.1640625 435.0859375 -42 533 -42 c 0
 728.176757812 -42 779.049804688 181.506835938 779.049804688 318.88671875 c 0
 779.049804688 526.501227212 646.481445312 738.002929688 373.423828125 738.002929688 c 0
 224.430664062 738.002929688 142 672 142 672 c 1
 137.842773438 641.486328125 151.295898438 619.133789062 167 612 c 1
 170.243164062 612 241.55078125 680.028320312 383.43359375 680.028320312 c 0
 619.595703125 680.028320312 709.8828125 510.26953125 709.8828125 330.400390625 c 0
 709.8828125 221.034179688 671.155273438 53.9521484375 536.28125 53.9521484375 c 0
 476.586914062 53.9521484375 415.733398438 91.45703125 409 176 c 1
 397.3359375 179.5390625 381.69921875 176.36328125 372 172 c 1
 369.150390625 93.1796875 307.234375 56.783203125 242.8671875 56.783203125 c 0
 149.646484375 56.783203125 86.703125 122.932617188 86.703125 276.920898438 c 0
 86.703125 342.083007812 120.446004317 442.270337041 181.138671875 442.47265625 c 1
EndSplineSet
Fore
SplineSet
181.138671875 442.47265625 m 1
 201.517997064 442.050786569 216.237395429 421.568723369 217 373 c 0
 219.004298927 245.350305959 312.828125 205.986328125 397.486328125 205.986328125 c 0
 508.942382812 205.986328125 575.001953125 294.977763364 575.001953125 380.115234375 c 0
 575.001953125 456.70658352 522.804846502 524 427 524 c 0
 352.728519358 524 309.993164062 471.715820312 309.993164062 418.010742188 c 0
 309.993164062 357.248955748 356.929227248 331.997070312 399.306640625 331.997070312 c 0
 459.300421504 331.997070312 491.123046875 379.837890625 491.123046875 429.515625 c 0
 491.123046875 453.040280755 480.550383764 478.828923076 465 493.561523438 c 1
 439 494.561523438 l 1
 450.456054688 476.457229511 455.998046875 458.291413674 455.998046875 435.853515625 c 0
 455.998046875 408.53125 438.532817296 377.55859375 403.282226562 377.55859375 c 0
 369.217966138 377.55859375 356.991210938 403.942501537 356.991210938 422.051757812 c 0
 356.991210938 456.836135773 379.263077098 483.909599697 413.439453125 489.001953125 c 0
 489.015623489 500.262964823 538.531008925 446.978219221 537.05078125 378.48046875 c 0
 535.606496331 311.645974513 484.12109375 263.528320312 399.0703125 261.998046875 c 0
 338.705078125 260.94921875 256.407226562 275.493164062 254.819335938 404 c 0
 254.208984375 458.67578125 221 483 188.224609375 481.879882812 c 0
 77.7399392486 478.104007814 25.939453125 357.974609375 25.939453125 241.661132812 c 0
 25.939453125 140.786132812 52.0546875 -40 234 -40 c 0
 343.450195312 -40 389.682617188 31.8828125 406 111 c 0
 371 111 l 1
 376 21.1640625 435.0859375 -42 533 -42 c 0
 728.176757812 -42 779.049804688 181.506835938 779.049804688 318.88671875 c 0
 779.049804688 526.501227212 646.481445312 738.002929688 373.423828125 738.002929688 c 0
 224.430664062 738.002929688 142 672 142 672 c 1
 137.842773438 641.486328125 151.295898438 619.133789062 167 612 c 1
 170.243164062 612 241.55078125 680.028320312 383.43359375 680.028320312 c 0
 619.595703125 680.028320312 709.8828125 510.26953125 709.8828125 330.400390625 c 0
 709.8828125 221.034179688 671.155273438 53.9521484375 536.28125 53.9521484375 c 0
 476.586914062 53.9521484375 415.733398438 91.45703125 409 176 c 1
 397.3359375 179.5390625 381.69921875 176.36328125 372 172 c 1
 369.150390625 93.1796875 307.234375 56.783203125 242.8671875 56.783203125 c 0
 149.646484375 56.783203125 86.703125 122.932617188 86.703125 276.920898438 c 0
 86.703125 342.083007812 120.446004317 442.270337041 181.138671875 442.47265625 c 1
EndSplineSet
EndChar

StartChar: si_Oo
Encoding: 19 3477 26
GlifName: si_O_o
Width: 834
VWidth: -14
Flags: HMW
LayerCount: 3
Back
SplineSet
301 550 m 1053
EndSplineSet
Refer: 25 3476 N 1 0 0 1 0 0 2
Fore
SplineSet
301 550 m 1053
EndSplineSet
Refer: 25 3476 N 1 0 0 1 0 0 2
EndChar

StartChar: si_Kha
Encoding: 22 3483 28
GlifName: si_K_ha
Width: 877
VWidth: -24
Flags: HMW
LayerCount: 3
Back
SplineSet
749.43359375 336.353515625 m 0
 749.43359375 539.126490675 644.92822877 671.095703125 395.279296875 671.095703125 c 0
 271.705788322 671.095703125 175.568791679 603 174 603 c 5
 159.364452456 610.882191359 142.905192379 636.331798692 146 660 c 5
 146 660 254.779684805 733.059570312 407.782226562 733.059570312 c 0
 622.947516851 733.059570312 822.630859375 586.017108398 822.630859375 332.138671875 c 0
 822.630859375 114.291657682 738.642895197 -54.8984375 572.459960938 -54.8984375 c 0
 502.900515902 -54.8984375 450.546456451 -33.2026369221 447 28 c 1
 485.404296875 3.6044921875 l 1
 473.602531392 -18.2237119679 464.434253454 -34.0080821595 430 -91.9130859375 c 1
 389.888671875 -71 l 1
 428.796904007 -11.0189784176 486.890033588 86.4777615137 481.032226562 178.049804688 c 0
 474.748046875 276.287109375 382.245117188 329.544921875 307.25390625 329.544921875 c 0
 204.419921875 329.544921875 114.188426452 262.353356026 114.188426452 129.487772851 c 0
 114.188426452 46.1939293237 150.720429627 -8.29996482784 223.156450723 -8.29996482784 c 0
 264.450240012 -8.29996482784 283.410676113 25.0716101117 283.410676113 52.2395919339 c 0
 283.410676113 85.2871093689 263.3278797 110.944387788 231.645347396 110.944387788 c 0
 206.208828671 110.944387788 182.908099119 91.3329854617 182.908099119 54.2901043244 c 0
 182.908099119 26.8554342915 199.269719187 -6.75007071989 241.888671875 -12.09375 c 1
 241.888671875 -23.3828125 l 1
 173.338103735 -21.2866882992 140.354969036 15.9624058636 140.354969036 56.8915928886 c 0
 140.354969036 114.103920526 180.590897669 169.707495946 246.030764778 169.707495946 c 0
 302.182274151 169.707495946 345.776368325 127.157170152 345.776368325 61.1018357432 c 0
 345.776368325 9.07230137733 306.615454565 -58.7974827796 225.735726507 -58.7974827796 c 0
 106.116836192 -58.7974827796 61.5204093666 58.3383752433 61.5204093666 151.438548147 c 0
 61.5204093666 326.481537799 178.671644692 422.469784526 320.525390625 424.913085938 c 0
 404.267578125 426.35546875 542.91796875 370.383789062 542.91796875 194.314453125 c 0
 542.91796875 113.931640625 513.920168399 68.4514024232 492.997070312 30 c 1
 502.197265625 102 l 1
 515.550710041 69.4665979833 525.800725937 50.37890625 585.459960938 50.37890625 c 0
 686.296173319 50.37890625 749.43359375 174.69745707 749.43359375 336.353515625 c 0
EndSplineSet
Fore
SplineSet
749.43359375 336.353515625 m 0
 749.43359375 539.126490675 644.92822877 671.095703125 395.279296875 671.095703125 c 0
 271.705788322 671.095703125 175.568791679 603 174 603 c 5
 159.364452456 610.882191359 142.905192379 636.331798692 146 660 c 5
 146 660 254.779684805 733.059570312 407.782226562 733.059570312 c 0
 622.947516851 733.059570312 822.630859375 586.017108398 822.630859375 332.138671875 c 0
 822.630859375 114.291657682 738.642895197 -54.8984375 572.459960938 -54.8984375 c 0
 502.900515902 -54.8984375 450.546456451 -33.2026369221 447 28 c 1
 485.404296875 3.6044921875 l 1
 473.602531392 -18.2237119679 464.434253454 -34.0080821595 430 -91.9130859375 c 1
 389.888671875 -71 l 1
 428.796904007 -11.0189784176 486.890033588 86.4777615137 481.032226562 178.049804688 c 0
 474.748046875 276.287109375 382.245117188 329.544921875 307.25390625 329.544921875 c 0
 204.419921875 329.544921875 114.188426452 262.353356026 114.188426452 129.487772851 c 0
 114.188426452 46.1939293237 150.720429627 -8.29996482784 223.156450723 -8.29996482784 c 0
 264.450240012 -8.29996482784 283.410676113 25.0716101117 283.410676113 52.2395919339 c 0
 283.410676113 85.2871093689 263.3278797 110.944387788 231.645347396 110.944387788 c 0
 206.208828671 110.944387788 182.908099119 91.3329854617 182.908099119 54.2901043244 c 0
 182.908099119 26.8554342915 199.269719187 -6.75007071989 241.888671875 -12.09375 c 1
 241.888671875 -23.3828125 l 1
 173.338103735 -21.2866882992 140.354969036 15.9624058636 140.354969036 56.8915928886 c 0
 140.354969036 114.103920526 180.590897669 169.707495946 246.030764778 169.707495946 c 0
 302.182274151 169.707495946 345.776368325 127.157170152 345.776368325 61.1018357432 c 0
 345.776368325 9.07230137733 306.615454565 -58.7974827796 225.735726507 -58.7974827796 c 0
 106.116836192 -58.7974827796 61.5204093666 58.3383752433 61.5204093666 151.438548147 c 0
 61.5204093666 326.481537799 178.671644692 422.469784526 320.525390625 424.913085938 c 0
 404.267578125 426.35546875 542.91796875 370.383789062 542.91796875 194.314453125 c 0
 542.91796875 113.931640625 513.920168399 68.4514024232 492.997070312 30 c 1
 502.197265625 102 l 1
 515.550710041 69.4665979833 525.800725937 50.37890625 585.459960938 50.37890625 c 0
 686.296173319 50.37890625 749.43359375 174.69745707 749.43359375 336.353515625 c 0
EndSplineSet
EndChar

StartChar: si_Ga
Encoding: 23 3484 29
GlifName: si_G_a
Width: 958
VWidth: -24
Flags: HMW
LayerCount: 3
Back
SplineSet
941.875 267.375 m 0
 941.875 100.338867188 859.881835938 -55.8251953125 678.806640625 -56.82421875 c 0
 629.782226562 -57.0947265625 598.185546875 -49.7451171875 580.6875 -40.138671875 c 1
 573.841796875 -32.3212890625 570.577148438 2.1025390625 590.45703125 22.328125 c 1
 607.998046875 9.125 640.659631961 -0.585140291038 686.151367188 0.5595703125 c 0
 817.171875 3.8564453125 870.627929688 96.849609375 870.627929688 229.600585938 c 0
 870.627929688 360.360351562 795.00390625 450.555664062 673.450195312 450.555664062 c 0
 561.557617188 450.555664062 433.315429688 391.236328125 426.8828125 187.823242188 c 1
 414.460286458 185.352597871 402.037760417 184.575791931 389.615234375 187.823242188 c 1
 395.288085938 431.571289062 538.135742188 542.653320312 683.456054688 542.653320312 c 0
 855.038085938 542.653320312 941.875 410.295898438 941.875 267.375 c 0
308.604492188 -55.0390625 m 0
 141.687121542 -55.0390625 35 56.1299781787 35 211.564453125 c 0
 35 435.215669652 196.741210938 545.938476562 323.004882812 548 c 1
 330.559570312 529.03125 324.535712762 494.330490854 319.004882812 484.879882812 c 1
 233.757163334 484.879882812 105.642051033 424.635383571 101.971679688 256.94921875 c 0
 99.3068409792 135.117241989 178.282226562 36.76953125 310.431640625 34.2587890625 c 0
 417.211914062 32.2587890625 495.021484375 83.4892578125 495.021484375 181.946289062 c 0
 495.021484375 237.381835938 454.079101562 277 415.004882812 277 c 1
 426.004882812 321 l 1
 473.494140625 319.794921875 547.0078125 275.235351562 547.0078125 174.76953125 c 0
 547.0078125 56.0498046875 462.547584085 -55.0390625 308.604492188 -55.0390625 c 0
EndSplineSet
Fore
SplineSet
941.875 267.375 m 0
 941.875 100.338867188 859.881835938 -55.8251953125 678.806640625 -56.82421875 c 0
 629.782226562 -57.0947265625 598.185546875 -49.7451171875 580.6875 -40.138671875 c 1
 573.841796875 -32.3212890625 570.577148438 2.1025390625 590.45703125 22.328125 c 1
 607.998046875 9.125 640.659631961 -0.585140291038 686.151367188 0.5595703125 c 0
 817.171875 3.8564453125 870.627929688 96.849609375 870.627929688 229.600585938 c 0
 870.627929688 360.360351562 795.00390625 450.555664062 673.450195312 450.555664062 c 0
 561.557617188 450.555664062 433.315429688 391.236328125 426.8828125 187.823242188 c 1
 414.460286458 185.352597871 402.037760417 184.575791931 389.615234375 187.823242188 c 1
 395.288085938 431.571289062 538.135742188 542.653320312 683.456054688 542.653320312 c 0
 855.038085938 542.653320312 941.875 410.295898438 941.875 267.375 c 0
308.604492188 -55.0390625 m 0
 141.687121542 -55.0390625 35 56.1299781787 35 211.564453125 c 0
 35 435.215669652 196.741210938 545.938476562 323.004882812 548 c 1
 330.559570312 529.03125 324.535712762 494.330490854 319.004882812 484.879882812 c 1
 233.757163334 484.879882812 105.642051033 424.635383571 101.971679688 256.94921875 c 0
 99.3068409792 135.117241989 178.282226562 36.76953125 310.431640625 34.2587890625 c 0
 417.211914062 32.2587890625 495.021484375 83.4892578125 495.021484375 181.946289062 c 0
 495.021484375 237.381835938 454.079101562 277 415.004882812 277 c 1
 426.004882812 321 l 1
 473.494140625 319.794921875 547.0078125 275.235351562 547.0078125 174.76953125 c 0
 547.0078125 56.0498046875 462.547584085 -55.0390625 308.604492188 -55.0390625 c 0
EndSplineSet
EndChar

StartChar: si_Gha
Encoding: 24 3485 30
GlifName: si_G_ha
Width: 915
VWidth: -24
Flags: HMW
LayerCount: 3
Back
SplineSet
38 380 m 5
 417 380 l 5
 417 336 l 1
 123 336 l 1
 38 322 l 1
 32.4132757638 334.615611725 25.484375 356.697265625 38 380 c 5
669.50390625 509.239257812 m 0
 624.901367188 509.239257812 567.521484375 469.69140625 567.521484375 399.736328125 c 0
 567.521484375 362.984375 578 353 578 353 c 1
 547 373 l 1
 580 384 l 1
 599.655293784 389.201719992 622.667784798 392.224855977 646.943859699 392.224855977 c 0
 745.548476136 392.224855977 865 342.348439645 865 186 c 0
 865 64 790.377929688 -35 659 -35 c 0
 554 -35 521 23 506 127 c 1
 506 127 534.700195312 155.271484375 534.700195312 173.461914062 c 0
 534.700195312 196.291015625 485.583984375 197.0625 482.056640625 197.0625 c 0
 472.999023438 197.0625 436.90234375 194.803710938 427 175 c 0
 426.311523438 173.537109375 425.997070312 171.998046875 425.997070312 170.407226562 c 0
 425.997070312 153.6171875 461.165039062 127.975585938 461.004882812 127.016601562 c 0
 444.004882812 25.55078125 396.713867188 -35 292.205078125 -35 c 0
 162.446289062 -35 100.966195144 52.9929529197 100.966195144 150.334902037 c 0
 100.966195144 263.780552002 199.487304688 347 235.930664062 347 c 2
 326 347 l 1
 240.486672483 333.204400488 162.987539454 277.089611123 162.987539454 184.809139398 c 0
 162.987539454 112.461820647 218.894174903 61.7853380784 312.285623038 61.7853380784 c 0
 353.532063923 61.7853380784 409.584960938 86.9033203125 415 117.828125 c 1
 394.208984375 132.224609375 370.987304688 144.698242188 370.987304688 175.0859375 c 0
 370.987304688 211.868164062 414.483398438 242.038085938 484.00390625 242.038085938 c 0
 552.623046875 242.038085938 590 209.9609375 590 173 c 0
 590 141.715820312 560.262695312 129.123046875 548 122.466796875 c 1
 551.478515625 94.6357421875 621.488865829 63.9976221333 664.947023244 63.9976221333 c 0
 745.537953266 63.9976221333 801.042515461 115.421463652 801.042515461 199.119644635 c 0
 801.042515461 285.642742474 744.348655419 347.144005151 645.992879046 347.144005151 c 0
 615.246714379 347.144005151 580.429359456 341.134119785 542 328 c 1
 536.674954473 351.60804852 531.959846987 376.578855594 531.959846987 402.085058768 c 0
 531.959846987 502.724983096 597.185546875 566.045898438 694.900390625 566.045898438 c 0
 770.896484375 566.045898438 830 521.451039846 830 452 c 0
 830 356 737 330 737 330 c 1
 721 339 l 1
 721 339 760 374.990234375 760 424 c 0
 760 463.370376237 729.005859375 509.239257812 669.50390625 509.239257812 c 0
280 568 m 0
 364.702352926 568 436.169614714 515.178033822 436.169614714 422.569098419 c 0
 436.169614714 380.053997323 427.341528536 356.540501255 419 337 c 1
 393 364 l 1
 394 375.333007812 394.666992188 385 394.666992188 393.888671875 c 0
 394.666992188 462.0078125 333.787991519 508.655960281 263.433975885 508.655960281 c 1
 209 419 l 1
 179 422 155 439 155 476 c 0
 155 543 227 568 280 568 c 0
EndSplineSet
Fore
SplineSet
38 380 m 5
 417 380 l 5
 417 336 l 1
 123 336 l 1
 38 322 l 1
 32.4132757638 334.615611725 25.484375 356.697265625 38 380 c 5
669.50390625 509.239257812 m 0
 624.901367188 509.239257812 567.521484375 469.69140625 567.521484375 399.736328125 c 0
 567.521484375 362.984375 578 353 578 353 c 1
 547 373 l 1
 580 384 l 1
 599.655293784 389.201719992 622.667784798 392.224855977 646.943859699 392.224855977 c 0
 745.548476136 392.224855977 865 342.348439645 865 186 c 0
 865 64 790.377929688 -35 659 -35 c 0
 554 -35 521 23 506 127 c 1
 506 127 534.700195312 155.271484375 534.700195312 173.461914062 c 0
 534.700195312 196.291015625 485.583984375 197.0625 482.056640625 197.0625 c 0
 472.999023438 197.0625 436.90234375 194.803710938 427 175 c 0
 426.311523438 173.537109375 425.997070312 171.998046875 425.997070312 170.407226562 c 0
 425.997070312 153.6171875 461.165039062 127.975585938 461.004882812 127.016601562 c 0
 444.004882812 25.55078125 396.713867188 -35 292.205078125 -35 c 0
 162.446289062 -35 100.966195144 52.9929529197 100.966195144 150.334902037 c 0
 100.966195144 263.780552002 199.487304688 347 235.930664062 347 c 2
 326 347 l 1
 240.486672483 333.204400488 162.987539454 277.089611123 162.987539454 184.809139398 c 0
 162.987539454 112.461820647 218.894174903 61.7853380784 312.285623038 61.7853380784 c 0
 353.532063923 61.7853380784 409.584960938 86.9033203125 415 117.828125 c 1
 394.208984375 132.224609375 370.987304688 144.698242188 370.987304688 175.0859375 c 0
 370.987304688 211.868164062 414.483398438 242.038085938 484.00390625 242.038085938 c 0
 552.623046875 242.038085938 590 209.9609375 590 173 c 0
 590 141.715820312 560.262695312 129.123046875 548 122.466796875 c 1
 551.478515625 94.6357421875 621.488865829 63.9976221333 664.947023244 63.9976221333 c 0
 745.537953266 63.9976221333 801.042515461 115.421463652 801.042515461 199.119644635 c 0
 801.042515461 285.642742474 744.348655419 347.144005151 645.992879046 347.144005151 c 0
 615.246714379 347.144005151 580.429359456 341.134119785 542 328 c 1
 536.674954473 351.60804852 531.959846987 376.578855594 531.959846987 402.085058768 c 0
 531.959846987 502.724983096 597.185546875 566.045898438 694.900390625 566.045898438 c 0
 770.896484375 566.045898438 830 521.451039846 830 452 c 0
 830 356 737 330 737 330 c 1
 721 339 l 1
 721 339 760 374.990234375 760 424 c 0
 760 463.370376237 729.005859375 509.239257812 669.50390625 509.239257812 c 0
280 568 m 0
 364.702352926 568 436.169614714 515.178033822 436.169614714 422.569098419 c 0
 436.169614714 380.053997323 427.341528536 356.540501255 419 337 c 1
 393 364 l 1
 394 375.333007812 394.666992188 385 394.666992188 393.888671875 c 0
 394.666992188 462.0078125 333.787991519 508.655960281 263.433975885 508.655960281 c 1
 209 419 l 1
 179 422 155 439 155 476 c 0
 155 543 227 568 280 568 c 0
EndSplineSet
Colour: ff0000
EndChar

StartChar: si_Nga
Encoding: 25 3486 31
GlifName: si_N_ga
Width: 880
VWidth: -14
Flags: HMW
LayerCount: 3
Back
SplineSet
419.9609375 685.259765625 m 0
 330.626904612 685.259765625 260.679150602 654.611239207 219.7890625 630.07421875 c 1
 206.64166512 638.690868362 197.13671875 675.057617188 208.092773438 698.413085938 c 1
 265.267578125 725.336914062 324.510464651 739.006835938 421.509765625 739.006835938 c 0
 648.682356593 739.006835938 825.450195312 574.588166798 825.450195312 316.625 c 0
 825.450195312 150.355622609 769.649213195 -42 601.009765625 -42 c 0
 525.294079316 -42 465.104327053 -11.0987465788 443.442382812 51 c 1
 420.08559888 -16.6407284114 350.243275455 -42 290.967773438 -42 c 0
 192.490000084 -42 101.413085938 10.6818988978 101.413085938 131.486328125 c 0
 101.413085938 351.767770741 318.65625 380.260742188 446.442382812 351 c 4
 437.166992188 310.391601562 l 1
 341.4609375 330.391601562 172.439453125 301.797517427 172.439453125 176.115234375 c 0
 172.439453125 110.336027146 215.283658113 61 293.64453125 61 c 0
 365.165152991 61 427.442382812 101.407262976 427.442382812 195 c 1
 434.446289399 199.26831435 459.297851562 203.076171875 466 197.6796875 c 1
 466 102.482421875 532.490043127 61 611.086914062 61 c 0
 695.497523747 61 754.629882812 157.26038484 754.629882812 329.989257812 c 0
 754.629882812 536.509180506 637.416850847 685.259765625 419.9609375 685.259765625 c 0
405 332 m 1
 407.171875 342.696289062 408.227539062 352.93359375 408.227539062 362.647460938 c 0
 408.227539062 426.63671875 362.421875 467.885742188 288.291015625 467.885742188 c 0
 282.057617188 467.885742188 275.624023438 467.59375 269 467 c 1
 219 385 l 1
 189 388 165 405 165 442 c 0
 165 509 237 534 290 534 c 0
 380.079101562 534 450.567382812 478.989257812 450.567382812 379.237304688 c 0
 450.567382812 345.047851562 443.940429688 328.739257812 438 310 c 1
 405 332 l 1
EndSplineSet
Fore
SplineSet
419.9609375 685.259765625 m 0
 330.626904612 685.259765625 260.679150602 654.611239207 219.7890625 630.07421875 c 1
 206.64166512 638.690868362 197.13671875 675.057617188 208.092773438 698.413085938 c 1
 265.267578125 725.336914062 324.510464651 739.006835938 421.509765625 739.006835938 c 0
 648.682356593 739.006835938 825.450195312 574.588166798 825.450195312 316.625 c 0
 825.450195312 150.355622609 769.649213195 -42 601.009765625 -42 c 0
 525.294079316 -42 465.104327053 -11.0987465788 443.442382812 51 c 1
 420.08559888 -16.6407284114 350.243275455 -42 290.967773438 -42 c 0
 192.490000084 -42 101.413085938 10.6818988978 101.413085938 131.486328125 c 0
 101.413085938 351.767770741 318.65625 380.260742188 446.442382812 351 c 4
 437.166992188 310.391601562 l 1
 341.4609375 330.391601562 172.439453125 301.797517427 172.439453125 176.115234375 c 0
 172.439453125 110.336027146 215.283658113 61 293.64453125 61 c 0
 365.165152991 61 427.442382812 101.407262976 427.442382812 195 c 1
 434.446289399 199.26831435 459.297851562 203.076171875 466 197.6796875 c 1
 466 102.482421875 532.490043127 61 611.086914062 61 c 0
 695.497523747 61 754.629882812 157.26038484 754.629882812 329.989257812 c 0
 754.629882812 536.509180506 637.416850847 685.259765625 419.9609375 685.259765625 c 0
405 332 m 1
 407.171875 342.696289062 408.227539062 352.93359375 408.227539062 362.647460938 c 0
 408.227539062 426.63671875 362.421875 467.885742188 288.291015625 467.885742188 c 0
 282.057617188 467.885742188 275.624023438 467.59375 269 467 c 1
 219 385 l 1
 189 388 165 405 165 442 c 0
 165 509 237 534 290 534 c 0
 380.079101562 534 450.567382812 478.989257812 450.567382812 379.237304688 c 0
 450.567382812 345.047851562 443.940429688 328.739257812 438 310 c 1
 405 332 l 1
EndSplineSet
Colour: ff0000
EndChar

StartChar: si_Nnga
Encoding: 26 3487 32
GlifName: si_N_nga
Width: 1103
VWidth: -24
Flags: HMW
LayerCount: 3
Back
SplineSet
47.48828125 226.418945312 m 0
 47.48828125 432.39453125 211.377929688 554.3671875 371.396484375 554.3671875 c 0
 404.141601562 554.3671875 424.3828125 552.354492188 457 548 c 1
 433 492 l 25
 321 500 l 17
 186 458 115.365234375 383.963867188 110 238 c 0
 107.157226562 160.663085938 140.754882812 55.607421875 188 18.7021484375 c 1
 183.287109375 -5.1513671875 171.327148438 -28.431640625 147 -30.3115234375 c 1
 83.2158203125 17.9443359375 47.48828125 124.125 47.48828125 226.418945312 c 0
EndSplineSet
Refer: 29 3484 N 1 0 0 1 134 0 2
Fore
SplineSet
47.48828125 226.418945312 m 0
 47.48828125 432.39453125 211.377929688 554.3671875 371.396484375 554.3671875 c 0
 404.141601562 554.3671875 424.3828125 552.354492188 457 548 c 1
 433 492 l 25
 321 500 l 17
 186 458 115.365234375 383.963867188 110 238 c 0
 107.157226562 160.663085938 140.754882812 55.607421875 188 18.7021484375 c 1
 183.287109375 -5.1513671875 171.327148438 -28.431640625 147 -30.3115234375 c 1
 83.2158203125 17.9443359375 47.48828125 124.125 47.48828125 226.418945312 c 0
EndSplineSet
Refer: 29 3484 N 1 0 0 1 134 0 2
Colour: ff0000
EndChar

StartChar: si_Cha
Encoding: 28 3489 33
GlifName: si_C_ha
Width: 855
VWidth: -24
Flags: HMW
LayerCount: 3
Back
SplineSet
604 229 m 0xfe
 523.918945312 229.434570312 500.597672879 302.774526608 498.741210938 362 c 0
 492.630275284 556.953125 631.34375 725.752929688 823 781 c 5
 837.082337152 773.388230927 855.514103776 746.009415258 850 718 c 5
 683.626953125 678.284179688 572.038899453 565.277348419 549.295898438 424 c 0
 534.585339429 332.619413546 554.078852691 272.99468962 607 274 c 0
 664.519116951 274.97345267 692.810513575 321.860245306 693 398 c 0
 693.104267165 441.102338879 665.892857143 517 561 517 c 0
 508.404761905 517 467 479.453333333 467 429 c 0
 467 377 482 362 482 362 c 1
 444 343 l 1
 436 368 428.526570112 394.002668369 429 436 c 0
 430 524.708661417 512 567 573 567 c 0
 682.688311688 567 737 489.051282051 737 407 c 0
 737 276.061523438 668.436523092 228.650326784 604 229 c 0xfe
207.01953125 569 m 0
 280.920898438 569 351.127929688 527.0234375 351.127929688 442.978515625 c 0
 351.127929688 409.3046875 345.36328125 379.30078125 337.01953125 345 c 1
 322.7265625 347.275390625 308.912109375 348.356445312 295.654296875 348.356445312 c 0
 193.576171875 348.356445312 117.010742188 284.40234375 117.010742188 207.518554688 c 0
 117.010742188 123.084960938 199.097655916 37.9911454971 393.01953125 37 c 0
 588.673828125 36 675.0390625 127.10546875 675.0390625 218.502929688 c 0
 675.0390625 261.447987808 624.796570691 345 447.01953125 345 c 1
 467.01953125 391 l 1
 492.002226434 391.564532321 516.792834057 394.606722499 539.876953125 391.83984375 c 0
 647 379 741.114257812 321.03125 741.114257812 199.946289062 c 0
 741.114257812 30.0625 570.21484375 -59 388.01953125 -59 c 0
 195.291015625 -59 45 31.798828125 45 177.118164062 c 0
 45 334.90234375 188.390625 397.203125 295.756835938 397.203125 c 0
 304.442382812 397.203125 312.895507812 396.796875 321.01953125 396 c 1
 297.01953125 357 l 1
 303.069335938 374.28515625 313.879882812 392.565429688 313.879882812 415.716796875 c 0
 313.879882812 472.971679688 264.365234375 505.75 209.526367188 505.75 c 0
 198.72265625 505.75 187.484375 504.529296875 176.01953125 502 c 1
 209.01953125 523 l 1
 154.01953125 421 l 1
 114.057617188 422.94921875 87.966796875 446.76171875 87.966796875 480.361328125 c 0
 87.966796875 532.604492188 146.654296875 569 207.01953125 569 c 0
EndSplineSet
Fore
SplineSet
604 229 m 0xfe
 523.918945312 229.434570312 500.597672879 302.774526608 498.741210938 362 c 0
 492.630275284 556.953125 631.34375 725.752929688 823 781 c 5
 837.082337152 773.388230927 855.514103776 746.009415258 850 718 c 5
 683.626953125 678.284179688 572.038899453 565.277348419 549.295898438 424 c 0
 534.585339429 332.619413546 554.078852691 272.99468962 607 274 c 0
 664.519116951 274.97345267 692.810513575 321.860245306 693 398 c 0
 693.104267165 441.102338879 665.892857143 517 561 517 c 0
 508.404761905 517 467 479.453333333 467 429 c 0
 467 377 482 362 482 362 c 1
 444 343 l 1
 436 368 428.526570112 394.002668369 429 436 c 0
 430 524.708661417 512 567 573 567 c 0
 682.688311688 567 737 489.051282051 737 407 c 0
 737 276.061523438 668.436523092 228.650326784 604 229 c 0xfe
207.01953125 569 m 0
 280.920898438 569 351.127929688 527.0234375 351.127929688 442.978515625 c 0
 351.127929688 409.3046875 345.36328125 379.30078125 337.01953125 345 c 1
 322.7265625 347.275390625 308.912109375 348.356445312 295.654296875 348.356445312 c 0
 193.576171875 348.356445312 117.010742188 284.40234375 117.010742188 207.518554688 c 0
 117.010742188 123.084960938 199.097655916 37.9911454971 393.01953125 37 c 0
 588.673828125 36 675.0390625 127.10546875 675.0390625 218.502929688 c 0
 675.0390625 261.447987808 624.796570691 345 447.01953125 345 c 1
 467.01953125 391 l 1
 492.002226434 391.564532321 516.792834057 394.606722499 539.876953125 391.83984375 c 0
 647 379 741.114257812 321.03125 741.114257812 199.946289062 c 0
 741.114257812 30.0625 570.21484375 -59 388.01953125 -59 c 0
 195.291015625 -59 45 31.798828125 45 177.118164062 c 0
 45 334.90234375 188.390625 397.203125 295.756835938 397.203125 c 0
 304.442382812 397.203125 312.895507812 396.796875 321.01953125 396 c 1
 297.01953125 357 l 1
 303.069335938 374.28515625 313.879882812 392.565429688 313.879882812 415.716796875 c 0
 313.879882812 472.971679688 264.365234375 505.75 209.526367188 505.75 c 0
 198.72265625 505.75 187.484375 504.529296875 176.01953125 502 c 1
 209.01953125 523 l 1
 154.01953125 421 l 1
 114.057617188 422.94921875 87.966796875 446.76171875 87.966796875 480.361328125 c 0
 87.966796875 532.604492188 146.654296875 569 207.01953125 569 c 0
EndSplineSet
EndChar

StartChar: si_Ja
Encoding: 29 3490 34
GlifName: si_J_a
Width: 841
VWidth: -24
Flags: HMW
LayerCount: 3
Back
SplineSet
518.741210938 362 m 0
 512.629882812 556.953125 651.34375 725.752929688 843 781 c 5
 858.024953647 770.766370513 871.82192823 743.095701995 870 718 c 5
 703.626953125 678.284179688 592.0390625 565.27734375 569.295898438 424 c 0
 566.715820312 407.970703125 565.1875 392.918945312 564.708007812 379 c 1
 518.741210938 362 l 0
EndSplineSet
Refer: 1 3508 N 1 0 0 1 0 0 2
Fore
SplineSet
518.741210938 362 m 0
 512.629882812 556.953125 651.34375 725.752929688 843 781 c 5
 858.024953647 770.766370513 871.82192823 743.095701995 870 718 c 5
 703.626953125 678.284179688 592.0390625 565.27734375 569.295898438 424 c 0
 566.715820312 407.970703125 565.1875 392.918945312 564.708007812 379 c 1
 518.741210938 362 l 0
EndSplineSet
Refer: 1 3508 N 1 0 0 1 0 0 2
EndChar

StartChar: si_Ttha
Encoding: 35 3496 39
GlifName: si_T_tha
Width: 872
VWidth: -14
Flags: HMW
LayerCount: 3
Back
SplineSet
447 305 m 1
 449.172104173 315.696674474 450.227583862 325.934097094 450.227583862 335.647527588 c 0
 450.227583862 399.63689724 404.421805161 440.886021268 330.291200025 440.886021268 c 0
 324.0576198 440.886021268 317.623755106 440.594349264 311 440 c 1
 261 358 l 1
 231 361 207 378 207 415 c 0
 207 482 279 507 332 507 c 0
 412 507 487.65625 457.983398438 492 373 c 0
 492.388618557 365.397094946 492.567825481 358.516494322 492.567825481 352.237104646 c 0
 492.567825481 317.047900947 486.940023662 300.739084134 481 282 c 1
 447 305 l 1
134.334607405 134.579525331 m 0
 134.334607405 273.21555106 276.58899028 332.18359375 393.307128906 332.18359375 c 0
 454.500976562 332.18359375 469.442382812 319 469.442382812 319 c 1
 479.442382812 293 l 1
 471.567196909 296.634701186 462.593419369 297.931916171 452.991335062 297.931916171 c 0
 430.892048119 297.931916171 405.464654565 291.060639286 382.442382812 290 c 0
 286.770582104 285.705446842 205.435199046 248.749672508 205.435199046 159.93749759 c 0
 205.435199046 112.734028958 248.164467032 70.9988908464 325.597222753 70.9988908464 c 0
 391.371029174 70.9988908464 447.442382812 111.407170368 447.442382812 205 c 1
 454.446289062 205.030273438 479.297851562 205.259765625 486 205.6796875 c 1
 486 108.131855964 550.38151485 70.9972351985 605.857616037 70.9972351985 c 0
 688.250858861 70.9972351985 741.608651451 153.813745779 741.608651451 330.344505391 c 0
 741.608651451 558.229662505 594.831483005 663.057865136 448.350938349 663.057865136 c 0
 310.452222363 663.057865136 223.517464139 574 220.442382812 574 c 1
 187.442382812 625 l 1
 237.126537827 662.855611436 325.646866457 712.005017302 443.381516012 712.005017302 c 0
 666.342109112 712.005017302 817.450049384 548.454112945 817.450049384 308.62636563 c 0
 817.450049384 145.955633454 764.575054261 -41.0517111095 604.110336323 -41.0517111095 c 0
 536.51562506 -41.0517111095 482.781066421 -11.0987465788 463.442382812 51 c 1
 440.54495888 -16.622080892 372.088849063 -41.0022811445 313.973389848 -41.0022811445 c 0
 220.16162493 -41.0022811445 134.334607405 11.8777429797 134.334607405 134.579525331 c 0
EndSplineSet
Fore
SplineSet
447 305 m 1
 449.172104173 315.696674474 450.227583862 325.934097094 450.227583862 335.647527588 c 0
 450.227583862 399.63689724 404.421805161 440.886021268 330.291200025 440.886021268 c 0
 324.0576198 440.886021268 317.623755106 440.594349264 311 440 c 1
 261 358 l 1
 231 361 207 378 207 415 c 0
 207 482 279 507 332 507 c 0
 412 507 487.65625 457.983398438 492 373 c 0
 492.388618557 365.397094946 492.567825481 358.516494322 492.567825481 352.237104646 c 0
 492.567825481 317.047900947 486.940023662 300.739084134 481 282 c 1
 447 305 l 1
134.334607405 134.579525331 m 0
 134.334607405 273.21555106 276.58899028 332.18359375 393.307128906 332.18359375 c 0
 454.500976562 332.18359375 469.442382812 319 469.442382812 319 c 1
 479.442382812 293 l 1
 471.567196909 296.634701186 462.593419369 297.931916171 452.991335062 297.931916171 c 0
 430.892048119 297.931916171 405.464654565 291.060639286 382.442382812 290 c 0
 286.770582104 285.705446842 205.435199046 248.749672508 205.435199046 159.93749759 c 0
 205.435199046 112.734028958 248.164467032 70.9988908464 325.597222753 70.9988908464 c 0
 391.371029174 70.9988908464 447.442382812 111.407170368 447.442382812 205 c 1
 454.446289062 205.030273438 479.297851562 205.259765625 486 205.6796875 c 1
 486 108.131855964 550.38151485 70.9972351985 605.857616037 70.9972351985 c 0
 688.250858861 70.9972351985 741.608651451 153.813745779 741.608651451 330.344505391 c 0
 741.608651451 558.229662505 594.831483005 663.057865136 448.350938349 663.057865136 c 0
 310.452222363 663.057865136 223.517464139 574 220.442382812 574 c 1
 187.442382812 625 l 1
 237.126537827 662.855611436 325.646866457 712.005017302 443.381516012 712.005017302 c 0
 666.342109112 712.005017302 817.450049384 548.454112945 817.450049384 308.62636563 c 0
 817.450049384 145.955633454 764.575054261 -41.0517111095 604.110336323 -41.0517111095 c 0
 536.51562506 -41.0517111095 482.781066421 -11.0987465788 463.442382812 51 c 1
 440.54495888 -16.622080892 372.088849063 -41.0022811445 313.973389848 -41.0022811445 c 0
 220.16162493 -41.0022811445 134.334607405 11.8777429797 134.334607405 134.579525331 c 0
EndSplineSet
EndChar

StartChar: si_Dda
Encoding: 36 3497 40
GlifName: si_D_da
Width: 880
VWidth: -14
Flags: HMW
LayerCount: 3
Back
SplineSet
419.9609375 685.259765625 m 0
 330.626904612 685.259765625 260.679150602 654.611239207 219.7890625 630.07421875 c 1
 206.64166512 638.690868362 197.13671875 675.057617188 208.092773438 698.413085938 c 1
 265.267578125 725.336914062 324.510464651 739.006835938 421.509765625 739.006835938 c 0
 648.682356593 739.006835938 825.450195312 574.588166798 825.450195312 316.625 c 0
 825.450195312 150.355622609 769.649213195 -42 601.009765625 -42 c 0
 525.294079316 -42 465.104327053 -11.0987465788 443.442382812 51 c 1
 420.08559888 -16.6407284114 350.243275455 -42 290.967773438 -42 c 0
 192.490000084 -42 101.413085938 10.6818988978 101.413085938 131.486328125 c 0
 101.413085938 271.767770741 215.656035683 351.260405393 313.442382812 352 c 0
 304.166992188 320.391601562 l 1
 228.461176063 320.391601562 172.439453125 251.797517427 172.439453125 176.115234375 c 0
 172.439453125 110.336027146 215.283658113 61 293.64453125 61 c 0
 365.165152991 61 427.442382812 101.407262976 427.442382812 195 c 1
 434.446289399 199.26831435 459.297851562 203.076171875 466 197.6796875 c 1
 466 102.482421875 532.490043127 61 611.086914062 61 c 0
 695.497523747 61 754.629882812 157.26038484 754.629882812 329.989257812 c 0
 754.629882812 536.509180506 637.416850847 685.259765625 419.9609375 685.259765625 c 0
29 365 m 5
 443 362 l 1
 438 320 l 1
 135 320 l 1
 31 303 l 5
 20.3193359375 317.057617188 13.3515625 346.249023438 29 365 c 5
405 342 m 1
 407.172074024 352.696651211 408.227539062 362.934051568 408.227539062 372.647460938 c 0
 408.227539062 436.636701423 362.421707046 477.885742188 288.291015625 477.885742188 c 0
 282.057494985 477.885742188 275.623691791 477.594162055 269 477 c 1
 219 395 l 1
 189 398 165 415 165 452 c 0
 165 519 237 544 290 544 c 0
 380.079106345 544 450.567382812 488.989632509 450.567382812 389.237304688 c 0
 450.567382812 355.048002208 443.940220452 338.739311954 438 320 c 1
 405 342 l 1
EndSplineSet
Fore
SplineSet
419.9609375 685.259765625 m 0
 330.626904612 685.259765625 260.679150602 654.611239207 219.7890625 630.07421875 c 1
 206.64166512 638.690868362 197.13671875 675.057617188 208.092773438 698.413085938 c 1
 265.267578125 725.336914062 324.510464651 739.006835938 421.509765625 739.006835938 c 0
 648.682356593 739.006835938 825.450195312 574.588166798 825.450195312 316.625 c 0
 825.450195312 150.355622609 769.649213195 -42 601.009765625 -42 c 0
 525.294079316 -42 465.104327053 -11.0987465788 443.442382812 51 c 1
 420.08559888 -16.6407284114 350.243275455 -42 290.967773438 -42 c 0
 192.490000084 -42 101.413085938 10.6818988978 101.413085938 131.486328125 c 0
 101.413085938 271.767770741 215.656035683 351.260405393 313.442382812 352 c 0
 304.166992188 320.391601562 l 1
 228.461176063 320.391601562 172.439453125 251.797517427 172.439453125 176.115234375 c 0
 172.439453125 110.336027146 215.283658113 61 293.64453125 61 c 0
 365.165152991 61 427.442382812 101.407262976 427.442382812 195 c 1
 434.446289399 199.26831435 459.297851562 203.076171875 466 197.6796875 c 1
 466 102.482421875 532.490043127 61 611.086914062 61 c 0
 695.497523747 61 754.629882812 157.26038484 754.629882812 329.989257812 c 0
 754.629882812 536.509180506 637.416850847 685.259765625 419.9609375 685.259765625 c 0
29 365 m 5
 443 362 l 1
 438 320 l 1
 135 320 l 1
 31 303 l 5
 20.3193359375 317.057617188 13.3515625 346.249023438 29 365 c 5
405 342 m 1
 407.172074024 352.696651211 408.227539062 362.934051568 408.227539062 372.647460938 c 0
 408.227539062 436.636701423 362.421707046 477.885742188 288.291015625 477.885742188 c 0
 282.057494985 477.885742188 275.623691791 477.594162055 269 477 c 1
 219 395 l 1
 189 398 165 415 165 452 c 0
 165 519 237 544 290 544 c 0
 380.079106345 544 450.567382812 488.989632509 450.567382812 389.237304688 c 0
 450.567382812 355.048002208 443.940220452 338.739311954 438 320 c 1
 405 342 l 1
EndSplineSet
EndChar

StartChar: si_Nna
Encoding: 38 3499 42
GlifName: si_N_na
Width: 1391
VWidth: 0
Flags: HMW
LayerCount: 3
Back
SplineSet
882.641601562 438 m 0
 779.407226562 439.573242188 789.25390625 274.489257812 758 154 c 1
 743.650390625 294.952148438 l 1
 733.047851562 461.182617188 833.89453125 496 884.39453125 496 c 0
 930.701171875 496 995.076171875 469.759765625 1000 389 c 1
 1000 383 l 1
 1011.10546875 466.3984375 1081.39453125 496 1131.18554688 496 c 0
 1236.55078125 496 1322.02246094 421.87109375 1322.02246094 239.342773438 c 0
 1322.02246094 100.765625 1271.69140625 -50.0009765625 1115.8125 -50.0009765625 c 0
 1017.11328125 -50.0009765625 946.904296875 -2.419921875 946.904296875 152 c 1
 965.87890625 160.215820312 985.612304688 156.944335938 994 152 c 1
 995.497070312 43.7373046875 1049.10546875 18.9990234375 1105.32910156 18.9990234375 c 0
 1189.765625 18.9990234375 1217.2421875 126.62109375 1219.04394531 217.5859375 c 0
 1222.04394531 376.262695312 1191.49316406 438 1122.24511719 438 c 0
 1065.09082031 438 1027.87304688 367.790039062 1027.87304688 246 c 1
 1012.91503906 237.690429688 985.958007812 234.689453125 974 243 c 1
 972.920898438 367.759765625 943.047851562 437.206054688 882.641601562 438 c 0
222.620117188 352.629882812 m 256
 222.620117188 190.885742188 380.401367188 173.98828125 444.173828125 173.98828125 c 0
 475.994140625 173.98828125 513.83984375 199.447265625 513.83984375 242.740234375 c 256
 513.83984375 283.330078125 485.860351562 316.540039062 445.26953125 316.540039062 c 256
 404.6796875 316.540039062 377.469726562 283.330078125 377.469726562 242.740234375 c 256
 377.469726562 202.150390625 406.6796875 171.940429688 437.26953125 171.940429688 c 257
 437.26953125 126.26953125 l 257
 388.23046875 126.26953125 343.030273438 184.76953125 343.030273438 243.809570312 c 256
 343.030273438 312.849609375 394.23046875 364.75 463.26953125 364.75 c 256
 538.309570312 364.75 579.509765625 310.549804688 579.509765625 251.509765625 c 256
 579.509765625 179.440429688 527.5390625 114.66015625 428.990234375 114.66015625 c 256
 287.6171875 114.66015625 178.1796875 202.720703125 178.1796875 336.48046875 c 256
 178.1796875 495.790039062 314.600585938 595.049804688 471.1796875 595.049804688 c 256
 647.391601562 595.049804688 776.700195312 458.84375 776.700195312 271.83984375 c 256
 776.700195312 152.530273438 710.125976562 -52 448.509765625 -52 c 256
 231.471679688 -52 220.27734375 102.91015625 116.91015625 102.91015625 c 256
 83.7001953125 102.91015625 65.08984375 83.919921875 49.259765625 69.7001953125 c 257
 24.9208984375 78.0771484375 13.1708984375 94.18359375 17.4296875 105.219726562 c 257
 246.334960938 342.590820312 696.352539062 672.549804688 959.969726562 835.549804688 c 261
 975.79568244 830.696846383 993.618368672 804.708602299 994.5703125 788.969726562 c 261
 759.614257812 658.169921875 292.568359375 315.106445312 128.360351562 141.889648438 c 257
 203.625 141.889648438 250.989257812 37.330078125 441.66015625 37.330078125 c 256
 604.568359375 37.330078125 685.280273438 154.669921875 685.280273438 280.129882812 c 256
 685.280273438 440.740234375 560.46484375 534.299804688 440.719726562 534.299804688 c 256
 306.999023438 534.299804688 222.620117188 453.1953125 222.620117188 352.629882812 c 256
EndSplineSet
Fore
SplineSet
882.641601562 438 m 0
 779.407226562 439.573242188 789.25390625 274.489257812 758 154 c 1
 743.650390625 294.952148438 l 1
 733.047851562 461.182617188 833.89453125 496 884.39453125 496 c 0
 930.701171875 496 995.076171875 469.759765625 1000 389 c 1
 1000 383 l 1
 1011.10546875 466.3984375 1081.39453125 496 1131.18554688 496 c 0
 1236.55078125 496 1322.02246094 421.87109375 1322.02246094 239.342773438 c 0
 1322.02246094 100.765625 1271.69140625 -50.0009765625 1115.8125 -50.0009765625 c 0
 1017.11328125 -50.0009765625 946.904296875 -2.419921875 946.904296875 152 c 1
 965.87890625 160.215820312 985.612304688 156.944335938 994 152 c 1
 995.497070312 43.7373046875 1049.10546875 18.9990234375 1105.32910156 18.9990234375 c 0
 1189.765625 18.9990234375 1217.2421875 126.62109375 1219.04394531 217.5859375 c 0
 1222.04394531 376.262695312 1191.49316406 438 1122.24511719 438 c 0
 1065.09082031 438 1027.87304688 367.790039062 1027.87304688 246 c 1
 1012.91503906 237.690429688 985.958007812 234.689453125 974 243 c 1
 972.920898438 367.759765625 943.047851562 437.206054688 882.641601562 438 c 0
222.620117188 352.629882812 m 256
 222.620117188 190.885742188 380.401367188 173.98828125 444.173828125 173.98828125 c 0
 475.994140625 173.98828125 513.83984375 199.447265625 513.83984375 242.740234375 c 256
 513.83984375 283.330078125 485.860351562 316.540039062 445.26953125 316.540039062 c 256
 404.6796875 316.540039062 377.469726562 283.330078125 377.469726562 242.740234375 c 256
 377.469726562 202.150390625 406.6796875 171.940429688 437.26953125 171.940429688 c 257
 437.26953125 126.26953125 l 257
 388.23046875 126.26953125 343.030273438 184.76953125 343.030273438 243.809570312 c 256
 343.030273438 312.849609375 394.23046875 364.75 463.26953125 364.75 c 256
 538.309570312 364.75 579.509765625 310.549804688 579.509765625 251.509765625 c 256
 579.509765625 179.440429688 527.5390625 114.66015625 428.990234375 114.66015625 c 256
 287.6171875 114.66015625 178.1796875 202.720703125 178.1796875 336.48046875 c 256
 178.1796875 495.790039062 314.600585938 595.049804688 471.1796875 595.049804688 c 256
 647.391601562 595.049804688 776.700195312 458.84375 776.700195312 271.83984375 c 256
 776.700195312 152.530273438 710.125976562 -52 448.509765625 -52 c 256
 231.471679688 -52 220.27734375 102.91015625 116.91015625 102.91015625 c 256
 83.7001953125 102.91015625 65.08984375 83.919921875 49.259765625 69.7001953125 c 257
 24.9208984375 78.0771484375 13.1708984375 94.18359375 17.4296875 105.219726562 c 257
 246.334960938 342.590820312 696.352539062 672.549804688 959.969726562 835.549804688 c 261
 975.79568244 830.696846383 993.618368672 804.708602299 994.5703125 788.969726562 c 261
 759.614257812 658.169921875 292.568359375 315.106445312 128.360351562 141.889648438 c 257
 203.625 141.889648438 250.989257812 37.330078125 441.66015625 37.330078125 c 256
 604.568359375 37.330078125 685.280273438 154.669921875 685.280273438 280.129882812 c 256
 685.280273438 440.740234375 560.46484375 534.299804688 440.719726562 534.299804688 c 256
 306.999023438 534.299804688 222.620117188 453.1953125 222.620117188 352.629882812 c 256
EndSplineSet
EndChar

StartChar: si_Tha
Encoding: 41 3502 44
GlifName: si_T_ha
Width: 811
VWidth: -14
Flags: HMW
LayerCount: 3
Back
SplineSet
310.81640625 734.124023438 m 1
 350 748.124023438 l 1
 437.693359375 716.4140625 419.575195312 616.358398438 452.033203125 556.356445312 c 0
 481.755859375 501.41015625 564.594726562 491.95703125 658 533 c 1
 681 496 l 1
 608.212890625 449.369140625 450.287109375 421.567382812 398.029296875 526.12109375 c 0
 365.484375 591.235351562 372.3984375 697.697265625 310.81640625 734.124023438 c 1
408.971679688 40.9716796875 m 0
 604.291992188 40.9716796875 682.483398438 195.509765625 684 346 c 0
 686.436523438 591.587890625 487.467773438 705.0703125 311 733 c 1
 321 781 l 1
 582.01171875 741.120117188 756 561.309570312 756 331 c 0
 756 100.676757812 620.922851562 -58.578125 404.182617188 -58.578125 c 0
 169.877929688 -58.578125 58.841796875 77.7734375 58.841796875 223.12109375 c 0
 58.841796875 412.412109375 192.012695312 500.8046875 323.893554688 500.8046875 c 0
 328.850585938 449.663085938 l 0
 203.975585938 449.663085938 128.99609375 363.698242188 128.99609375 253.989257812 c 0
 128.99609375 128.466796875 234.825195312 40.9716796875 408.971679688 40.9716796875 c 0
EndSplineSet
Fore
SplineSet
310.81640625 734.124023438 m 1
 350 748.124023438 l 1
 437.693359375 716.4140625 419.575195312 616.358398438 452.033203125 556.356445312 c 0
 481.755859375 501.41015625 564.594726562 491.95703125 658 533 c 1
 681 496 l 1
 608.212890625 449.369140625 450.287109375 421.567382812 398.029296875 526.12109375 c 0
 365.484375 591.235351562 372.3984375 697.697265625 310.81640625 734.124023438 c 1
408.971679688 40.9716796875 m 0
 604.291992188 40.9716796875 682.483398438 195.509765625 684 346 c 0
 686.436523438 591.587890625 487.467773438 705.0703125 311 733 c 1
 321 781 l 1
 582.01171875 741.120117188 756 561.309570312 756 331 c 0
 756 100.676757812 620.922851562 -58.578125 404.182617188 -58.578125 c 0
 169.877929688 -58.578125 58.841796875 77.7734375 58.841796875 223.12109375 c 0
 58.841796875 412.412109375 192.012695312 500.8046875 323.893554688 500.8046875 c 0
 328.850585938 449.663085938 l 0
 203.975585938 449.663085938 128.99609375 363.698242188 128.99609375 253.989257812 c 0
 128.99609375 128.466796875 234.825195312 40.9716796875 408.971679688 40.9716796875 c 0
EndSplineSet
EndChar

StartChar: si_Da
Encoding: 42 3503 45
GlifName: si_D_a
Width: 619
VWidth: -17
Flags: HMW
LayerCount: 3
Back
SplineSet
45 162.538085938 m 0
 45 320.041015625 210.904296875 394.005859375 403.557617188 394.005859375 c 0
 461.249023438 394.005859375 503.015625 385 503.015625 385 c 1
 503.015625 387.5 492.015625 375.474609375 492.015625 378 c 0
 492.015625 465.44140625 399.334960938 499.203125 340.072265625 499.203125 c 0
 333.548828125 499.203125 327.469726562 498.79296875 322.015625 498 c 1
 266.015625 409 l 1
 227.368164062 411.520507812 206.760742188 440.239257812 206.760742188 470.63671875 c 0
 206.760742188 540.732216144 276.717224938 571 340.015625 571 c 0
 425.252633458 571 526.80078125 519.046658633 526.80078125 409.775390625 c 0
 526.80078125 369.609077039 519.015625 346.321308109 517.015625 343 c 1
 483.786132812 345.981445312 453.032226562 347.431640625 424.676757812 347.431640625 c 0
 244.092503061 347.431640625 155.227539062 290.808438099 155.227539062 183.088867188 c 0
 155.227539062 90.033203125 237.927734375 22.123046875 371.541992188 22.123046875 c 0
 424.654296875 22.123046875 505.810546875 36.853515625 553.015625 61 c 5
 565.103515625 56.50390625 567.823242188 28.857421875 563.015625 19 c 5
 469.79296875 -22.275390625 429.576171875 -95.525390625 418.015625 -148 c 0
 414.08203125 -163.880859375 410.801757812 -183.514648438 410.801757812 -204.483398438 c 0
 410.801757812 -263.854492188 437.104492188 -333.924804688 549.374023438 -359.80859375 c 1
 547.901017461 -369.6328125 538.774936057 -381.45703125 526.106445312 -389.28125 c 1
 517.046875 -390.194335938 508.325195312 -390.630859375 499.93359375 -390.630859375 c 0
 374.504882812 -390.630859375 319.922851562 -293.12890625 319.922851562 -225.143554688 c 0
 319.922851562 -141.266601562 376.318359375 -33.1728515625 513.015625 16 c 1
 497.015625 2 l 1
 430.030273438 -23.806640625 364.991210938 -35.6728515625 306.096679688 -35.6728515625 c 0
 155.448242188 -35.6728515625 45 41.9677734375 45 162.538085938 c 0
EndSplineSet
Fore
SplineSet
45 162.538085938 m 0
 45 320.041015625 210.904296875 394.005859375 403.557617188 394.005859375 c 0
 461.249023438 394.005859375 503.015625 385 503.015625 385 c 1
 503.015625 387.5 492.015625 375.474609375 492.015625 378 c 0
 492.015625 465.44140625 399.334960938 499.203125 340.072265625 499.203125 c 0
 333.548828125 499.203125 327.469726562 498.79296875 322.015625 498 c 1
 266.015625 409 l 1
 227.368164062 411.520507812 206.760742188 440.239257812 206.760742188 470.63671875 c 0
 206.760742188 540.732216144 276.717224938 571 340.015625 571 c 0
 425.252633458 571 526.80078125 519.046658633 526.80078125 409.775390625 c 0
 526.80078125 369.609077039 519.015625 346.321308109 517.015625 343 c 1
 483.786132812 345.981445312 453.032226562 347.431640625 424.676757812 347.431640625 c 0
 244.092503061 347.431640625 155.227539062 290.808438099 155.227539062 183.088867188 c 0
 155.227539062 90.033203125 237.927734375 22.123046875 371.541992188 22.123046875 c 0
 424.654296875 22.123046875 505.810546875 36.853515625 553.015625 61 c 5
 565.103515625 56.50390625 567.823242188 28.857421875 563.015625 19 c 5
 469.79296875 -22.275390625 429.576171875 -95.525390625 418.015625 -148 c 0
 414.08203125 -163.880859375 410.801757812 -183.514648438 410.801757812 -204.483398438 c 0
 410.801757812 -263.854492188 437.104492188 -333.924804688 549.374023438 -359.80859375 c 1
 547.901017461 -369.6328125 538.774936057 -381.45703125 526.106445312 -389.28125 c 1
 517.046875 -390.194335938 508.325195312 -390.630859375 499.93359375 -390.630859375 c 0
 374.504882812 -390.630859375 319.922851562 -293.12890625 319.922851562 -225.143554688 c 0
 319.922851562 -141.266601562 376.318359375 -33.1728515625 513.015625 16 c 1
 497.015625 2 l 1
 430.030273438 -23.806640625 364.991210938 -35.6728515625 306.096679688 -35.6728515625 c 0
 155.448242188 -35.6728515625 45 41.9677734375 45 162.538085938 c 0
EndSplineSet
EndChar

StartChar: si_Dha
Encoding: 43 3504 46
GlifName: si_D_ha
Width: 845
VWidth: -14
Flags: HMW
AnchorPoint: "si_MaU" 739 211 basechar 0
LayerCount: 3
Back
SplineSet
254.680664062 -40 m 4
 151.012517581 -41.212656981 48.37890625 36.5471136398 48.37890625 192.37890625 c 0
 48.37890625 364.814917227 177.972814592 450.603515625 301.880859375 450.603515625 c 0
 361.659179688 450.603515625 393.442382812 432 393.442382812 432 c 1
 394.306086425 412.052077755 390.771953197 396.291186497 380.442382812 387 c 1
 357.262695312 397.698242188 327.745117188 403.247070312 298.212890625 403.247070312 c 0
 205.085509018 403.247070312 118.438476562 334.483238394 118.438476562 219.955078125 c 0
 118.438476562 130.174879182 167.62844221 64 258.694335938 64 c 0
 338.549257812 64 383.442382812 121.157226562 383.442382812 208 c 1
 396.069335938 212.856445312 410.75390625 215.182617188 424 212.6796875 c 1
 424 113.965820312 476.127551075 60 557.565429688 60 c 0
 674.377602892 60 721.998046875 191.377929688 721.998046875 328.465820312 c 0
 721.998046875 565.487304688 592.2265625 680.056640625 392.532226562 680.056640625 c 0
 252.923828125 680.056640625 157.541992188 608 154.442382812 608 c 1
 139.510742188 623.830078125 133.51953125 653.52734375 138.442382812 674 c 1
 190.578125 706.124023438 280.383224775 739.004882812 406.391601562 739.004882812 c 0
 628.323534956 739.004882812 790.85879754 574.848439666 790.85879754 327.71325897 c 0
 790.85879754 161.296690931 733.641225607 -40 552.311523438 -40 c 0
 451.183621723 -40 397.350218409 14.40625 393.442382812 97 c 1
 411 97 l 1
 403.604492188 10.875 348.517578125 -38.90234375 254.680664062 -40 c 4
EndSplineSet
Fore
SplineSet
254.680664062 -40 m 4
 151.012517581 -41.212656981 48.37890625 36.5471136398 48.37890625 192.37890625 c 0
 48.37890625 364.814917227 177.972814592 450.603515625 301.880859375 450.603515625 c 0
 361.659179688 450.603515625 393.442382812 432 393.442382812 432 c 1
 394.306086425 412.052077755 390.771953197 396.291186497 380.442382812 387 c 1
 357.262695312 397.698242188 327.745117188 403.247070312 298.212890625 403.247070312 c 0
 205.085509018 403.247070312 118.438476562 334.483238394 118.438476562 219.955078125 c 0
 118.438476562 130.174879182 167.62844221 64 258.694335938 64 c 0
 338.549257812 64 383.442382812 121.157226562 383.442382812 208 c 1
 396.069335938 212.856445312 410.75390625 215.182617188 424 212.6796875 c 1
 424 113.965820312 476.127551075 60 557.565429688 60 c 0
 674.377602892 60 721.998046875 191.377929688 721.998046875 328.465820312 c 0
 721.998046875 565.487304688 592.2265625 680.056640625 392.532226562 680.056640625 c 0
 252.923828125 680.056640625 157.541992188 608 154.442382812 608 c 1
 139.510742188 623.830078125 133.51953125 653.52734375 138.442382812 674 c 1
 190.578125 706.124023438 280.383224775 739.004882812 406.391601562 739.004882812 c 0
 628.323534956 739.004882812 790.85879754 574.848439666 790.85879754 327.71325897 c 0
 790.85879754 161.296690931 733.641225607 -40 552.311523438 -40 c 0
 451.183621723 -40 397.350218409 14.40625 393.442382812 97 c 1
 411 97 l 1
 403.604492188 10.875 348.517578125 -38.90234375 254.680664062 -40 c 4
EndSplineSet
EndChar

StartChar: si_Nda
Encoding: 45 3507 47
GlifName: si_N_da
Width: 619
VWidth: -17
Flags: HMW
LayerCount: 3
Back
SplineSet
-13 219.418945312 m 0
 -32.4010329841 410.394084821 80.4908958872 563.844662823 310.908203125 562.3671875 c 0
 365.83106657 562.07717953 403.207413429 559.771713481 409.51171875 558 c 1
 410.51171875 494 l 1
 275.51171875 514 l 5
 137.805361181 508.287248909 37.6474035407 382.89014715 39.51171875 228 c 0
 40.0752563291 179.543392028 80.5851862981 114.757237663 144.51171875 91.7021484375 c 1
 111.51171875 49.6884765625 l 1
 40.655313396 84.8815033959 -4.7063200283 144.917899838 -13 219.418945312 c 0
EndSplineSet
Refer: 45 3503 N 1 0 0 1 0 0 2
Fore
SplineSet
-13 219.418945312 m 0
 -32.4010329841 410.394084821 80.4908958872 563.844662823 310.908203125 562.3671875 c 0
 365.83106657 562.07717953 403.207413429 559.771713481 409.51171875 558 c 1
 410.51171875 494 l 1
 275.51171875 514 l 5
 137.805361181 508.287248909 37.6474035407 382.89014715 39.51171875 228 c 0
 40.0752563291 179.543392028 80.5851862981 114.757237663 144.51171875 91.7021484375 c 1
 111.51171875 49.6884765625 l 1
 40.655313396 84.8815033959 -4.7063200283 144.917899838 -13 219.418945312 c 0
EndSplineSet
Refer: 45 3503 N 1 0 0 1 0 0 2
EndChar

StartChar: si_Pha
Encoding: 47 3509 48
GlifName: si_P_ha
Width: 775
VWidth: -14
Flags: HMW
LayerCount: 3
Back
SplineSet
274.81640625 727.124023438 m 1
 314 748.124023438 l 1
 401.693359375 716.4140625 383.57561281 616.358624281 416.033203125 556.356445312 c 0
 445.755859375 501.41015625 528.594726562 491.95703125 622 533 c 1
 645 496 l 1
 572.212890625 449.369140625 414.286663057 421.567159736 362.029296875 526.12109375 c 0
 329.484375 591.235351562 336.3984375 690.697265625 274.81640625 727.124023438 c 1
362.971679688 33.9716796875 m 0
 575.337110166 33.9716796875 646.384765625 192.056640625 648 346 c 0
 650.489257812 591.587890625 455.252929688 698.0703125 275 726 c 5
 269.071289062 739.521484375 266.564453125 773.75 280 784 c 5
 541.01171875 744.120117188 720 561.309570312 720 331 c 0
 720 100.676757812 584.083007812 -58.578125 361.182617188 -58.578125 c 0
 123.952148438 -58.578125 22.841796875 43.8911661279 22.841796875 153.12109375 c 0
 22.841796875 308.888558903 161.037030919 373.8046875 297.893554688 373.8046875 c 0
 302.850585938 323.663085938 l 0
 171.727539062 323.663085938 92.99609375 275.667462156 92.99609375 183.989257812 c 0
 92.99609375 95.5899659666 190.545298558 33.9716796875 362.971679688 33.9716796875 c 0
276.998046875 373.61328125 m 0
 285.138671875 373.61328125 293.157226562 373.403320312 301 373 c 1
 303.905273438 437.873046875 259.541992188 479.6875 195.030273438 479.6875 c 0
 187.611328125 479.6875 179.92578125 479.134765625 172 478 c 1
 146 397 l 1
 141.353515625 396.298828125 136.861328125 395.95703125 132.543945312 395.95703125 c 0
 98.09375 395.95703125 74.8876953125 417.703125 74.8876953125 451.693359375 c 0
 74.8876953125 517.354492188 137.708007812 540 184 540 c 0
 258.817382812 540 337.422855934 491.442382993 341.139648438 401.66015625 c 0
 342.537109375 367.903320312 330 318 330 318 c 1
 306.952148438 320.931640625 286.91796875 322.381835938 266.174804688 322.381835938 c 0
 266.146484375 322.381835938 276.951558304 373.61328125 276.998046875 373.61328125 c 0
EndSplineSet
Fore
SplineSet
274.81640625 727.124023438 m 1
 314 748.124023438 l 1
 401.693359375 716.4140625 383.57561281 616.358624281 416.033203125 556.356445312 c 0
 445.755859375 501.41015625 528.594726562 491.95703125 622 533 c 1
 645 496 l 1
 572.212890625 449.369140625 414.286663057 421.567159736 362.029296875 526.12109375 c 0
 329.484375 591.235351562 336.3984375 690.697265625 274.81640625 727.124023438 c 1
362.971679688 33.9716796875 m 0
 575.337110166 33.9716796875 646.384765625 192.056640625 648 346 c 0
 650.489257812 591.587890625 455.252929688 698.0703125 275 726 c 5
 269.071289062 739.521484375 266.564453125 773.75 280 784 c 5
 541.01171875 744.120117188 720 561.309570312 720 331 c 0
 720 100.676757812 584.083007812 -58.578125 361.182617188 -58.578125 c 0
 123.952148438 -58.578125 22.841796875 43.8911661279 22.841796875 153.12109375 c 0
 22.841796875 308.888558903 161.037030919 373.8046875 297.893554688 373.8046875 c 0
 302.850585938 323.663085938 l 0
 171.727539062 323.663085938 92.99609375 275.667462156 92.99609375 183.989257812 c 0
 92.99609375 95.5899659666 190.545298558 33.9716796875 362.971679688 33.9716796875 c 0
276.998046875 373.61328125 m 0
 285.138671875 373.61328125 293.157226562 373.403320312 301 373 c 1
 303.905273438 437.873046875 259.541992188 479.6875 195.030273438 479.6875 c 0
 187.611328125 479.6875 179.92578125 479.134765625 172 478 c 1
 146 397 l 1
 141.353515625 396.298828125 136.861328125 395.95703125 132.543945312 395.95703125 c 0
 98.09375 395.95703125 74.8876953125 417.703125 74.8876953125 451.693359375 c 0
 74.8876953125 517.354492188 137.708007812 540 184 540 c 0
 258.817382812 540 337.422855934 491.442382993 341.139648438 401.66015625 c 0
 342.537109375 367.903320312 330 318 330 318 c 1
 306.952148438 320.931640625 286.91796875 322.381835938 266.174804688 322.381835938 c 0
 266.146484375 322.381835938 276.951558304 373.61328125 276.998046875 373.61328125 c 0
EndSplineSet
EndChar

StartChar: si_Ba
Encoding: 48 3510 49
GlifName: si_B_a
Width: 835
VWidth: -24
Flags: HMW
LayerCount: 3
Back
SplineSet
356.719726562 736.170898438 m 0
 608.471985605 736.170898438 780.819335938 576.395507812 780.819335938 314.8359375 c 0
 780.819335938 103.4123831 698.696709765 -57 541.998046875 -57 c 0
 413.805855287 -57 362.73828125 17.5883587458 362.73828125 95.5048828125 c 0
 362.73828125 177.607421875 419.689453125 239.149414062 472 251 c 1
 459.032226562 236 l 1
 405.962890625 314.694335938 343.040039062 337.40234375 285.7265625 337.40234375 c 0
 180.359375 337.40234375 88.2646484375 267.654296875 88.2646484375 129.993164062 c 0
 88.2646484375 46.3876953125 124.56640625 -18.2998046875 197.130859375 -18.2998046875 c 0
 238.424804688 -18.2998046875 257.41015625 15.0498046875 257.41015625 42.18359375 c 0
 257.41015625 75.2587890625 237.345703125 100.944335938 205.645507812 100.944335938 c 0
 180.131835938 100.944335938 156.920898438 81.2216796875 156.920898438 43.95703125 c 0
 156.920898438 16.765625 173.3671875 -16.7626953125 215.888671875 -22.09375 c 1
 218.706054688 -33.3828125 l 1
 160.139648438 -31.2861328125 117.353515625 -4.029296875 117.353515625 46.935546875 c 0
 117.353515625 104.098632812 160.522460938 151.697265625 220.788085938 151.697265625 c 0
 267.067382812 151.697265625 319.776367188 117.247070493 319.776367188 51.1015625 c 0
 319.776367188 -0.927734375 280.615234375 -58.7978515625 199.735351562 -58.7978515625 c 0
 80.111328125 -58.7978515625 35.5205078125 58.345703125 35.5205078125 151.451171875 c 0
 35.5205078125 325.930664062 157.985351562 434.862304688 295.784179688 434.862304688 c 0
 395.133789062 434.862304688 501.083984375 373.58203125 501.083984375 245.984375 c 0
 501.083984375 242.052734375 500.983398438 238.057617188 500.779296875 234 c 1
 488.501953125 220 l 1
 461.44921875 212.868164062 422.287109375 182.701171875 422.287109375 131.16015625 c 0
 422.287109375 78.955078125 474.200446899 50.6875 541.715820312 50.6875 c 0
 652.413777348 50.6875 706.782086862 168.639196666 713.068359375 312.538085938 c 0
 722.068359375 518.55683563 619.599044899 675.955078125 349.274414062 675.955078125 c 0
 232.85546875 675.955078125 134.091351958 611.837923945 134 612 c 2
 128.357862056 610.323798141 106.930664062 645.533203125 121 679 c 5
 121 679 208.478278037 736.170898438 356.719726562 736.170898438 c 0
EndSplineSet
Fore
SplineSet
356.719726562 736.170898438 m 0
 608.471985605 736.170898438 780.819335938 576.395507812 780.819335938 314.8359375 c 0
 780.819335938 103.4123831 698.696709765 -57 541.998046875 -57 c 0
 413.805855287 -57 362.73828125 17.5883587458 362.73828125 95.5048828125 c 0
 362.73828125 177.607421875 419.689453125 239.149414062 472 251 c 1
 459.032226562 236 l 1
 405.962890625 314.694335938 343.040039062 337.40234375 285.7265625 337.40234375 c 0
 180.359375 337.40234375 88.2646484375 267.654296875 88.2646484375 129.993164062 c 0
 88.2646484375 46.3876953125 124.56640625 -18.2998046875 197.130859375 -18.2998046875 c 0
 238.424804688 -18.2998046875 257.41015625 15.0498046875 257.41015625 42.18359375 c 0
 257.41015625 75.2587890625 237.345703125 100.944335938 205.645507812 100.944335938 c 0
 180.131835938 100.944335938 156.920898438 81.2216796875 156.920898438 43.95703125 c 0
 156.920898438 16.765625 173.3671875 -16.7626953125 215.888671875 -22.09375 c 1
 218.706054688 -33.3828125 l 1
 160.139648438 -31.2861328125 117.353515625 -4.029296875 117.353515625 46.935546875 c 0
 117.353515625 104.098632812 160.522460938 151.697265625 220.788085938 151.697265625 c 0
 267.067382812 151.697265625 319.776367188 117.247070493 319.776367188 51.1015625 c 0
 319.776367188 -0.927734375 280.615234375 -58.7978515625 199.735351562 -58.7978515625 c 0
 80.111328125 -58.7978515625 35.5205078125 58.345703125 35.5205078125 151.451171875 c 0
 35.5205078125 325.930664062 157.985351562 434.862304688 295.784179688 434.862304688 c 0
 395.133789062 434.862304688 501.083984375 373.58203125 501.083984375 245.984375 c 0
 501.083984375 242.052734375 500.983398438 238.057617188 500.779296875 234 c 1
 488.501953125 220 l 1
 461.44921875 212.868164062 422.287109375 182.701171875 422.287109375 131.16015625 c 0
 422.287109375 78.955078125 474.200446899 50.6875 541.715820312 50.6875 c 0
 652.413777348 50.6875 706.782086862 168.639196666 713.068359375 312.538085938 c 0
 722.068359375 518.55683563 619.599044899 675.955078125 349.274414062 675.955078125 c 0
 232.85546875 675.955078125 134.091351958 611.837923945 134 612 c 2
 128.357862056 610.323798141 106.930664062 645.533203125 121 679 c 5
 121 679 208.478278037 736.170898438 356.719726562 736.170898438 c 0
EndSplineSet
EndChar

StartChar: si_Bha
Encoding: 49 3511 50
GlifName: si_B_ha
Width: 1023
VWidth: -24
Flags: HMW
LayerCount: 3
Back
SplineSet
22 395 m 5
 402 395 l 1
 402 346 l 1
 106 346 l 1
 22 323 l 1
 18.4090394013 335.272548887 15.8779296875 380.91796875 22 395 c 5
EndSplineSet
Refer: 57 3524 N 1 0 0 1 58 0 2
Fore
SplineSet
22 395 m 5
 402 395 l 1
 402 346 l 1
 106 346 l 1
 22 323 l 1
 18.4090394013 335.272548887 15.8779296875 380.91796875 22 395 c 5
EndSplineSet
Refer: 57 3524 N 1 0 0 1 58 0 2
EndChar

StartChar: si_Ma
Encoding: 50 3512 51
GlifName: si_M_a
Width: 847
VWidth: -14
Flags: HMW
LayerCount: 3
Back
SplineSet
57.5693359375 261.502929688 m 1
 57.0126953125 417.208984375 131.138671875 482.034179688 198.60546875 482.034179688 c 0
 243.801757812 482.034179688 272.220703125 456.068359375 272.819335938 391 c 0
 273.984375 264.290039062 359.704101562 250.401367188 420.0703125 250.998046875 c 0
 504.4765625 251.78125 547.6171875 295.732421875 549.05078125 358.48046875 c 0
 550.657226562 426.975585938 501.015625 480.262695312 425.439453125 469.001953125 c 0
 391.262695312 463.909179688 368.991210938 436.8359375 368.991210938 402.051757812 c 0
 368.991210938 383.942382812 381.217773438 357.55859375 415.282226562 357.55859375 c 0
 450.533203125 357.55859375 467.998046875 388.53125 467.998046875 415.853515625 c 0
 467.998046875 438.291015625 462.456054688 456.45703125 451 474.561523438 c 1
 477 473.561523438 l 1
 492.55078125 458.829101562 503.123046875 433.040039062 503.123046875 409.515625 c 0
 503.123046875 359.837890625 471.30078125 311.997070312 411.306640625 311.997070312 c 0
 368.9296875 311.997070312 321.993164062 337.249023438 321.993164062 398.010742188 c 0
 321.993164062 451.715820312 364.728515625 504 439 504 c 0
 534.8046875 504 587.001953125 436.70703125 587.001953125 360.115234375 c 0
 587.001953125 275.466796875 531.889648438 186.986328125 412.486328125 186.986328125 c 0
 364.390625 186.986328125 314.6328125 200.767578125 279 234.584960938 c 0
 248.178710938 262.171875 232.578125 310.588867188 231 375 c 0
 229.736328125 424.258789062 218.150390625 444.005859375 192.852539062 444.005859375 c 0
 144.536132812 444.005859375 114.169921875 379.075195312 115.3828125 287.059570312 c 0
 117.352539062 137.694335938 251.499023438 45.0390625 417.830078125 43.9912109375 c 0
 640.590820312 42.5888671875 724.75 180.20703125 730.274414062 329 c 0
 737.161132812 514.502929688 635.34765625 679.03515625 407.681640625 679.03515625 c 0
 292.384765625 679.03515625 203.764648438 611 201 611 c 1
 191.29296875 617.779296875 178.869140625 651.081054688 186 678 c 1
 186 678 271.182617188 736.00390625 414.225585938 732.00390625 c 4
 653.69140625 725.307617188 792.955078125 548.2265625 792.955078125 334 c 0
 792.955078125 95.5927734375 647.450195312 -58 423 -58 c 0
 193.950195312 -58 57.93359375 82.853515625 57.5693359375 261.502929688 c 1
EndSplineSet
Fore
SplineSet
32.5693359375 263.502929688 m 1
 31.9892578125 432.5703125 118.493164062 508.629882812 188.60546875 512.034179688 c 0
 227.416015625 513.918945312 259.130859375 494.333984375 268 467 c 1
 272.6953125 456.442382812 268.434570312 439.600585938 268.819335938 414 c 0
 270.170898438 290.05078125 359.706054688 262.208984375 420.0703125 262.998046875 c 0
 484.4765625 263.83984375 547.469726562 311.065429688 549.05078125 378.48046875 c 0
 550.657226562 446.975585938 501.015625 500.263671875 425.439453125 489.001953125 c 0
 391.262695312 483.909179688 368.991210938 456.8359375 368.991210938 422.051757812 c 0
 368.991210938 403.942382812 386.217773438 378.55859375 420.282226562 378.55859375 c 0
 462.219726562 378.55859375 477.998046875 408.53125 477.998046875 435.853515625 c 0
 477.998046875 458.291015625 475.716796875 476.45703125 471 494.561523438 c 1
 477 493.561523438 l 1
 510.408203125 481.12890625 533.123046875 459.3671875 533.123046875 439.515625 c 0
 533.123046875 374.555664062 498.90234375 313.997070312 419.306640625 313.997070312 c 0
 372.184570312 313.997070312 311.993164062 343.120117188 311.993164062 418.010742188 c 0
 311.993164062 481.849609375 362.033203125 544 449 544 c 0
 555.162109375 544 613.001953125 467.352539062 613.001953125 380.115234375 c 0
 613.001953125 275.909179688 551.8359375 168.018554688 412.486328125 166.986328125 c 0
 277.291015625 165.880859375 205.108398438 246.766601562 204 375 c 0
 203.53125 424.258789062 196.234375 444.005859375 179.852539062 444.005859375 c 0
 148.880859375 444.005859375 134.462890625 403.623046875 135.3828125 335.059570312 c 4
 137.221679688 197.984375 262.499023438 103.041015625 417.830078125 101.991210938 c 0
 596.33203125 100.78515625 687.402049005 215.078136226 692.274414062 343 c 0
 698.734375 512.603515625 621.233398438 639.03515625 397.681640625 639.03515625 c 4
 282.384765625 639.03515625 203.764648438 581 201 581 c 1
 191.29296875 589.802734375 178.869140625 643.045898438 186 678 c 1
 186 678 269.759155249 743.6049494 427.225585938 739.00390625 c 4
 662.1484375 732.139648438 802.955078125 554.609375 802.955078125 335 c 0
 802.955078125 96.5927734375 651.516601562 -58 421 -58 c 0
 194.45703125 -58 32.9296875 82.03125 32.5693359375 263.502929688 c 1
EndSplineSet
EndChar

StartChar: si_Mba
Encoding: 51 3513 52
GlifName: si_M_ba
Width: 864
VWidth: -14
Flags: HMW
LayerCount: 3
Back
SplineSet
205.852539062 454.005859375 m 0
 233.803204451 454.005859375 242.759034668 433.427770076 248 391 c 0
 254.830838056 335.701556271 268.247450388 295.94237603 297 269.584960938 c 0
 331.564999753 237.89928233 379.831719013 224.986328125 426.486328125 224.986328125 c 0
 538.363569733 224.986328125 590.001953125 302.223235902 590.001953125 376.115234375 c 0
 590.001953125 452.70658352 536.394132508 520 438 520 c 0
 366.267566929 520 324.993164062 467.715820312 324.993164062 414.010742188 c 0
 324.993164062 351.836115554 371.015456832 325.997070312 407.306640625 325.997070312 c 0
 471.874293247 325.997070312 506.123046875 374.819054066 506.123046875 425.515625 c 0
 506.123046875 449.040280755 495.550383764 474.828923076 480 489.561523438 c 1
 454 490.561523438 l 1
 465.456054688 472.457229511 470.998046875 454.291413674 470.998046875 431.853515625 c 0
 470.998046875 404.53125 453.532817296 373.55859375 418.282226562 373.55859375 c 0
 384.217966138 373.55859375 371.991210938 399.942501537 371.991210938 418.051757812 c 0
 371.991210938 450.757911637 394.281463237 476.096542872 428.439453125 481.001953125 c 0
 504.015623489 491.855405632 553.56362217 440.497375915 552.05078125 374.48046875 c 0
 550.706500311 315.819132488 510.241810902 274.690184563 431.0703125 273.998046875 c 0
 371.114077662 273.473893984 285.939295436 297.041738546 284.819335938 397 c 0
 284.010232216 469.213862649 256.193157738 498.034179688 211.60546875 498.034179688 c 0
 124.372671991 498.034179688 50.5805112478 396.835629819 48.9140625 242.122070312 c 1
 48.9140625 130.210177103 91.1175208307 -62.017578125 247.915039062 -62.017578125 c 0
 313.910643768 -62.017578125 384.005859375 -29.5061975943 384.005859375 69 c 0
 384.005859375 69.5627510369 347.991210938 76.3088445645 347.991210938 99 c 0
 347.991210938 124.932098259 377.379604291 135.1015625 410.752929688 135.1015625 c 0
 442.497072774 135.1015625 475.021484375 124.991671676 475.021484375 99 c 0
 475.021484375 76.4270187131 433 69 433 69 c 1
 430.131665826 -28.7576319761 488.077123094 -63.013671875 567.75390625 -63.013671875 c 0
 748.831667446 -63.013671875 809.024414062 189.441084981 809.024414062 327.23046875 c 0
 809.024414062 542.883476947 645.539136323 743.002929688 399.252929688 743.002929688 c 0
 247.35921809 743.002929688 138 664 138 664 c 1
 163 617 l 1
 166.138473252 617 254.36090417 682.588337589 389 684 c 0
 391.423989222 684.025415014 393.832818422 684.038085938 396.2265625 684.038085938 c 0
 626.288225583 684.038085938 738.29296875 533.004958422 738.29296875 325.692382812 c 0
 738.29296875 194.342093258 682.68660063 35 553.271484375 35 c 0
 509.503962434 35 488.729801384 44.7586932295 477 56 c 1
 496.110399433 60.905325336 526 77.6028891261 526 111 c 0
 526 149.26130852 481.050220731 183.0390625 414.249023438 183.0390625 c 0
 339.247467821 183.0390625 294.9765625 147.30129695 294.9765625 107 c 0
 294.9765625 78.1966179958 318.5703125 63.8141249246 339 56 c 1
 323.938792257 42.5627366219 309.269203332 35 273.651367188 35 c 0
 155.778896241 35 111.462975923 159.339365892 108.997070312 265.384765625 c 0
 107 351.268068964 147.634298274 454.005859375 205.852539062 454.005859375 c 0
EndSplineSet
Fore
SplineSet
205.852539062 454.005859375 m 0
 233.803204451 454.005859375 242.759034668 433.427770076 248 391 c 0
 254.830838056 335.701556271 268.247450388 295.94237603 297 269.584960938 c 0
 331.564999753 237.89928233 379.831719013 224.986328125 426.486328125 224.986328125 c 0
 538.363569733 224.986328125 590.001953125 302.223235902 590.001953125 376.115234375 c 0
 590.001953125 452.70658352 536.394132508 520 438 520 c 0
 366.267566929 520 324.993164062 467.715820312 324.993164062 414.010742188 c 0
 324.993164062 351.836115554 371.015456832 325.997070312 407.306640625 325.997070312 c 0
 471.874293247 325.997070312 506.123046875 374.819054066 506.123046875 425.515625 c 0
 506.123046875 449.040280755 495.550383764 474.828923076 480 489.561523438 c 1
 454 490.561523438 l 1
 465.456054688 472.457229511 470.998046875 454.291413674 470.998046875 431.853515625 c 0
 470.998046875 404.53125 453.532817296 373.55859375 418.282226562 373.55859375 c 0
 384.217966138 373.55859375 371.991210938 399.942501537 371.991210938 418.051757812 c 0
 371.991210938 450.757911637 394.281463237 476.096542872 428.439453125 481.001953125 c 0
 504.015623489 491.855405632 553.56362217 440.497375915 552.05078125 374.48046875 c 0
 550.706500311 315.819132488 510.241810902 274.690184563 431.0703125 273.998046875 c 0
 371.114077662 273.473893984 285.939295436 297.041738546 284.819335938 397 c 0
 284.010232216 469.213862649 256.193157738 498.034179688 211.60546875 498.034179688 c 0
 124.372671991 498.034179688 50.5805112478 396.835629819 48.9140625 242.122070312 c 1
 48.9140625 130.210177103 91.1175208307 -62.017578125 247.915039062 -62.017578125 c 0
 313.910643768 -62.017578125 384.005859375 -29.5061975943 384.005859375 69 c 0
 384.005859375 69.5627510369 347.991210938 76.3088445645 347.991210938 99 c 0
 347.991210938 124.932098259 377.379604291 135.1015625 410.752929688 135.1015625 c 0
 442.497072774 135.1015625 475.021484375 124.991671676 475.021484375 99 c 0
 475.021484375 76.4270187131 433 69 433 69 c 1
 430.131665826 -28.7576319761 488.077123094 -63.013671875 567.75390625 -63.013671875 c 0
 748.831667446 -63.013671875 809.024414062 189.441084981 809.024414062 327.23046875 c 0
 809.024414062 542.883476947 645.539136323 743.002929688 399.252929688 743.002929688 c 0
 247.35921809 743.002929688 138 664 138 664 c 1
 163 617 l 1
 166.138473252 617 254.36090417 682.588337589 389 684 c 0
 391.423989222 684.025415014 393.832818422 684.038085938 396.2265625 684.038085938 c 0
 626.288225583 684.038085938 738.29296875 533.004958422 738.29296875 325.692382812 c 0
 738.29296875 194.342093258 682.68660063 35 553.271484375 35 c 0
 509.503962434 35 488.729801384 44.7586932295 477 56 c 1
 496.110399433 60.905325336 526 77.6028891261 526 111 c 0
 526 149.26130852 481.050220731 183.0390625 414.249023438 183.0390625 c 0
 339.247467821 183.0390625 294.9765625 147.30129695 294.9765625 107 c 0
 294.9765625 78.1966179958 318.5703125 63.8141249246 339 56 c 1
 323.938792257 42.5627366219 309.269203332 35 273.651367188 35 c 0
 155.778896241 35 111.462975923 159.339365892 108.997070312 265.384765625 c 0
 107 351.268068964 147.634298274 454.005859375 205.852539062 454.005859375 c 0
EndSplineSet
EndChar

StartChar: si_Ya
Encoding: 52 3514 53
GlifName: si_Y_a
Width: 856
VWidth: -24
Flags: HMW
AnchorPoint: "si_hal" 696.004 536 basechar 0
LayerCount: 3
Back
SplineSet
619.331054688 497 m 0
 564.297851562 496.932617188 516.450195312 467.916992188 516.450195312 406.686523438 c 0
 516.450195312 370.279296875 532.00390625 358 532.00390625 358 c 1
 496.00390625 371 l 1
 512.00390625 384 l 1
 540.548828125 393.658203125 570.609375 398.572265625 600.201171875 398.572265625 c 0
 707.694335938 398.572265625 809.00390625 327.977316317 809.00390625 178 c 0
 809.00390625 41.892578125 726.3125 -51 602.00390625 -51 c 0
 502.381835938 -51 428.90625 5 425.00390625 108 c 1
 424.581054688 107.366210938 425.810546875 107.133789062 427.994140625 107.133789062 c 0
 433.959960938 107.133789062 447.046875 108.866210938 453.012695312 108.866210938 c 0
 455.196289062 108.866210938 456.426757812 108.633789062 456.00390625 108 c 0
 449.033203125 26.4521484375 387.41015625 -50.0048828125 267.170898438 -50.0048828125 c 4
 114.415687466 -50.0048828125 35.3857421875 50.4091796875 34 177.602539062 c 4
 32 361.233398438 150.5 459.723632812 280.00390625 464 c 0
 298.721679688 464.618164062 318.2734375 462.861328125 335.00390625 459 c 1
 339.646484375 445.506835938 335.203125 422.823242188 327.00390625 411 c 1
 311.58984375 415.65234375 298.706122437 418.723632812 282.352539062 418.723632812 c 0
 186.597315137 418.723632812 94.982421875 365.325195312 92.982421875 225.434570312 c 0
 91.5768355963 127.120398801 154.057617188 57 266.125976562 57 c 0
 343.84765625 57 416.770507812 94.0673828125 419.00390625 197 c 1
 424.307617188 199.543945312 443.500976562 205.254882812 458.00390625 202 c 1
 458.00390625 104.301757812 524.532226562 57 611.00390625 57 c 0
 698.963867188 57 748.018554688 128.87890625 749.018554688 201.9921875 c 0
 749.987075523 272.803923759 704.260742188 357.3828125 592.330078125 357.3828125 c 0
 563.478515625 357.3828125 530.165039062 351.846679688 492.00390625 339 c 1
 487.001953125 357.750976562 481.6953125 377.517578125 481.6953125 408.8359375 c 0
 481.6953125 507.3828125 560.498046875 566.94921875 644.267578125 567 c 0
 715.37109375 567 781.00390625 531.901367188 781.00390625 452 c 0
 781.00390625 356 688.00390625 330 688.00390625 330 c 1
 663.00390625 347 l 1
 663.00390625 347 715.010742188 361.586914062 715.010742188 421.00390625 c 0
 715.010742188 468.297851562 669.942382812 497 619.331054688 497 c 0
EndSplineSet
Fore
SplineSet
619.331054688 497 m 0
 564.297851562 496.932617188 516.450195312 467.916992188 516.450195312 406.686523438 c 0
 516.450195312 370.279296875 532.00390625 358 532.00390625 358 c 1
 496.00390625 371 l 1
 512.00390625 384 l 1
 540.548828125 393.658203125 570.609375 398.572265625 600.201171875 398.572265625 c 0
 707.694335938 398.572265625 809.00390625 327.977316317 809.00390625 178 c 0
 809.00390625 41.892578125 726.3125 -51 602.00390625 -51 c 0
 502.381835938 -51 428.90625 5 425.00390625 108 c 1
 424.581054688 107.366210938 425.810546875 107.133789062 427.994140625 107.133789062 c 0
 433.959960938 107.133789062 447.046875 108.866210938 453.012695312 108.866210938 c 0
 455.196289062 108.866210938 456.426757812 108.633789062 456.00390625 108 c 0
 449.033203125 26.4521484375 387.41015625 -50.0048828125 267.170898438 -50.0048828125 c 4
 114.415687466 -50.0048828125 35.3857421875 50.4091796875 34 177.602539062 c 4
 32 361.233398438 150.5 459.723632812 280.00390625 464 c 0
 298.721679688 464.618164062 318.2734375 462.861328125 335.00390625 459 c 1
 339.646484375 445.506835938 335.203125 422.823242188 327.00390625 411 c 1
 311.58984375 415.65234375 298.706122437 418.723632812 282.352539062 418.723632812 c 0
 186.597315137 418.723632812 94.982421875 365.325195312 92.982421875 225.434570312 c 0
 91.5768355963 127.120398801 154.057617188 57 266.125976562 57 c 0
 343.84765625 57 416.770507812 94.0673828125 419.00390625 197 c 1
 424.307617188 199.543945312 443.500976562 205.254882812 458.00390625 202 c 1
 458.00390625 104.301757812 524.532226562 57 611.00390625 57 c 0
 698.963867188 57 748.018554688 128.87890625 749.018554688 201.9921875 c 0
 749.987075523 272.803923759 704.260742188 357.3828125 592.330078125 357.3828125 c 0
 563.478515625 357.3828125 530.165039062 351.846679688 492.00390625 339 c 1
 487.001953125 357.750976562 481.6953125 377.517578125 481.6953125 408.8359375 c 0
 481.6953125 507.3828125 560.498046875 566.94921875 644.267578125 567 c 0
 715.37109375 567 781.00390625 531.901367188 781.00390625 452 c 0
 781.00390625 356 688.00390625 330 688.00390625 330 c 1
 663.00390625 347 l 1
 663.00390625 347 715.010742188 361.586914062 715.010742188 421.00390625 c 0
 715.010742188 468.297851562 669.942382812 497 619.331054688 497 c 0
EndSplineSet
EndChar

StartChar: si_La
Encoding: 54 3517 54
GlifName: si_L_a
Width: 884
VWidth: -5
Flags: HMW
LayerCount: 3
Back
SplineSet
351 358.60546875 m 1
 633 358.60546875 l 1
 633 314 l 1
 351 314 l 1
 351 358.60546875 l 1
490.178710938 -287.106445312 m 0
 207.627774705 -287.106445312 44.9970703125 -123.983398438 44.9970703125 114.818359375 c 4
 44.9970703125 391.477539062 251.14453125 564 497 564 c 0
 726.760742188 564 835 427.298828125 835 306 c 0
 835 175.670898438 744.067382812 105 642 105 c 0
 533.111328125 105 482.982421875 168.331054688 482.982421875 227.053710938 c 0
 482.982421875 297.41796875 536.122070312 332.97265625 574 337 c 1
 632 315 l 1
 555.045898438 315 533 285.536132812 533 249 c 0
 533 204.401367188 588.888671875 180.953125 649.306640625 180.953125 c 0
 719.349609375 180.953125 777 222.991210938 777 315 c 0
 777 416.595703125 683.428710938 509 494.935546875 509 c 0
 279.943359375 509 146.557617188 364.627929688 146.557617188 152.208007812 c 4
 146.557617188 -67.6474609375 282.821918717 -223.764648438 511.658203125 -223.764648438 c 0
 651.096179904 -223.764648438 734.854492188 -159.587890625 774 -121 c 1
 795.65625 -128.8203125 811.541015625 -149.8515625 818 -170 c 1
 775.883789062 -214.029296875 670.617147377 -287.106445312 490.178710938 -287.106445312 c 0
EndSplineSet
Fore
SplineSet
351 358.60546875 m 1
 633 358.60546875 l 1
 633 314 l 1
 351 314 l 1
 351 358.60546875 l 1
490.178710938 -287.106445312 m 0
 207.627774705 -287.106445312 44.9970703125 -123.983398438 44.9970703125 114.818359375 c 4
 44.9970703125 391.477539062 251.14453125 564 497 564 c 0
 726.760742188 564 835 427.298828125 835 306 c 0
 835 175.670898438 744.067382812 105 642 105 c 0
 533.111328125 105 482.982421875 168.331054688 482.982421875 227.053710938 c 0
 482.982421875 297.41796875 536.122070312 332.97265625 574 337 c 1
 632 315 l 1
 555.045898438 315 533 285.536132812 533 249 c 0
 533 204.401367188 588.888671875 180.953125 649.306640625 180.953125 c 0
 719.349609375 180.953125 777 222.991210938 777 315 c 0
 777 416.595703125 683.428710938 509 494.935546875 509 c 0
 279.943359375 509 146.557617188 364.627929688 146.557617188 152.208007812 c 4
 146.557617188 -67.6474609375 282.821918717 -223.764648438 511.658203125 -223.764648438 c 0
 651.096179904 -223.764648438 734.854492188 -159.587890625 774 -121 c 1
 795.65625 -128.8203125 811.541015625 -149.8515625 818 -170 c 1
 775.883789062 -214.029296875 670.617147377 -287.106445312 490.178710938 -287.106445312 c 0
EndSplineSet
EndChar

StartChar: si_Sha
Encoding: 56 3521 55
GlifName: si_S_ha
Width: 958
VWidth: -24
Flags: HMW
AnchorPoint: "si_hal" 711.005 511 basechar 0
LayerCount: 3
Back
SplineSet
911.875 267.375 m 0
 911.875 100.338867188 833.881835938 -55.82421875 652.806640625 -55.82421875 c 0
 603.78125 -55.82421875 599.185546875 -51.7451171875 581.6875 -42.138671875 c 1
 576.444335938 -26.31640625 575.590820312 -6.4951171875 590.45703125 11.328125 c 1
 611.040039062 -4.1640625 632.899414062 -9.22265625 675.764648438 -5.3876953125 c 0
 782.466796875 4.1591796875 845.627929688 112.291015625 845.627929688 239.600585938 c 0
 845.627929688 368.616210938 754.774414062 458.555664062 638.450195312 458.555664062 c 0
 539.291992188 458.555664062 411.18359375 407.1953125 404.8828125 187.823242188 c 1
 359.615234375 187.823242188 l 1
 365.23046875 435.693359375 506.619140625 549.653320312 650.456054688 549.653320312 c 0
 824.030273438 549.653320312 911.875 413.411132812 911.875 267.375 c 0
308.604492188 -55.0390625 m 0
 141.6875 -55.0390625 35 56.1298828125 35 211.564453125 c 0
 35 435.215820312 196.741210938 545.938476562 323.004882812 548 c 1
 330.559570312 529.03125 324.536132812 494.330078125 319.004882812 484.879882812 c 1
 233.756835938 484.879882812 105.641601562 424.635742188 101.971679688 256.94921875 c 0
 99.306640625 135.1171875 178.282226562 36.76953125 310.431640625 34.2587890625 c 0
 417.211914062 32.2587890625 495.021484375 83.4892578125 495.021484375 181.946289062 c 0
 495.021484375 237.381835938 454.079101562 277 415.004882812 277 c 1
 426.004882812 321 l 1
 473.494140625 319.794921875 547.0078125 275.235351562 547.0078125 174.76953125 c 0
 547.0078125 56.0498046875 462.547851562 -55.0390625 308.604492188 -55.0390625 c 0
864.334960938 287.131835938 m 1
 864.334960938 202.45703125 l 1
 862.03515625 202.942382812 856.307617188 203.176757812 853.130859375 203.176757812 c 4
 779.669921875 203.176757812 724.51171875 173.6796875 720.004882812 114 c 4
 713.042922638 21.8094669143 676.09375 -27.443359375 615.946289062 -23.029296875 c 1
 590.600585938 9.970703125 l 1
 688.366210938 61.73828125 643.540806223 120.203465236 660.790039062 176.172851562 c 4
 689.017873788 267.765016948 835.774414062 237.546875 864.334960938 287.131835938 c 1
EndSplineSet
Fore
SplineSet
911.875 267.375 m 0
 911.875 100.338867188 833.881835938 -55.82421875 652.806640625 -55.82421875 c 0
 603.78125 -55.82421875 599.185546875 -51.7451171875 581.6875 -42.138671875 c 1
 576.444335938 -26.31640625 575.590820312 -6.4951171875 590.45703125 11.328125 c 1
 611.040039062 -4.1640625 632.899414062 -9.22265625 675.764648438 -5.3876953125 c 0
 782.466796875 4.1591796875 845.627929688 112.291015625 845.627929688 239.600585938 c 0
 845.627929688 368.616210938 754.774414062 458.555664062 638.450195312 458.555664062 c 0
 539.291992188 458.555664062 411.18359375 407.1953125 404.8828125 187.823242188 c 1
 359.615234375 187.823242188 l 1
 365.23046875 435.693359375 506.619140625 549.653320312 650.456054688 549.653320312 c 0
 824.030273438 549.653320312 911.875 413.411132812 911.875 267.375 c 0
308.604492188 -55.0390625 m 0
 141.6875 -55.0390625 35 56.1298828125 35 211.564453125 c 0
 35 435.215820312 196.741210938 545.938476562 323.004882812 548 c 1
 330.559570312 529.03125 324.536132812 494.330078125 319.004882812 484.879882812 c 1
 233.756835938 484.879882812 105.641601562 424.635742188 101.971679688 256.94921875 c 0
 99.306640625 135.1171875 178.282226562 36.76953125 310.431640625 34.2587890625 c 0
 417.211914062 32.2587890625 495.021484375 83.4892578125 495.021484375 181.946289062 c 0
 495.021484375 237.381835938 454.079101562 277 415.004882812 277 c 1
 426.004882812 321 l 1
 473.494140625 319.794921875 547.0078125 275.235351562 547.0078125 174.76953125 c 0
 547.0078125 56.0498046875 462.547851562 -55.0390625 308.604492188 -55.0390625 c 0
864.334960938 287.131835938 m 1
 864.334960938 202.45703125 l 1
 862.03515625 202.942382812 856.307617188 203.176757812 853.130859375 203.176757812 c 4
 779.669921875 203.176757812 724.51171875 173.6796875 720.004882812 114 c 4
 713.042922638 21.8094669143 676.09375 -27.443359375 615.946289062 -23.029296875 c 1
 590.600585938 9.970703125 l 1
 688.366210938 61.73828125 643.540806223 120.203465236 660.790039062 176.172851562 c 4
 689.017873788 267.765016948 835.774414062 237.546875 864.334960938 287.131835938 c 1
EndSplineSet
EndChar

StartChar: si_Ssa
Encoding: 57 3522 56
GlifName: si_S_sa
Width: 788
VWidth: -24
Flags: HMW
LayerCount: 3
Back
SplineSet
539.887695312 207.728515625 m 4
 539.887695312 152.852539062 478.927734375 105.927734375 381.911132812 105.927734375 c 0
 283.526367188 105.927734375 231.000976562 148.1875 231.000976562 200.344726562 c 0
 231.000976562 271.924804688 318.9140625 289.713867188 389.016601562 293 c 0
 547.551757812 300.431640625 574.90234375 327.166015625 621.016601562 345.561523438 c 1
 648.016601562 323 l 1
 557.806640625 270.456054688 522.510742188 263.752929688 399.016601562 258 c 0
 368.403320312 256.57421875 286.0078125 257.661132812 286.0078125 214.274414062 c 0
 286.0078125 188.41796875 322.712890625 167.999023438 388.17578125 167.999023438 c 0
 427.424804688 167.999023438 499.26171875 182.827148438 499.30078125 224.108398438 c 0
 499.30078125 257.055664062 470.2890625 274.209960938 458.016601562 282 c 1
 492.016601562 302 l 1
 491.6640625 280.567382812 539.887695312 274.552734375 539.887695312 207.728515625 c 4
EndSplineSet
Refer: 1 3508 N 1 0 0 1 0 0 2
Fore
SplineSet
569.887695312 167.728515625 m 0
 569.887695312 112.852539062 528.927734375 25.927734375 381.911132812 25.927734375 c 0
 253.526367188 25.927734375 211.000976562 98.1875 211.000976562 150.344726562 c 0
 211.000976562 261.924804688 318.9140625 299.713867188 389.016601562 303 c 0
 547.551757812 310.431640625 564.90234375 327.166015625 611.016601562 345.561523438 c 1
 658.016601562 323 l 1
 567.806640625 270.456054688 522.510742188 243.752929688 399.016601562 238 c 0
 368.403320312 236.57421875 286.0078125 247.661132812 286.0078125 164.274414062 c 4
 286.0078125 108.41796875 322.712890625 79.9990234375 408.17578125 79.9990234375 c 0
 487.424804688 79.9990234375 509.26171875 142.827148438 509.30078125 184.108398438 c 0
 509.30078125 217.055664062 470.2890625 274.209960938 458.016601562 282 c 1
 492.016601562 302 l 1
 491.6640625 280.567382812 569.887695312 234.552734375 569.887695312 167.728515625 c 0
EndSplineSet
Refer: 1 3508 N 1 0 0 1 0 0 2
EndChar

StartChar: si_Ha
Encoding: 59 3524 57
GlifName: si_H_a
Width: 992
VWidth: -24
Flags: HMW
LayerCount: 3
Back
SplineSet
941.875 267.375 m 0
 941.875 100.338867188 859.881835938 -55.8251953125 678.806640625 -56.82421875 c 0
 629.782226562 -57.0947265625 598.185546875 -49.7451171875 580.6875 -40.138671875 c 1
 573.841796875 -32.3212890625 570.577148438 2.1025390625 590.45703125 22.328125 c 1
 607.998046875 9.125 640.659631961 -0.585140291038 686.151367188 0.5595703125 c 0
 817.171875 3.8564453125 870.627929688 96.849609375 870.627929688 229.600585938 c 0
 870.627929688 360.360351562 795.00390625 450.555664062 673.450195312 450.555664062 c 0
 561.557617188 450.555664062 433.315429688 391.236328125 426.8828125 187.823242188 c 1
 414.460286458 185.352597871 402.037760417 184.575791931 389.615234375 187.823242188 c 1
 395.288085938 431.571289062 538.135742188 542.653320312 683.456054688 542.653320312 c 0
 855.038085938 542.653320312 941.875 410.295898438 941.875 267.375 c 0
309.004882812 359 m 1
 311.176757812 369.696289062 312.232421875 379.828125 312.232421875 389.356445312 c 0
 312.232421875 451.520507812 267.305664062 487.989257812 194.43359375 487.989257812 c 0
 187.536132812 487.989257812 180.388671875 487.662109375 173.004882812 487 c 1
 123.004882812 405 l 1
 93.0048828125 408 69.0048828125 432 69.0048828125 469 c 0
 69.0048828125 536 141.004882812 561 194.004882812 561 c 0
 274.004882812 561 349.667641524 511.983730867 354.004882812 427 c 0
 354.295898438 421.297851562 354.431640625 415.94921875 354.431640625 410.916992188 c 0
 354.431640625 371.640625 346.209960938 351.575195312 340.004882812 332 c 1
 309.004882812 359 l 1
436.004882812 284 m 1
 471.786132812 284.208984375 536.006835938 252.201171875 536.006835938 160.96875 c 0
 536.006835938 46.61328125 451.524414062 -54.0048828125 291.603515625 -54.0048828125 c 0
 162.872070312 -54.0048828125 45 32.916015625 45 155.564453125 c 0
 45 315.586914062 176.096679688 395.521484375 315.88671875 395.521484375 c 0
 322.245117188 395.521484375 328.622070312 395.34765625 335.004882812 395 c 1
 339.004882812 332.879882812 l 1
 318.116992814 337.4453125 298.130967013 339.590820312 279.458007812 339.590820312 c 0
 175.046378299 339.590820312 106.96484375 274.622766617 106.96484375 189.870117188 c 0
 106.96484375 79.6086908498 201.34507608 39.2354341916 292.904296875 37.578125 c 0
 402.91015625 35.5869140625 489.045898438 73.490234375 489.045898438 158.8671875 c 0
 489.045898438 214.016601562 454.663945955 246.91796875 414.438476562 246.91796875 c 1
 436.004882812 284 l 1
EndSplineSet
Fore
SplineSet
941.875 267.375 m 0
 941.875 100.338867188 859.881835938 -55.8251953125 678.806640625 -56.82421875 c 0
 629.782226562 -57.0947265625 598.185546875 -49.7451171875 580.6875 -40.138671875 c 1
 573.841796875 -32.3212890625 570.577148438 2.1025390625 590.45703125 22.328125 c 1
 607.998046875 9.125 640.659631961 -0.585140291038 686.151367188 0.5595703125 c 0
 817.171875 3.8564453125 870.627929688 96.849609375 870.627929688 229.600585938 c 0
 870.627929688 360.360351562 795.00390625 450.555664062 673.450195312 450.555664062 c 0
 561.557617188 450.555664062 433.315429688 391.236328125 426.8828125 187.823242188 c 1
 414.460286458 185.352597871 402.037760417 184.575791931 389.615234375 187.823242188 c 1
 395.288085938 431.571289062 538.135742188 542.653320312 683.456054688 542.653320312 c 0
 855.038085938 542.653320312 941.875 410.295898438 941.875 267.375 c 0
309.004882812 359 m 1
 311.176757812 369.696289062 312.232421875 379.828125 312.232421875 389.356445312 c 0
 312.232421875 451.520507812 267.305664062 487.989257812 194.43359375 487.989257812 c 0
 187.536132812 487.989257812 180.388671875 487.662109375 173.004882812 487 c 1
 123.004882812 405 l 1
 93.0048828125 408 69.0048828125 432 69.0048828125 469 c 0
 69.0048828125 536 141.004882812 561 194.004882812 561 c 0
 274.004882812 561 349.667641524 511.983730867 354.004882812 427 c 0
 354.295898438 421.297851562 354.431640625 415.94921875 354.431640625 410.916992188 c 0
 354.431640625 371.640625 346.209960938 351.575195312 340.004882812 332 c 1
 309.004882812 359 l 1
436.004882812 284 m 1
 471.786132812 284.208984375 536.006835938 252.201171875 536.006835938 160.96875 c 0
 536.006835938 46.61328125 451.524414062 -54.0048828125 291.603515625 -54.0048828125 c 0
 162.872070312 -54.0048828125 45 32.916015625 45 155.564453125 c 0
 45 315.586914062 176.096679688 395.521484375 315.88671875 395.521484375 c 0
 322.245117188 395.521484375 328.622070312 395.34765625 335.004882812 395 c 1
 339.004882812 332.879882812 l 1
 318.116992814 337.4453125 298.130967013 339.590820312 279.458007812 339.590820312 c 0
 175.046378299 339.590820312 106.96484375 274.622766617 106.96484375 189.870117188 c 0
 106.96484375 79.6086908498 201.34507608 39.2354341916 292.904296875 37.578125 c 0
 402.91015625 35.5869140625 489.045898438 73.490234375 489.045898438 158.8671875 c 0
 489.045898438 214.016601562 454.663945955 246.91796875 414.438476562 246.91796875 c 1
 436.004882812 284 l 1
EndSplineSet
EndChar

StartChar: si_Lla
Encoding: 60 3525 58
GlifName: si_L_la
Width: 854
VWidth: -5
Flags: HMW
AnchorPoint: "si_hal" 656 547 basechar 0
LayerCount: 3
Back
SplineSet
487 402 m 1
 488.728515625 456.736328125 531.994140625 558.002929688 626.9765625 558.002929688 c 0
 702.274414062 558.002929688 757.592773438 502.329101562 757.592773438 401.178710938 c 0
 757.592773438 371.391601562 754.94921875 350.35546875 752.662109375 326.857421875 c 1
 705.856445312 328.9296875 561.114257812 337.813476562 431.118164062 337.813476562 c 0
 384.883789062 337.813476562 338.717773438 334.2265625 300 322 c 0
 207.79296875 290.250976562 142.983398438 220.767578125 147.983398438 70.8427734375 c 0
 152.809570312 -82.189453125 257.37890625 -233.38671875 479.8984375 -233.38671875 c 0
 620.544921875 -233.38671875 713.552734375 -163.116210938 755 -107 c 1
 765.2578125 -109.266601562 794.119140625 -129.2421875 797 -146 c 1
 754.96875 -207.765625 635.12890625 -294.012695312 462.841796875 -294.012695312 c 0
 212.129882812 -294.012695312 57.9208984375 -163.717773438 45.998046875 25.2783203125 c 0
 30.998046875 252.166992188 180.954101562 346.325195312 299 374 c 0
 342.6171875 382.830078125 384.931640625 386.228515625 424.456054688 386.228515625 c 0
 546.940429688 386.228515625 670.115234375 381.885742188 731 379 c 1
 714 372 l 1
 714.188476562 376.166015625 714.283203125 380.319335938 714.283203125 384.448242188 c 0
 714.283203125 443.668945312 680.904296875 497.028320312 618.400390625 497.028320312 c 0
 576.0390625 497.028320312 516.967773438 459.012695312 518 358 c 1
 472 356 l 1
 473.184570312 451.486328125 430.447265625 500.057617188 367.56640625 500.057617188 c 0
 299.72265625 500.057617188 263.9921875 436.329101562 263.9921875 368.862304688 c 0
 263.9921875 196.106445312 383.961914062 155.595703125 492.932617188 149.333984375 c 0
 561.6328125 145.768554688 623.965820312 158.716796875 672 181 c 1
 681.923828125 180.825195312 686.838867188 160.856445312 686 150 c 1
 631.103515625 96.568359375 559.659179688 74.11328125 481.004882812 75.9580078125 c 0
 340.838867188 79.244140625 214.931640625 167.419921875 214.931640625 352.35546875 c 0
 214.931640625 462.579101562 274.323242188 560.032226562 375.116210938 560.032226562 c 0
 469.443359375 560.032226562 502.37890625 477.724609375 502.37890625 427.009765625 c 0
 502.37890625 413.26171875 500.072265625 401.8359375 496 395 c 1
 487 402 l 1
EndSplineSet
Fore
SplineSet
487 402 m 1
 488.728515625 456.736328125 531.994140625 558.002929688 626.9765625 558.002929688 c 0
 702.274414062 558.002929688 757.592773438 502.329101562 757.592773438 401.178710938 c 0
 757.592773438 371.391601562 754.94921875 350.35546875 752.662109375 326.857421875 c 1
 705.856445312 328.9296875 561.114257812 337.813476562 431.118164062 337.813476562 c 0
 384.883789062 337.813476562 338.717773438 334.2265625 300 322 c 0
 207.79296875 290.250976562 142.983398438 220.767578125 147.983398438 70.8427734375 c 0
 152.809570312 -82.189453125 257.37890625 -233.38671875 479.8984375 -233.38671875 c 0
 620.544921875 -233.38671875 713.552734375 -163.116210938 755 -107 c 1
 765.2578125 -109.266601562 794.119140625 -129.2421875 797 -146 c 1
 754.96875 -207.765625 635.12890625 -294.012695312 462.841796875 -294.012695312 c 0
 212.129882812 -294.012695312 57.9208984375 -163.717773438 45.998046875 25.2783203125 c 0
 30.998046875 252.166992188 180.954101562 346.325195312 299 374 c 0
 342.6171875 382.830078125 384.931640625 386.228515625 424.456054688 386.228515625 c 0
 546.940429688 386.228515625 670.115234375 381.885742188 731 379 c 1
 714 372 l 1
 714.188476562 376.166015625 714.283203125 380.319335938 714.283203125 384.448242188 c 0
 714.283203125 443.668945312 680.904296875 497.028320312 618.400390625 497.028320312 c 0
 576.0390625 497.028320312 516.967773438 459.012695312 518 358 c 1
 472 356 l 1
 473.184570312 451.486328125 430.447265625 500.057617188 367.56640625 500.057617188 c 0
 299.72265625 500.057617188 263.9921875 436.329101562 263.9921875 368.862304688 c 0
 263.9921875 196.106445312 383.961914062 155.595703125 492.932617188 149.333984375 c 0
 561.6328125 145.768554688 623.965820312 158.716796875 672 181 c 1
 681.923828125 180.825195312 686.838867188 160.856445312 686 150 c 1
 631.103515625 96.568359375 559.659179688 74.11328125 481.004882812 75.9580078125 c 0
 340.838867188 79.244140625 214.931640625 167.419921875 214.931640625 352.35546875 c 0
 214.931640625 462.579101562 274.323242188 560.032226562 375.116210938 560.032226562 c 0
 469.443359375 560.032226562 502.37890625 477.724609375 502.37890625 427.009765625 c 0
 502.37890625 413.26171875 500.072265625 401.8359375 496 395 c 1
 487 402 l 1
EndSplineSet
EndChar

StartChar: si_Fa
Encoding: 61 3526 59
GlifName: si_F_a
Width: 855
VWidth: -24
Flags: HMW
LayerCount: 3
Back
SplineSet
114.833984375 208.666992188 m 0
 114.833984375 112.650390625 158.094726562 19.9951171875 271.806640625 19.9951171875 c 0
 297.612304688 19.9951171875 323.388671875 23.318359375 355 45 c 1
 374 -13 l 1
 345.892578125 -24.8916015625 312.07421875 -33.96875 264.216796875 -33.96875 c 0
 120.118164062 -33.96875 45 83.6826171875 45 228 c 0
 45 385.194335938 133.673828125 522.028320312 272.883789062 522.028320312 c 0
 394.982421875 522.028320312 442.020507812 436.217773438 444 362 c 1
 444.422851562 362.633789062 443.193359375 362.866210938 441.008789062 362.866210938 c 0
 435.04296875 362.866210938 421.95703125 361.133789062 415.991210938 361.133789062 c 0
 413.806640625 361.133789062 412.577148438 361.366210938 413 362 c 0
 420.032226562 443.374023438 493.513671875 522.004882812 595.499023438 522.004882812 c 0
 746.216796875 522.004882812 808.005859375 371.612304688 808.005859375 251.568359375 c 0
 808.005859375 75.7548828125 718.505859375 -33.0810546875 596.473632812 -33.0810546875 c 0
 561.600585938 -33.0810546875 519.572265625 -26.4052734375 497 -17 c 1
 516 45 l 1
 537.916015625 26.4560546875 569.069335938 19.279296875 598.678710938 19.279296875 c 0
 604.1953125 19.279296875 609.659179688 19.5283203125 615 20 c 0
 674.323242188 25.234375 737.029296875 88.404296875 737.029296875 219.0625 c 0
 737.029296875 322.126953125 690.2109375 409.017578125 588.790039062 409.017578125 c 0
 519.780273438 409.017578125 460.978515625 356.114257812 459 273 c 1
 403 273 l 1
 403 367.192382812 336.9453125 414.125 269.072265625 414.125 c 0
 150.444335938 414.125 114.833984375 299.47265625 114.833984375 208.666992188 c 0
EndSplineSet
Fore
SplineSet
114.833984375 208.666992188 m 0
 114.833984375 112.650390625 158.094726562 19.9951171875 271.806640625 19.9951171875 c 0
 297.612304688 19.9951171875 323.388671875 23.318359375 355 45 c 1
 374 -13 l 1
 345.892578125 -24.8916015625 312.07421875 -33.96875 264.216796875 -33.96875 c 0
 120.118164062 -33.96875 45 83.6826171875 45 228 c 0
 45 385.194335938 133.673828125 522.028320312 272.883789062 522.028320312 c 0
 394.982421875 522.028320312 442.020507812 436.217773438 444 362 c 1
 444.422851562 362.633789062 443.193359375 362.866210938 441.008789062 362.866210938 c 0
 435.04296875 362.866210938 421.95703125 361.133789062 415.991210938 361.133789062 c 0
 413.806640625 361.133789062 412.577148438 361.366210938 413 362 c 0
 420.032226562 443.374023438 493.513671875 522.004882812 595.499023438 522.004882812 c 0
 746.216796875 522.004882812 808.005859375 371.612304688 808.005859375 251.568359375 c 0
 808.005859375 75.7548828125 718.505859375 -33.0810546875 596.473632812 -33.0810546875 c 0
 561.600585938 -33.0810546875 519.572265625 -26.4052734375 497 -17 c 1
 516 45 l 1
 537.916015625 26.4560546875 569.069335938 19.279296875 598.678710938 19.279296875 c 0
 604.1953125 19.279296875 609.659179688 19.5283203125 615 20 c 0
 674.323242188 25.234375 737.029296875 88.404296875 737.029296875 219.0625 c 0
 737.029296875 322.126953125 690.2109375 409.017578125 588.790039062 409.017578125 c 0
 519.780273438 409.017578125 460.978515625 356.114257812 459 273 c 1
 403 273 l 1
 403 367.192382812 336.9453125 414.125 269.072265625 414.125 c 0
 150.444335938 414.125 114.833984375 299.47265625 114.833984375 208.666992188 c 0
EndSplineSet
EndChar

StartChar: si_Halant
Encoding: 62 3530 60
GlifName: si_H_alant
Width: 1
VWidth: -36
Flags: HMW
AnchorPoint: "si_hal" -12 453 mark 0
LayerCount: 3
Back
SplineSet
-21 454 m 1
 -21 864 l 5
 -9.46288289622 870.611786952 3.7685546875 866.306640625 13 864 c 1
 41.36328125 844.711914062 64.7753665175 835.722917351 93 821.342773438 c 4
 118.440359168 808.381187019 185.091796875 779.881835938 185.091796875 702.806640625 c 4
 185.091796875 643.647460938 142.462148568 617.192144683 87 617 c 0
 47.3298122869 616.862565446 18.6625 633.222439237 10 645 c 1
 25.572265625 646 l 1
 25.4524422444 640.996586981 23 635.342773438 23 629.192382812 c 0
 23 454 l 1
 -21 454 l 1
28 677 m 1
 42.2744140625 658.264648438 65.9228515625 655.872070312 78.591796875 655.872070312 c 0
 104.276367188 655.872070312 125.72265625 671.784179688 125.72265625 705.431640625 c 0
 125.72265625 771.408203125 43.2333984375 792.978515625 28 810 c 1
 28 677 l 1
EndSplineSet
Fore
SplineSet
-21 454 m 1
 -21 864 l 5
 -9.46288289622 870.611786952 3.7685546875 866.306640625 13 864 c 1
 41.36328125 844.711914062 64.7753665175 835.722917351 93 821.342773438 c 4
 118.440359168 808.381187019 185.091796875 779.881835938 185.091796875 702.806640625 c 4
 185.091796875 643.647460938 142.462148568 617.192144683 87 617 c 0
 47.3298122869 616.862565446 18.6625 633.222439237 10 645 c 1
 25.572265625 646 l 1
 25.4524422444 640.996586981 23 635.342773438 23 629.192382812 c 0
 23 454 l 1
 -21 454 l 1
28 677 m 1
 42.2744140625 658.264648438 65.9228515625 655.872070312 78.591796875 655.872070312 c 0
 104.276367188 655.872070312 125.72265625 671.784179688 125.72265625 705.431640625 c 0
 125.72265625 771.408203125 43.2333984375 792.978515625 28 810 c 1
 28 677 l 1
EndSplineSet
EndChar

StartChar: si_MatraAa
Encoding: 63 3535 61
GlifName: si_M_atraA_a
Width: 377
VWidth: -11
Flags: HMW
LayerCount: 3
Back
SplineSet
135.141188187 -33.162554757 m 0
 67.6940959142 -33.162554757 25.9501434277 -4.5299015558 11 13 c 1
 12.3770869967 25.2647730079 20.8177518736 38.4558223837 34 43 c 1
 55.023614498 30.1751828249 88.9306640625 14.890625 123.349609375 14.890625 c 4
 215.272460938 14.890625 254.172851562 116.284179688 254.172851562 234.821289062 c 0
 254.172851562 353.245117188 202.544921875 458.172851562 117.368164062 458.172851562 c 0
 79.771484375 458.172851562 51.978515625 434.029296875 37 424 c 1
 26.810546875 429.470703125 15.181640625 438.08984375 17 459 c 1
 44.4189453125 483.150390625 96.259765625 509 144.903320312 509 c 0
 289.287109375 508.94921875 347.228515625 386.616210938 347.228515625 249.094726562 c 0
 347.228515625 126.294921875 290.116325631 -33.162554757 135.141188187 -33.162554757 c 0
EndSplineSet
Fore
SplineSet
135.141188187 -33.162554757 m 0
 67.6940959142 -33.162554757 25.9501434277 -4.5299015558 11 13 c 1
 12.3770869967 25.2647730079 20.8177518736 38.4558223837 34 43 c 1
 55.023614498 30.1751828249 88.9306640625 14.890625 123.349609375 14.890625 c 4
 215.272460938 14.890625 254.172851562 116.284179688 254.172851562 234.821289062 c 0
 254.172851562 353.245117188 202.544921875 458.172851562 117.368164062 458.172851562 c 0
 79.771484375 458.172851562 51.978515625 434.029296875 37 424 c 1
 26.810546875 429.470703125 15.181640625 438.08984375 17 459 c 1
 44.4189453125 483.150390625 96.259765625 509 144.903320312 509 c 0
 289.287109375 508.94921875 347.228515625 386.616210938 347.228515625 249.094726562 c 0
 347.228515625 126.294921875 290.116325631 -33.162554757 135.141188187 -33.162554757 c 0
EndSplineSet
EndChar

StartChar: si_MatraAe
Encoding: 64 3536 62
GlifName: si_M_atraA_e
Width: 355
VWidth: -11
Flags: HMW
LayerCount: 3
Back
SplineSet
62.1494140625 7.0751953125 m 0
 62.1494140625 160.453125 175.546875 313.090820312 228.163085938 357 c 5
 26 357 l 5
 25.2109375 373.793945312 24.20703125 390.158203125 26 412.116210938 c 5
 48.7060546875 412.107421875 236.108398438 412 272.073242188 412 c 6
 273 412 l 5
 276.446289062 389.453125 272.966796875 363.88671875 266 347 c 5
 204.771484375 299.663085938 144.061523438 151.978236706 144.061523438 40.478515625 c 0
 144.061523438 -33.013671875 172.801757812 -89.666015625 262.700195312 -89.666015625 c 0
 314.708007812 -89.666015625 352.23828125 -65.244140625 373 -45 c 1
 385.032226562 -48.919921875 393.221264136 -64.4726116652 394 -73 c 1
 376.345202084 -106.071242315 319.057617188 -163.04296875 230.213867188 -163.04296875 c 0
 108.2265625 -163.04296875 62.1494140625 -87.4931640625 62.1494140625 7.0751953125 c 0
EndSplineSet
Fore
SplineSet
62.1494140625 7.0751953125 m 0
 62.1494140625 160.453125 175.546875 313.090820312 228.163085938 357 c 5
 26 357 l 5
 25.2109375 373.793945312 24.20703125 390.158203125 26 412.116210938 c 5
 48.7060546875 412.107421875 236.108398438 412 272.073242188 412 c 6
 273 412 l 5
 276.446289062 389.453125 272.966796875 363.88671875 266 347 c 5
 204.771484375 299.663085938 144.061523438 151.978236706 144.061523438 40.478515625 c 0
 144.061523438 -33.013671875 172.801757812 -89.666015625 262.700195312 -89.666015625 c 0
 314.708007812 -89.666015625 352.23828125 -65.244140625 373 -45 c 1
 385.032226562 -48.919921875 393.221264136 -64.4726116652 394 -73 c 1
 376.345202084 -106.071242315 319.057617188 -163.04296875 230.213867188 -163.04296875 c 0
 108.2265625 -163.04296875 62.1494140625 -87.4931640625 62.1494140625 7.0751953125 c 0
EndSplineSet
EndChar

StartChar: si_MatraAae
Encoding: 65 3537 63
GlifName: si_M_atraA_ae
Width: 417
VWidth: -11
Flags: HMW
LayerCount: 3
Back
SplineSet
35 411 m 1
 264 411 l 1
 265.224609375 393.333007812 262.82421875 375.666992188 259 358 c 1
 137 293 l 1
 75 299 l 1
 193.547851562 360 l 1
 35 360 l 1
 35 411 l 1
298.061523438 223 m 1
 236.450195312 185.236328125 195.077148438 119.6484375 195.077148438 31.9990234375 c 4
 195.077148438 -30.69140625 222.8359375 -87.40234375 300.913085938 -87.40234375 c 0
 356.71484375 -87.40234375 385.481445312 -59.91015625 407 -41 c 1
 419.862967807 -43.1188819378 427.329101562 -58.4560546875 428 -66 c 1
 413.345703125 -109.071289062 343.05859375 -163.04296875 263.7578125 -163.04296875 c 0
 177.856445312 -163.04296875 119.805664062 -103.293945312 119.805664062 -15.943359375 c 4
 119.805664062 95.43359375 184.862304688 179.909179688 259.163085938 236 c 1
 207.614257812 239.661132812 139.0546875 248.188476562 75 252.856445312 c 1
 75 299.116210938 l 1
 97.7060546875 299.107421875 265.24609375 282 302.061523438 279 c 1
 301.938476562 256.321289062 303.033203125 240.751953125 298.061523438 223 c 1
EndSplineSet
Fore
SplineSet
35 411 m 1
 264 411 l 1
 265.224609375 393.333007812 262.82421875 375.666992188 259 358 c 1
 137 293 l 1
 75 299 l 1
 193.547851562 360 l 1
 35 360 l 1
 35 411 l 1
298.061523438 223 m 1
 236.450195312 185.236328125 195.077148438 119.6484375 195.077148438 31.9990234375 c 4
 195.077148438 -30.69140625 222.8359375 -87.40234375 300.913085938 -87.40234375 c 0
 356.71484375 -87.40234375 385.481445312 -59.91015625 407 -41 c 1
 419.862967807 -43.1188819378 427.329101562 -58.4560546875 428 -66 c 1
 413.345703125 -109.071289062 343.05859375 -163.04296875 263.7578125 -163.04296875 c 0
 177.856445312 -163.04296875 119.805664062 -103.293945312 119.805664062 -15.943359375 c 4
 119.805664062 95.43359375 184.862304688 179.909179688 259.163085938 236 c 1
 207.614257812 239.661132812 139.0546875 248.188476562 75 252.856445312 c 1
 75 299.116210938 l 1
 97.7060546875 299.107421875 265.24609375 282 302.061523438 279 c 1
 301.938476562 256.321289062 303.033203125 240.751953125 298.061523438 223 c 1
EndSplineSet
EndChar

StartChar: si_MatraIi
Encoding: 67 3539 65
GlifName: si_M_atraI_i
Width: 0
VWidth: -28
Flags: HMW
AnchorPoint: "si_MaI" 0 559 mark 0
LayerCount: 3
Back
SplineSet
-43.5585546846 703.431554736 m 0
 -133.453426685 703.431554736 -223.912920686 697.873775667 -223.912920686 628.405888564 c 0
 -223.912920686 585.590937463 -189.071374215 575.16146705 -168 566 c 13
 -185 531 l 21
 -244.231271263 549.803578179 -286.52014082 583.85160605 -286.52014082 643.334287269 c 0
 -286.52014082 755.583575965 -147.550292268 800.065084445 -7.16206684126 800.065084445 c 0
 101.215066413 800.065084445 249.471709864 767.536406964 266 659 c 4
 266.956722904 652.717482056 267.406296688 646.571140704 267.406296688 640.580400317 c 0
 267.406296688 584.235130642 227.636359733 541.654543893 196 529 c 13
 177 554 l 21
 195.073672268 569.716236755 208.052364494 585.883538142 208.052364494 611.628567418 c 0
 208.052364494 618.64587136 207.088125414 626.374743107 205 635 c 4
 190.84375 693.477539062 68 701.96875 0 703 c 4
 -14.1350478985 703.214480033 -28.8017437921 703.431554736 -43.5585546846 703.431554736 c 0
EndSplineSet
Fore
SplineSet
-43.5585546846 703.431554736 m 0
 -133.453426685 703.431554736 -223.912920686 697.873775667 -223.912920686 628.405888564 c 0
 -223.912920686 585.590937463 -189.071374215 575.16146705 -168 566 c 13
 -185 531 l 21
 -244.231271263 549.803578179 -286.52014082 583.85160605 -286.52014082 643.334287269 c 0
 -286.52014082 755.583575965 -147.550292268 800.065084445 -7.16206684126 800.065084445 c 0
 101.215066413 800.065084445 249.471709864 767.536406964 266 659 c 4
 266.956722904 652.717482056 267.406296688 646.571140704 267.406296688 640.580400317 c 0
 267.406296688 584.235130642 227.636359733 541.654543893 196 529 c 13
 177 554 l 21
 195.073672268 569.716236755 208.052364494 585.883538142 208.052364494 611.628567418 c 0
 208.052364494 618.64587136 207.088125414 626.374743107 205 635 c 4
 190.84375 693.477539062 68 701.96875 0 703 c 4
 -14.1350478985 703.214480033 -28.8017437921 703.431554736 -43.5585546846 703.431554736 c 0
EndSplineSet
EndChar

StartChar: si_MatraU
Encoding: 68 3540 66
GlifName: si_M_atraU_
Width: 0
VWidth: 0
Flags: HMW
AnchorPoint: "si_MaU" 32 169.28 mark 0
LayerCount: 3
Back
SplineSet
38 -367 m 17
 38 -367 -311.313850792 -370.589486823 -486.995171802 -370.589486823 c 0
 -566.830038229 -370.589486823 -608.012382154 -321.070771019 -608.012382154 -269.343924644 c 0
 -608.012382154 -161.463141736 -450 -115 -450 -115 c 1
 -423.227539062 -160 l 2
 -423.22777291 -159.440947505 -423.652198746 -159.174306687 -424.433095497 -159.174306687 c 0
 -433.435192937 -159.174306687 -489.809570409 -194.608848438 -489.809570409 -225.99774857 c 0
 -489.807571295 -272.55224766 -465.699244694 -285.247070312 -414 -285.247070312 c 2
 -18 -287 l 9
 -18 169 l 25
 32 169 l 25
 38 -367 l 17
EndSplineSet
Fore
SplineSet
38 -367 m 17
 38 -367 -311.313850792 -370.589486823 -486.995171802 -370.589486823 c 0
 -566.830038229 -370.589486823 -608.012382154 -321.070771019 -608.012382154 -269.343924644 c 0
 -608.012382154 -161.463141736 -450 -115 -450 -115 c 1
 -423.227539062 -160 l 2
 -423.22777291 -159.440947505 -423.652198746 -159.174306687 -424.433095497 -159.174306687 c 0
 -433.435192937 -159.174306687 -489.809570409 -194.608848438 -489.809570409 -225.99774857 c 0
 -489.807571295 -272.55224766 -465.699244694 -285.247070312 -414 -285.247070312 c 2
 -18 -287 l 9
 -18 169 l 25
 32 169 l 25
 38 -367 l 17
EndSplineSet
EndChar

StartChar: si_MatraUu
Encoding: 69 3542 67
GlifName: si_M_atraU_u
Width: 0
VWidth: 0
Flags: HMW
AnchorPoint: "si_MaU" 22 169.28 mark 0
LayerCount: 3
Back
SplineSet
-200.450620247 -309.737940586 m 0
 -294.555154358 -309.737940586 -346.950620606 -380.587968423 -440.555322436 -380.587968423 c 0
 -510.278655613 -380.587968423 -546.015507134 -330.951773433 -546.015507134 -279.115612078 c 0
 -546.015507134 -187.058157614 -435 -125 -435 -125 c 1
 -401.972540152 -159.292062531 l 1
 -409.827868014 -159.292062531 -454.429327179 -200.762900111 -454.429327179 -239.894819329 c 0
 -454.429327179 -274.31235992 -430.945679331 -297.435711788 -395.599599962 -297.435711788 c 0
 -331.013708113 -297.435711788 -279.017840354 -235.845724575 -194.973727509 -235.845724575 c 0
 -117.583714754 -235.845724575 -65.2160437128 -270.188315595 -25 -297 c 1
 -25 169 l 25
 22 169 l 25
 28 -377 l 1
 -34 -376 l 1
 -86.3606063148 -340.617832929 -146.16490311 -309.737940586 -200.450620247 -309.737940586 c 0
EndSplineSet
Fore
SplineSet
-200.450620247 -309.737940586 m 0
 -294.555154358 -309.737940586 -346.950620606 -380.587968423 -440.555322436 -380.587968423 c 0
 -510.278655613 -380.587968423 -546.015507134 -330.951773433 -546.015507134 -279.115612078 c 0
 -546.015507134 -187.058157614 -435 -125 -435 -125 c 1
 -401.972540152 -159.292062531 l 1
 -409.827868014 -159.292062531 -454.429327179 -200.762900111 -454.429327179 -239.894819329 c 0
 -454.429327179 -274.31235992 -430.945679331 -297.435711788 -395.599599962 -297.435711788 c 0
 -331.013708113 -297.435711788 -279.017840354 -235.845724575 -194.973727509 -235.845724575 c 0
 -117.583714754 -235.845724575 -65.2160437128 -270.188315595 -25 -297 c 1
 -25 169 l 25
 22 169 l 25
 28 -377 l 1
 -34 -376 l 1
 -86.3606063148 -340.617832929 -146.16490311 -309.737940586 -200.450620247 -309.737940586 c 0
EndSplineSet
EndChar

StartChar: si_MatraR
Encoding: 70 3544 68
GlifName: si_M_atraR_
Width: 397
VWidth: -11
Flags: HMW
LayerCount: 3
Back
SplineSet
6.990234375 98.1953125 m 0
 6.990234375 7.0029296875 85.271484375 -20.00390625 155.526367188 -20.00390625 c 0
 324.754882812 -20.00390625 367.228515625 134.006835938 367.228515625 249.094726562 c 0
 367.228515625 386.616210938 289.287109375 508.94921875 144.903320312 509 c 0
 96.259765625 509 44.4189453125 483.150390625 17 459 c 1
 37 429 l 1
 51.978515625 439.029296875 79.771484375 455.172851562 117.368164062 455.172851562 c 0
 215.0234375 455.172851562 278.010742188 358.625 278.010742188 234.693359375 c 0
 278.010742188 126.1875 241.515625 32.78125 167.525390625 32.78125 c 0
 126.744140625 32.78125 80.9853515625 54.1279296875 80.9853515625 110.7890625 c 0
 80.9853515625 189.631835938 139.422851562 214.865234375 203.223632812 214.865234375 c 0
 241.614257812 214.865234375 277.491210938 203.213867188 308 180 c 1
 298 241 l 1
 274.94921875 251.056640625 239.374023438 255.764648438 206.254882812 255.764648438 c 0
 104.6171875 255.764648438 6.990234375 209.336914062 6.990234375 98.1953125 c 0
EndSplineSet
Fore
SplineSet
6.990234375 98.1953125 m 0
 6.990234375 7.0029296875 85.271484375 -20.00390625 155.526367188 -20.00390625 c 0
 324.754882812 -20.00390625 367.228515625 134.006835938 367.228515625 249.094726562 c 0
 367.228515625 386.616210938 289.287109375 508.94921875 144.903320312 509 c 0
 96.259765625 509 44.4189453125 483.150390625 17 459 c 1
 37 429 l 1
 51.978515625 439.029296875 79.771484375 455.172851562 117.368164062 455.172851562 c 0
 215.0234375 455.172851562 278.010742188 358.625 278.010742188 234.693359375 c 0
 278.010742188 126.1875 241.515625 32.78125 167.525390625 32.78125 c 0
 126.744140625 32.78125 80.9853515625 54.1279296875 80.9853515625 110.7890625 c 0
 80.9853515625 189.631835938 139.422851562 214.865234375 203.223632812 214.865234375 c 0
 241.614257812 214.865234375 277.491210938 203.213867188 308 180 c 1
 298 241 l 1
 274.94921875 251.056640625 239.374023438 255.764648438 206.254882812 255.764648438 c 0
 104.6171875 255.764648438 6.990234375 209.336914062 6.990234375 98.1953125 c 0
EndSplineSet
EndChar

StartChar: si_MatraE
Encoding: 71 3545 69
GlifName: si_M_atraE_
Width: 617
VWidth: -10
Flags: HMW
LayerCount: 3
Back
SplineSet
357.758789062 156.793945312 m 0
 294.991210938 156.793945312 261 201.576171875 261 247 c 0
 261 321.55859375 326.813476562 365.010742188 398.047851562 365.010742188 c 0
 485.856445312 365.010742188 576.232421875 307.384765625 576.232421875 183.029296875 c 0
 576.232421875 74.0869140625 506.833007812 -44 323 -44 c 0
 169.43359375 -44 48.5419921875 67.982421875 48.5419921875 217.153320312 c 0
 48.5419921875 429.360351562 204.911132812 548 374 548 c 0
 496.48046875 548 543 511 543 511 c 1
 550.271897172 491.511131928 530.049804688 463.827148438 513 457 c 1
 513 457 460.483398438 500.520507812 354.4609375 500.520507812 c 0
 225.6875 500.520507812 116.239257812 402.588867188 116.239257812 259.588867188 c 0
 116.239257812 117.71484375 206.493164062 39.529296875 332.27734375 39.529296875 c 4
 435.598632812 39.529296875 517.598632812 86.931640625 518.598632812 196.499023438 c 0
 519.32068087 275.611939448 457.62109375 329.020507812 395.120117188 329.020507812 c 0
 337.983398438 329.020507812 311 297.3984375 311 263 c 0
 311 238.486328125 332.99609375 215.977539062 367.015625 215.977539062 c 0
 401.967773438 215.977539062 421 246.374023438 421 266 c 0
 421 333.307617188 383.521484375 331 375 331 c 1
 388.224609375 333.938476562 392.775390625 334.881835938 404.353515625 334.881835938 c 0
 416.4140625 334.881835938 425.249023438 333.858398438 426 333 c 0
 435 322.713867188 459 306.713867188 459 253 c 0
 459 209.556640625 428.719726562 156.793945312 357.758789062 156.793945312 c 0
EndSplineSet
Fore
SplineSet
347.758789062 146.793945312 m 0
 277.206792129 146.793945312 239 198.029939833 239 250 c 0
 239 340.353468091 312.016815667 393.010742188 391.047851562 393.010742188 c 0
 489.205155448 393.010742188 590.232421875 326.518326846 590.232421875 183.029296875 c 0
 590.232421875 74.0869140625 519.462736708 -44 332 -44 c 0
 145.902908585 -44 39.2942766241 72.2721416301 38.5419921875 227.153320312 c 0
 37.5051210714 445.774411134 200.676637554 568 376 568 c 0
 492.929941753 568 547 524 547 524 c 1
 548.780656041 491.775466689 518.369726563 443.63143808 505 432 c 1
 505 432 459.108466195 466.520507812 366.4609375 466.520507812 c 0
 256.607147945 466.520507812 163.239257812 398.367660897 163.239257812 275.588867188 c 0
 163.239257812 158.213723226 240.179727909 93.529296875 336.27734375 93.529296875 c 4
 426.562524827 93.529296875 491.296316231 135.631797566 498.598632812 206.499023438 c 0
 505.642655877 279.347491111 447.497717024 329.020507812 395.120117188 329.020507812 c 0
 342.058764997 329.020507812 317 302.188171987 317 273 c 0
 317 247.44369142 332.713248562 223.977539062 357.015625 223.977539062 c 0
 391.967773438 223.977539062 411 244.374023438 411 274 c 0
 411 333.023602765 381.668987772 331 375 331 c 1
 388.224609375 333.938476562 392.775390625 334.881835938 404.353515625 334.881835938 c 0
 416.4140625 334.881835938 425.248971606 333.858353089 426 333 c 0
 435 322.713867188 459 306.713867188 459 253 c 0
 459 205.040983111 425.728822645 146.793945312 347.758789062 146.793945312 c 0
EndSplineSet
EndChar

StartChar: si_MatraLs
Encoding: 77 3551 75
GlifName: si_M_atraL_s
Width: 580
VWidth: -11
Flags: HMW
LayerCount: 3
Back
SplineSet
34.9552106379 356.080449514 m 0
 34.9552106379 238.784320563 91.9873046875 163.451171875 216.879882812 163.451171875 c 0
 284.315429688 163.451171875 357.000976562 205.981445312 357.000976562 288.327148438 c 0
 357.000976562 338.720703125 317.490234375 380.057617188 250.767578125 380.057617188 c 0
 233.459960938 380.057617188 215 376 215 376 c 1
 215 350 l 1
 273.21484375 350 297.42578125 319.814453125 297.42578125 285.087890625 c 0
 297.42578125 254.151367188 279.666992188 208.6484375 215.500976562 208.6484375 c 4
 137.081054688 208.6484375 83.5947265625 259.80078125 83.5947265625 367.783203125 c 0
 83.5947265625 420.0078125 102.131835938 478.837890625 132 530 c 1
 121.954625077 536.818500654 102.33203125 543.327148438 84 534 c 1
 57.4111328125 492.323242188 34.9552106379 421.269103821 34.9552106379 356.080449514 c 0
565.012872122 257.288467395 m 0
 565.012872122 505.21642948 437.628831325 543.154998543 363.794764483 543.154998543 c 0
 255.623702414 543.154998543 190.000976562 463.424804688 190.000976562 371.598632812 c 0
 190.000976562 364.063476562 190.375 356.514648438 191.125976562 349 c 1
 231 349 l 1
 229.495117188 356.73828125 228.73828125 365.966796875 228.73828125 374.397460938 c 0
 228.73828125 426.40234375 278.536132812 486.1171875 338.143554688 486.1171875 c 0
 446.340820312 486.1171875 473.247070312 365.747070312 473.247070312 267.822265625 c 0
 473.247070312 142.2421875 447.16796875 -7.001953125 319.700195312 -7.001953125 c 0
 256.547851562 -7.001953125 196.395507812 7.193359375 175 60 c 1
 161.545898438 65.7119140625 136.135742188 62.533203125 132 51 c 1
 151.005859375 -22.8955078125 221.458007812 -63.0830078125 313.103515625 -63.0830078125 c 0
 497.829101562 -63.0830078125 565.012872122 82.484952332 565.012872122 257.288467395 c 0
EndSplineSet
Fore
SplineSet
34.9552106379 356.080449514 m 0
 34.9552106379 238.784320563 91.9873046875 163.451171875 216.879882812 163.451171875 c 0
 284.315429688 163.451171875 357.000976562 205.981445312 357.000976562 288.327148438 c 0
 357.000976562 338.720703125 317.490234375 380.057617188 250.767578125 380.057617188 c 0
 233.459960938 380.057617188 215 376 215 376 c 1
 215 350 l 1
 273.21484375 350 297.42578125 319.814453125 297.42578125 285.087890625 c 0
 297.42578125 254.151367188 279.666992188 208.6484375 215.500976562 208.6484375 c 4
 137.081054688 208.6484375 83.5947265625 259.80078125 83.5947265625 367.783203125 c 0
 83.5947265625 420.0078125 102.131835938 478.837890625 132 530 c 1
 121.954625077 536.818500654 102.33203125 543.327148438 84 534 c 1
 57.4111328125 492.323242188 34.9552106379 421.269103821 34.9552106379 356.080449514 c 0
565.012872122 257.288467395 m 0
 565.012872122 505.21642948 437.628831325 543.154998543 363.794764483 543.154998543 c 0
 255.623702414 543.154998543 190.000976562 463.424804688 190.000976562 371.598632812 c 0
 190.000976562 364.063476562 190.375 356.514648438 191.125976562 349 c 1
 231 349 l 1
 229.495117188 356.73828125 228.73828125 365.966796875 228.73828125 374.397460938 c 0
 228.73828125 426.40234375 278.536132812 486.1171875 338.143554688 486.1171875 c 0
 446.340820312 486.1171875 473.247070312 365.747070312 473.247070312 267.822265625 c 0
 473.247070312 142.2421875 447.16796875 -7.001953125 319.700195312 -7.001953125 c 0
 256.547851562 -7.001953125 196.395507812 7.193359375 175 60 c 1
 161.545898438 65.7119140625 136.135742188 62.533203125 132 51 c 1
 151.005859375 -22.8955078125 221.458007812 -63.0830078125 313.103515625 -63.0830078125 c 0
 497.829101562 -63.0830078125 565.012872122 82.484952332 565.012872122 257.288467395 c 0
EndSplineSet
EndChar

StartChar: si_VI
Encoding: 365 -1 78
GlifName: si_V_I_
Width: 780
VWidth: -14
Flags: HMW
LayerCount: 3
Back
SplineSet
45.9471173255 141.548867888 m 0
 45.9471173255 288.309633633 212.710887114 332.828404851 327.508573973 332.828404851 c 0
 336.710496144 332.828404851 345.578522621 332.542360085 354 332 c 1
 354 402 304 438 212 438 c 1
 186 357 l 1
 180.88932074 356.298534219 175.946951567 355.957145919 171.19877215 355.957145919 c 0
 133.30306767 355.957145919 107.776860342 377.702894463 107.776860342 411.693183497 c 0
 107.776860342 477.803046315 175.069866687 500 224 500 c 0
 302.043059296 500 394.139273993 460.937271348 394.139273993 351.559540423 c 0
 394.139273993 317.850536642 386 284 386 284 c 1
 367.861034003 286.326527509 349.873647198 287.464888377 332.333209055 287.464888377 c 0
 221.124653591 287.464888377 127.882171403 241.705998254 127.882171403 162.881472501 c 0
 127.882171403 83.1849199728 219.807150758 39.9862021039 370.381676212 39.9862021039 c 0
 563.59897039 39.9862021039 671 164.721306141 671 336 c 1
 734 336 l 1
 734 108.229280506 597.173836085 -58.4924006492 359.680900975 -58.4924006492 c 0
 183.021379548 -58.4924006492 45.9471173255 14.1991613668 45.9471173255 141.548867888 c 0
EndSplineSet
Refer: 560 -1 N 1 0 0 1 52 0 2
Fore
SplineSet
45.9471173255 141.548867888 m 0
 45.9471173255 288.309633633 212.710887114 332.828404851 327.508573973 332.828404851 c 0
 336.710496144 332.828404851 345.578522621 332.542360085 354 332 c 1
 354 402 304 438 212 438 c 1
 186 357 l 1
 180.88932074 356.298534219 175.946951567 355.957145919 171.19877215 355.957145919 c 0
 133.30306767 355.957145919 107.776860342 377.702894463 107.776860342 411.693183497 c 0
 107.776860342 477.803046315 175.069866687 500 224 500 c 0
 302.043059296 500 394.139273993 460.937271348 394.139273993 351.559540423 c 0
 394.139273993 317.850536642 386 284 386 284 c 1
 367.861034003 286.326527509 349.873647198 287.464888377 332.333209055 287.464888377 c 0
 221.124653591 287.464888377 127.882171403 241.705998254 127.882171403 162.881472501 c 0
 127.882171403 83.1849199728 219.807150758 39.9862021039 370.381676212 39.9862021039 c 0
 563.59897039 39.9862021039 671 164.721306141 671 336 c 1
 734 336 l 1
 734 108.229280506 597.173836085 -58.4924006492 359.680900975 -58.4924006492 c 0
 183.021379548 -58.4924006492 45.9471173255 14.1991613668 45.9471173255 141.548867888 c 0
EndSplineSet
Refer: 560 -1 N 1 0 0 1 52 0 2
Ligature2: "si_abvs_1 subtable" si_Va si_MatraI
LCarets2: 1 0
Ligature2: "'abvs' Above Base Substitutions in Sinhala lookup 0-1" si_Va si_MatraI
EndChar

StartChar: si_MatraU.alt
Encoding: 85 -1 81
GlifName: si_M_atraU_.alt
Width: 0
VWidth: 0
Flags: HMW
AnchorPoint: "si_MaU" 24 209.28 mark 0
LayerCount: 3
Back
SplineSet
-446 -91 m 5
 -426.227539062 -119 l 5
 -443.819335938 -128.764648438 -477.809570312 -158.65625 -477.809570312 -197.99609375 c 4
 -477.80859375 -238.81640625 -446.703125 -255 -380 -255 c 6
 -28 -255 l 1
 -28 160 l 1
 20 160 l 1
 26 -326 l 1
 -412 -329.586914062 l 4
 -520.216796875 -329.254882812 -561.008789062 -288.486328125 -561.008789062 -237.360351562 c 4
 -561.008789062 -130.55078125 -446 -91 -446 -91 c 5
EndSplineSet
Fore
SplineSet
-446 -91 m 5
 -426.227539062 -119 l 5
 -443.819335938 -128.764648438 -477.809570312 -158.65625 -477.809570312 -197.99609375 c 4
 -477.80859375 -238.81640625 -446.703125 -255 -380 -255 c 6
 -28 -255 l 1
 -28 160 l 1
 20 160 l 1
 26 -326 l 1
 -412 -329.586914062 l 4
 -520.216796875 -329.254882812 -561.008789062 -288.486328125 -561.008789062 -237.360351562 c 4
 -561.008789062 -130.55078125 -446 -91 -446 -91 c 5
EndSplineSet
EndChar

StartChar: si_MatraUu.alt
Encoding: 86 -1 82
GlifName: si_M_atraU_u.alt
Width: 0
VWidth: 0
Flags: HMW
AnchorPoint: "si_MaU" 24 209.28 mark 0
LayerCount: 3
Back
SplineSet
-441 -364 m 0
 -543.215534041 -364 -575.176314815 -307.267845158 -575.176314815 -251.10298387 c 0
 -575.176314815 -174.141428983 -509.23952756 -113.313135048 -451 -106 c 1
 -424.227539062 -151 l 1
 -470.474752224 -164.842782083 -489.817044141 -197.046406625 -489.817044141 -221.180848244 c 0
 -489.817044141 -261.083522722 -459.850479818 -279.051222598 -413.368947774 -279.051222598 c 0
 -329.763860961 -279.051222598 -265.299207874 -225.517458827 -181.484263253 -225.517458827 c 0
 -126.433925604 -225.517458827 -80.7949565834 -241.931489329 -41 -268 c 9
 -43 209 l 25
 24 209 l 25
 22 -369 l 17
 -46.4215557328 -338.091951717 -92.5199097255 -298.838025668 -191.813728751 -298.838025668 c 0
 -195.46913547 -298.838025668 -199.1966366 -298.891225478 -203 -299 c 0
 -267.509765625 -300.844726562 -346 -364 -441 -364 c 0
EndSplineSet
Fore
SplineSet
-441 -364 m 0
 -543.215534041 -364 -575.176314815 -307.267845158 -575.176314815 -251.10298387 c 0
 -575.176314815 -174.141428983 -509.23952756 -113.313135048 -451 -106 c 1
 -424.227539062 -151 l 1
 -470.474752224 -164.842782083 -489.817044141 -197.046406625 -489.817044141 -221.180848244 c 0
 -489.817044141 -261.083522722 -459.850479818 -279.051222598 -413.368947774 -279.051222598 c 0
 -329.763860961 -279.051222598 -265.299207874 -225.517458827 -181.484263253 -225.517458827 c 0
 -126.433925604 -225.517458827 -80.7949565834 -241.931489329 -41 -268 c 9
 -43 209 l 25
 24 209 l 25
 22 -369 l 17
 -46.4215557328 -338.091951717 -92.5199097255 -298.838025668 -191.813728751 -298.838025668 c 0
 -195.46913547 -298.838025668 -199.1966366 -298.891225478 -203 -299 c 0
 -267.509765625 -300.844726562 -346 -364 -441 -364 c 0
EndSplineSet
EndChar

StartChar: si_Rakar.alt
Encoding: 88 -1 84
GlifName: si_R_akar
Width: 776
VWidth: -24
Flags: HMW
LayerCount: 3
Back
SplineSet
704 217 m 9
 736 210 l 17
 736 210 736.32792633 201.531996286 736.32792633 187.085048814 c 0
 736.32792633 167.765065463 735.741467409 137.752421647 733 103 c 0
 718.239261945 -102.397038676 660.325202974 -329.833064233 357.801358189 -329.833064233 c 0
 176.005167315 -329.833064233 61.8315924404 -216.684641739 37 -149 c 1
 44.374663882 -134.806825201 58.7369006229 -130.750005222 74 -128 c 1
 115.858841934 -169.165646095 199.9375 -236.391601562 342.065429688 -236.391601562 c 0
 634.956054688 -236.391601562 695.238154422 8.08666317514 704 217 c 9
EndSplineSet
Fore
SplineSet
704 217 m 9
 736 210 l 17
 736 210 736.32792633 201.531996286 736.32792633 187.085048814 c 0
 736.32792633 167.765065463 735.741467409 137.752421647 733 103 c 0
 718.239261945 -102.397038676 660.325202974 -329.833064233 357.801358189 -329.833064233 c 0
 176.005167315 -329.833064233 61.8315924404 -216.684641739 37 -149 c 1
 44.374663882 -134.806825201 58.7369006229 -130.750005222 74 -128 c 1
 115.858841934 -169.165646095 199.9375 -236.391601562 342.065429688 -236.391601562 c 0
 634.956054688 -236.391601562 695.238154422 8.08666317514 704 217 c 9
EndSplineSet
EndChar

StartChar: si_KU
Encoding: 92 -1 88
GlifName: si_K_U_
Width: 1085
VWidth: -24
Flags: HMW
LayerCount: 3
Back
SplineSet
26.3335078618 104.843455669 m 0
 26.3335078618 105.619619237 26.5438631104 106.34325086 27 107 c 0
 127 251 216.771757017 322.255813626 315 413 c 0
 321.771757017 419.255813626 331.318255181 419.583764967 338 425 c 0
 436.178606743 504.583764967 556.172851562 555.573242188 672 561 c 0
 679.000180971 561.348880666 685.931275691 561.521258282 692.789568454 561.521258282 c 0
 880.432906895 561.521258282 1016.21729266 434.886161691 1016.21729266 251.683875962 c 0
 1016.21729266 95.561739781 918.450276035 -33 775 -33 c 1
 796 9 l 1
 882.984501944 19.350933771 923.210954807 116.935827076 923.210954807 209.131251835 c 0
 923.210954807 233.352668235 920.43449065 257.20209891 915 279 c 0
 886.172820874 394.628693382 768.483958377 462.243942407 638.537406247 462.243942407 c 0
 530.214074164 462.243942407 451.845388993 434.854960824 355 374 c 0
 337.385663093 362.931638423 349.259108476 366.689899742 335 355 c 0
 238.259108476 275.689899742 156 211 56 79 c 1
 56 79 26.3335078618 95.6260293241 26.3335078618 104.843455669 c 0
67 415 m 0
 67 492.659893112 130.122004356 559.182720185 222.564422044 559.182720185 c 0
 295.098757691 559.182720185 343.442474614 508.453627101 343.442474614 452.594013384 c 0
 343.442474614 440.35979067 341.053948377 427.979729485 336 416 c 0
 329.657903166 400.778967598 328.678765299 396.283853131 328.678765299 394.880761233 c 0
 328.678765299 392.965332614 330.503516077 396.812290255 323 387 c 1
 288 377 l 1
 298.833989511 397.765146564 303.147127427 416.900080228 303.147127427 433.668896433 c 0
 303.147127427 476.252082181 272.428790024 501.565481201 226.819163069 501.565481201 c 0
 187.753535816 501.565481201 146.227495934 475.264635413 146.227495934 432.56219309 c 1
 191 371 l 1
 177.528911607 347.906705613 155.726815213 335.944628885 134.497388019 335.944628885 c 0
 87.6475340335 335.944628885 67 368.90425106 67 415 c 0
95 130 m 1
 107 165 l 1
 115 169 124 172 131 172 c 0
 131.236453202 172.004926108 131.471960009 172.007377029 131.706533928 172.007377029 c 0
 179.090465675 172.007377029 188.408866995 72 271 72 c 0
 320 72 370 101 371 197 c 1
 406 197 l 1
 406.982755728 95.7761599807 464.945402412 71.9783082165 523.896187265 71.9783082165 c 0
 586.200672026 71.9783082165 638 116.718415806 638 194 c 0
 638 275.772692542 559.983416169 345.26420928 439.643840367 345.26420928 c 0
 380.265743801 345.26420928 311.835174829 327.819186271 281 311 c 1
 335 364 l 1
 347.452810551 367.831634016 385.179524427 391.012279158 461.823715208 391.012279158 c 0
 575.987953375 391.012279158 696 330.772878088 696 182 c 0
 696 47.2467431379 620.491372745 -36.0120708321 513.613196887 -36.0120708321 c 0
 430.076049697 -36.0120708321 397.546066129 8.70770151412 379 49 c 1
 397 49 l 1
 379.737304688 7.81640625 336.954101562 -36 272 -36 c 0
 127.721155519 -36 153.547543458 134.934171954 109.631651492 134.934171954 c 0
 105.454286159 134.934171954 100.645879733 133.38752784 95 130 c 1
EndSplineSet
Refer: 575 -1 N 1 0 0 1 795 1 2
Fore
SplineSet
26.3335078618 104.843455669 m 0
 26.3335078618 105.619619237 26.5438631104 106.34325086 27 107 c 0
 127 251 216.771757017 322.255813626 315 413 c 0
 321.771757017 419.255813626 331.318255181 419.583764967 338 425 c 0
 436.178606743 504.583764967 556.172851562 555.573242188 672 561 c 0
 679.000180971 561.348880666 685.931275691 561.521258282 692.789568454 561.521258282 c 0
 880.432906895 561.521258282 1016.21729266 434.886161691 1016.21729266 251.683875962 c 0
 1016.21729266 95.561739781 918.450276035 -33 775 -33 c 1
 796 9 l 1
 882.984501944 19.350933771 923.210954807 116.935827076 923.210954807 209.131251835 c 0
 923.210954807 233.352668235 920.43449065 257.20209891 915 279 c 0
 886.172820874 394.628693382 768.483958377 462.243942407 638.537406247 462.243942407 c 0
 530.214074164 462.243942407 451.845388993 434.854960824 355 374 c 0
 337.385663093 362.931638423 349.259108476 366.689899742 335 355 c 0
 238.259108476 275.689899742 156 211 56 79 c 1
 56 79 26.3335078618 95.6260293241 26.3335078618 104.843455669 c 0
67 415 m 0
 67 492.659893112 130.122004356 559.182720185 222.564422044 559.182720185 c 0
 295.098757691 559.182720185 343.442474614 508.453627101 343.442474614 452.594013384 c 0
 343.442474614 440.35979067 341.053948377 427.979729485 336 416 c 0
 329.657903166 400.778967598 328.678765299 396.283853131 328.678765299 394.880761233 c 0
 328.678765299 392.965332614 330.503516077 396.812290255 323 387 c 1
 288 377 l 1
 298.833989511 397.765146564 303.147127427 416.900080228 303.147127427 433.668896433 c 0
 303.147127427 476.252082181 272.428790024 501.565481201 226.819163069 501.565481201 c 0
 187.753535816 501.565481201 146.227495934 475.264635413 146.227495934 432.56219309 c 1
 191 371 l 1
 177.528911607 347.906705613 155.726815213 335.944628885 134.497388019 335.944628885 c 0
 87.6475340335 335.944628885 67 368.90425106 67 415 c 0
95 130 m 1
 107 165 l 1
 115 169 124 172 131 172 c 0
 131.236453202 172.004926108 131.471960009 172.007377029 131.706533928 172.007377029 c 0
 179.090465675 172.007377029 188.408866995 72 271 72 c 0
 320 72 370 101 371 197 c 1
 406 197 l 1
 406.982755728 95.7761599807 464.945402412 71.9783082165 523.896187265 71.9783082165 c 0
 586.200672026 71.9783082165 638 116.718415806 638 194 c 0
 638 275.772692542 559.983416169 345.26420928 439.643840367 345.26420928 c 0
 380.265743801 345.26420928 311.835174829 327.819186271 281 311 c 1
 335 364 l 1
 347.452810551 367.831634016 385.179524427 391.012279158 461.823715208 391.012279158 c 0
 575.987953375 391.012279158 696 330.772878088 696 182 c 0
 696 47.2467431379 620.491372745 -36.0120708321 513.613196887 -36.0120708321 c 0
 430.076049697 -36.0120708321 397.546066129 8.70770151412 379 49 c 1
 397 49 l 1
 379.737304688 7.81640625 336.954101562 -36 272 -36 c 0
 127.721155519 -36 153.547543458 134.934171954 109.631651492 134.934171954 c 0
 105.454286159 134.934171954 100.645879733 133.38752784 95 130 c 1
EndSplineSet
Refer: 575 -1 N 1 0 0 1 795 1 2
LCarets2: 1 0
Ligature2: "si_blws_1 subtable" si_Ka si_MatraU
EndChar

StartChar: si_KhI
Encoding: 100 -1 96
GlifName: si_K_hI_
Width: 877
VWidth: -24
Flags: HMW
LayerCount: 3
Back
SplineSet
751.43359375 336.353515625 m 4
 813.630859375 332.138671875 l 0
 813.630859375 114.291992188 738.642578125 -54.8984375 572.459960938 -54.8984375 c 0
 502.900390625 -54.8984375 450.546875 -33.203125 447 28 c 1
 485.404296875 3.6044921875 l 1
 473.602539062 -18.2236328125 464.434570312 -34.0078125 430 -91.9130859375 c 1
 389.888671875 -71 l 1
 428.796875 -11.0185546875 486.889648438 86.4775390625 481.032226562 178.049804688 c 0
 474.748046875 276.287109375 382.245117188 329.544921875 307.25390625 329.544921875 c 0
 204.419921875 329.544921875 114.188476562 262.353515625 114.188476562 129.487304688 c 0
 114.188476562 46.1943359375 150.720703125 -8.2998046875 223.15625 -8.2998046875 c 0
 264.450195312 -8.2998046875 283.411132812 25.0712890625 283.411132812 52.2392578125 c 0
 283.411132812 85.287109375 263.328125 110.944335938 231.645507812 110.944335938 c 0
 206.208984375 110.944335938 182.908203125 91.3330078125 182.908203125 54.2900390625 c 0
 182.908203125 26.85546875 199.26953125 -6.75 241.888671875 -12.09375 c 1
 241.888671875 -23.3828125 l 1
 173.337890625 -21.287109375 140.354492188 15.962890625 140.354492188 56.8916015625 c 0
 140.354492188 114.103515625 180.590820312 169.70703125 246.03125 169.70703125 c 0
 302.182617188 169.70703125 345.776367188 127.157226562 345.776367188 61.1015625 c 0
 345.776367188 9.072265625 306.615234375 -58.7978515625 225.735351562 -58.7978515625 c 0
 106.1171875 -58.7978515625 61.5205078125 58.337890625 61.5205078125 151.438476562 c 0
 61.5205078125 326.481445312 178.671875 422.469726562 320.525390625 424.913085938 c 0
 404.267578125 426.35546875 542.91796875 370.383789062 542.91796875 194.314453125 c 0
 542.91796875 113.931640625 513.919921875 68.451171875 492.997070312 30 c 1
 502.197265625 102 l 1
 515.55078125 69.466796875 525.80078125 50.37890625 585.459960938 50.37890625 c 0
 686.295898438 50.37890625 751.43359375 174.697265625 751.43359375 336.353515625 c 4
EndSplineSet
Refer: 560 -1 N 1 0 0 1 133 0 2
Fore
SplineSet
751.43359375 336.353515625 m 4
 813.630859375 332.138671875 l 0
 813.630859375 114.291992188 738.642578125 -54.8984375 572.459960938 -54.8984375 c 0
 502.900390625 -54.8984375 450.546875 -33.203125 447 28 c 1
 485.404296875 3.6044921875 l 1
 473.602539062 -18.2236328125 464.434570312 -34.0078125 430 -91.9130859375 c 1
 389.888671875 -71 l 1
 428.796875 -11.0185546875 486.889648438 86.4775390625 481.032226562 178.049804688 c 0
 474.748046875 276.287109375 382.245117188 329.544921875 307.25390625 329.544921875 c 0
 204.419921875 329.544921875 114.188476562 262.353515625 114.188476562 129.487304688 c 0
 114.188476562 46.1943359375 150.720703125 -8.2998046875 223.15625 -8.2998046875 c 0
 264.450195312 -8.2998046875 283.411132812 25.0712890625 283.411132812 52.2392578125 c 0
 283.411132812 85.287109375 263.328125 110.944335938 231.645507812 110.944335938 c 0
 206.208984375 110.944335938 182.908203125 91.3330078125 182.908203125 54.2900390625 c 0
 182.908203125 26.85546875 199.26953125 -6.75 241.888671875 -12.09375 c 1
 241.888671875 -23.3828125 l 1
 173.337890625 -21.287109375 140.354492188 15.962890625 140.354492188 56.8916015625 c 0
 140.354492188 114.103515625 180.590820312 169.70703125 246.03125 169.70703125 c 0
 302.182617188 169.70703125 345.776367188 127.157226562 345.776367188 61.1015625 c 0
 345.776367188 9.072265625 306.615234375 -58.7978515625 225.735351562 -58.7978515625 c 0
 106.1171875 -58.7978515625 61.5205078125 58.337890625 61.5205078125 151.438476562 c 0
 61.5205078125 326.481445312 178.671875 422.469726562 320.525390625 424.913085938 c 0
 404.267578125 426.35546875 542.91796875 370.383789062 542.91796875 194.314453125 c 0
 542.91796875 113.931640625 513.919921875 68.451171875 492.997070312 30 c 1
 502.197265625 102 l 1
 515.55078125 69.466796875 525.80078125 50.37890625 585.459960938 50.37890625 c 0
 686.295898438 50.37890625 751.43359375 174.697265625 751.43359375 336.353515625 c 4
EndSplineSet
Refer: 560 -1 N 1 0 0 1 133 0 2
LCarets2: 1 0
Ligature2: "si_abvs_1 subtable" si_Kha si_MatraI
EndChar

StartChar: si_GU
Encoding: 111 -1 107
GlifName: si_G_U_
Width: 959
VWidth: -24
Flags: HMW
LayerCount: 3
Back
SplineSet
53.9951171875 221.564453125 m 0
 53.9951171875 428.865234375 210.2890625 536 337 538 c 1
 337 462.879882812 l 1
 241.590554086 462.879882812 111.968558438 414.808979975 111.968558438 243.954944533 c 0
 111.968558438 124.760114358 184.292976321 47.4672417361 317.513504254 47.4672417361 c 0
 418.938043587 47.4672417361 488.04658674 90.3761309858 488.04658674 162.823479171 c 0
 488.04658674 201.881753743 461.035717971 237 389 237 c 1
 440 291 l 1
 489.300980971 289.993857531 552.001924841 243.820283358 552.001924841 159.044207233 c 0
 552.001924841 47.3683133416 473.125462188 -55.0048828125 308.598632812 -55.0048828125 c 0
 140.69140625 -55.0048828125 53.9951171875 61.9140625 53.9951171875 221.564453125 c 0
391.167684725 238.866995014 m 1
 391.167684725 432.347898396 517.522364898 542.603515625 655.6796875 542.603515625 c 0
 827.643554688 542.603515625 920.870117188 411.889648438 920.870117188 267.375 c 0
 920.870117188 105.619414168 851.010748998 -46.1628684214 678.86888751 -46.1628684214 c 0
 674.127459102 -46.1628684214 669.308433377 -46.0477177473 664.411132812 -45.814453125 c 5
 664.411132812 8.6123046875 l 1
 669.101913855 8.32916012884 675.047896537 8.18981791239 679.552569681 8.18981791239 c 0
 802.7429541 8.18981791239 856.623046875 112.399906843 856.623046875 229.600585938 c 0
 856.623046875 353.83984375 776.359375 445.533203125 636.9375 445.533203125 c 0
 556.0703125 445.533203125 445.365234375 397.33203125 438.877929688 254.823242188 c 1
 391.167684725 238.866995014 l 1
EndSplineSet
Refer: 575 -1 N 1 0 0 1 665 1 2
Fore
SplineSet
53.9951171875 221.564453125 m 0
 53.9951171875 428.865234375 210.2890625 536 337 538 c 1
 337 462.879882812 l 1
 241.590554086 462.879882812 111.968558438 414.808979975 111.968558438 243.954944533 c 0
 111.968558438 124.760114358 184.292976321 47.4672417361 317.513504254 47.4672417361 c 0
 418.938043587 47.4672417361 488.04658674 90.3761309858 488.04658674 162.823479171 c 0
 488.04658674 201.881753743 461.035717971 237 389 237 c 1
 440 291 l 1
 489.300980971 289.993857531 552.001924841 243.820283358 552.001924841 159.044207233 c 0
 552.001924841 47.3683133416 473.125462188 -55.0048828125 308.598632812 -55.0048828125 c 0
 140.69140625 -55.0048828125 53.9951171875 61.9140625 53.9951171875 221.564453125 c 0
391.167684725 238.866995014 m 1
 391.167684725 432.347898396 517.522364898 542.603515625 655.6796875 542.603515625 c 0
 827.643554688 542.603515625 920.870117188 411.889648438 920.870117188 267.375 c 0
 920.870117188 105.619414168 851.010748998 -46.1628684214 678.86888751 -46.1628684214 c 0
 674.127459102 -46.1628684214 669.308433377 -46.0477177473 664.411132812 -45.814453125 c 5
 664.411132812 8.6123046875 l 1
 669.101913855 8.32916012884 675.047896537 8.18981791239 679.552569681 8.18981791239 c 0
 802.7429541 8.18981791239 856.623046875 112.399906843 856.623046875 229.600585938 c 0
 856.623046875 353.83984375 776.359375 445.533203125 636.9375 445.533203125 c 0
 556.0703125 445.533203125 445.365234375 397.33203125 438.877929688 254.823242188 c 1
 391.167684725 238.866995014 l 1
EndSplineSet
Refer: 575 -1 N 1 0 0 1 665 1 2
LCarets2: 1 0
Ligature2: "si_blws_1 subtable" si_Ga si_MatraU
EndChar

StartChar: si_C.halant
Encoding: 135 -1 132
GlifName: si_C_.halant
Width: 828
VWidth: -14
Flags: HMW
LayerCount: 3
Back
SplineSet
-514 757 m 1048
EndSplineSet
Refer: 5 3488 N 1 0 0 1 0 0 2
Refer: 576 -1 S 1 0 0 1 48 0 2
Fore
SplineSet
-514 757 m 1048
EndSplineSet
Refer: 5 3488 N 1 0 0 1 0 0 2
Refer: 576 -1 S 1 0 0 1 48 0 2
Ligature2: "si_halant_1 subtable" si_Ca si_Halant
EndChar

